<mxfile host="Electron" modified="2024-04-11T16:59:31.178Z" agent="Mozilla/5.0 (Windows NT 10.0; Win64; x64) AppleWebKit/537.36 (KHTML, like Gecko) draw.io/24.1.0 Chrome/120.0.6099.109 Electron/28.1.0 Safari/537.36" etag="PEruryCthwv56DEneQ_K" version="24.1.0" type="device">
  <diagram id="R2lEEEUBdFMjLlhIrx00" name="Page-1">
    <mxGraphModel dx="1621" dy="717" grid="1" gridSize="10" guides="0" tooltips="1" connect="0" arrows="1" fold="1" page="0" pageScale="1" pageWidth="850" pageHeight="1100" math="0" shadow="0" extFonts="Permanent Marker^https://fonts.googleapis.com/css?family=Permanent+Marker">
      <root>
        <mxCell id="0" />
        <mxCell id="1" parent="0" />
        <mxCell id="C-vyLk0tnHw3VtMMgP7b-2" value="Video" style="shape=table;startSize=30;container=1;collapsible=1;childLayout=tableLayout;fixedRows=1;rowLines=0;fontStyle=1;align=center;resizeLast=1;" parent="1" vertex="1">
          <mxGeometry x="290" y="110" width="250" height="130" as="geometry" />
        </mxCell>
        <mxCell id="C-vyLk0tnHw3VtMMgP7b-6" value="" style="shape=partialRectangle;collapsible=0;dropTarget=0;pointerEvents=0;fillColor=none;points=[[0,0.5],[1,0.5]];portConstraint=eastwest;top=0;left=0;right=0;bottom=0;fontStyle=1" parent="C-vyLk0tnHw3VtMMgP7b-2" vertex="1">
          <mxGeometry y="30" width="250" height="30" as="geometry" />
        </mxCell>
        <mxCell id="C-vyLk0tnHw3VtMMgP7b-7" value="" style="shape=partialRectangle;overflow=hidden;connectable=0;fillColor=none;top=0;left=0;bottom=0;right=0;" parent="C-vyLk0tnHw3VtMMgP7b-6" vertex="1">
          <mxGeometry width="30" height="30" as="geometry">
            <mxRectangle width="30" height="30" as="alternateBounds" />
          </mxGeometry>
        </mxCell>
        <mxCell id="C-vyLk0tnHw3VtMMgP7b-8" value="video_id" style="shape=partialRectangle;overflow=hidden;connectable=1;fillColor=none;top=0;left=0;bottom=0;right=0;align=left;spacingLeft=6;movable=1;resizable=1;rotatable=1;deletable=1;editable=1;locked=0;fontStyle=7" parent="C-vyLk0tnHw3VtMMgP7b-6" vertex="1">
          <mxGeometry x="30" width="220" height="30" as="geometry">
            <mxRectangle width="220" height="30" as="alternateBounds" />
          </mxGeometry>
        </mxCell>
        <mxCell id="C-vyLk0tnHw3VtMMgP7b-9" value="" style="shape=partialRectangle;collapsible=0;dropTarget=0;pointerEvents=0;fillColor=none;points=[[0,0.5],[1,0.5]];portConstraint=eastwest;top=0;left=0;right=0;bottom=0;" parent="C-vyLk0tnHw3VtMMgP7b-2" vertex="1">
          <mxGeometry y="60" width="250" height="30" as="geometry" />
        </mxCell>
        <mxCell id="C-vyLk0tnHw3VtMMgP7b-10" value="" style="shape=partialRectangle;overflow=hidden;connectable=0;fillColor=none;top=0;left=0;bottom=0;right=0;" parent="C-vyLk0tnHw3VtMMgP7b-9" vertex="1">
          <mxGeometry width="30" height="30" as="geometry">
            <mxRectangle width="30" height="30" as="alternateBounds" />
          </mxGeometry>
        </mxCell>
        <mxCell id="C-vyLk0tnHw3VtMMgP7b-11" value="video_title" style="shape=partialRectangle;overflow=hidden;connectable=0;fillColor=none;top=0;left=0;bottom=0;right=0;align=left;spacingLeft=6;" parent="C-vyLk0tnHw3VtMMgP7b-9" vertex="1">
          <mxGeometry x="30" width="220" height="30" as="geometry">
            <mxRectangle width="220" height="30" as="alternateBounds" />
          </mxGeometry>
        </mxCell>
        <mxCell id="NnqCrW_BLDO7N7kZBRQU-1" value="" style="shape=partialRectangle;collapsible=0;dropTarget=0;pointerEvents=0;fillColor=none;points=[[0,0.5],[1,0.5]];portConstraint=eastwest;top=0;left=0;right=0;bottom=0;" parent="C-vyLk0tnHw3VtMMgP7b-2" vertex="1">
          <mxGeometry y="90" width="250" height="30" as="geometry" />
        </mxCell>
        <mxCell id="NnqCrW_BLDO7N7kZBRQU-2" value="" style="shape=partialRectangle;overflow=hidden;connectable=0;fillColor=none;top=0;left=0;bottom=0;right=0;" parent="NnqCrW_BLDO7N7kZBRQU-1" vertex="1">
          <mxGeometry width="30" height="30" as="geometry">
            <mxRectangle width="30" height="30" as="alternateBounds" />
          </mxGeometry>
        </mxCell>
        <mxCell id="NnqCrW_BLDO7N7kZBRQU-3" value="year" style="shape=partialRectangle;overflow=hidden;connectable=0;fillColor=none;top=0;left=0;bottom=0;right=0;align=left;spacingLeft=6;" parent="NnqCrW_BLDO7N7kZBRQU-1" vertex="1">
          <mxGeometry x="30" width="220" height="30" as="geometry">
            <mxRectangle width="220" height="30" as="alternateBounds" />
          </mxGeometry>
        </mxCell>
        <mxCell id="NnqCrW_BLDO7N7kZBRQU-7" value="Blu_ray" style="shape=table;startSize=30;container=1;collapsible=1;childLayout=tableLayout;fixedRows=1;rowLines=0;fontStyle=1;align=center;resizeLast=1;" parent="1" vertex="1">
          <mxGeometry x="50" y="410" width="250" height="100" as="geometry" />
        </mxCell>
        <mxCell id="NnqCrW_BLDO7N7kZBRQU-8" value="" style="shape=partialRectangle;collapsible=0;dropTarget=0;pointerEvents=0;fillColor=none;points=[[0,0.5],[1,0.5]];portConstraint=eastwest;top=0;left=0;right=0;bottom=0;" parent="NnqCrW_BLDO7N7kZBRQU-7" vertex="1">
          <mxGeometry y="30" width="250" height="30" as="geometry" />
        </mxCell>
        <mxCell id="NnqCrW_BLDO7N7kZBRQU-9" value="" style="shape=partialRectangle;overflow=hidden;connectable=0;fillColor=none;top=0;left=0;bottom=0;right=0;" parent="NnqCrW_BLDO7N7kZBRQU-8" vertex="1">
          <mxGeometry width="30" height="30" as="geometry">
            <mxRectangle width="30" height="30" as="alternateBounds" />
          </mxGeometry>
        </mxCell>
        <mxCell id="NnqCrW_BLDO7N7kZBRQU-10" value="blu_id" style="shape=partialRectangle;overflow=hidden;connectable=0;fillColor=none;top=0;left=0;bottom=0;right=0;align=left;spacingLeft=6;fontStyle=0" parent="NnqCrW_BLDO7N7kZBRQU-8" vertex="1">
          <mxGeometry x="30" width="220" height="30" as="geometry">
            <mxRectangle width="220" height="30" as="alternateBounds" />
          </mxGeometry>
        </mxCell>
        <mxCell id="NnqCrW_BLDO7N7kZBRQU-11" value="" style="shape=partialRectangle;collapsible=0;dropTarget=0;pointerEvents=0;fillColor=none;points=[[0,0.5],[1,0.5]];portConstraint=eastwest;top=0;left=0;right=0;bottom=0;" parent="NnqCrW_BLDO7N7kZBRQU-7" vertex="1">
          <mxGeometry y="60" width="250" height="30" as="geometry" />
        </mxCell>
        <mxCell id="NnqCrW_BLDO7N7kZBRQU-12" value="" style="shape=partialRectangle;overflow=hidden;connectable=0;fillColor=none;top=0;left=0;bottom=0;right=0;" parent="NnqCrW_BLDO7N7kZBRQU-11" vertex="1">
          <mxGeometry width="30" height="30" as="geometry">
            <mxRectangle width="30" height="30" as="alternateBounds" />
          </mxGeometry>
        </mxCell>
        <mxCell id="NnqCrW_BLDO7N7kZBRQU-13" value="price" style="shape=partialRectangle;overflow=hidden;connectable=0;fillColor=none;top=0;left=0;bottom=0;right=0;align=left;spacingLeft=6;" parent="NnqCrW_BLDO7N7kZBRQU-11" vertex="1">
          <mxGeometry x="30" width="220" height="30" as="geometry">
            <mxRectangle width="220" height="30" as="alternateBounds" />
          </mxGeometry>
        </mxCell>
        <mxCell id="NnqCrW_BLDO7N7kZBRQU-17" value="downnable_video" style="shape=table;startSize=30;container=1;collapsible=1;childLayout=tableLayout;fixedRows=1;rowLines=0;fontStyle=1;align=center;resizeLast=1;" parent="1" vertex="1">
          <mxGeometry x="580" y="410" width="250" height="130" as="geometry" />
        </mxCell>
        <mxCell id="NnqCrW_BLDO7N7kZBRQU-18" value="" style="shape=partialRectangle;collapsible=0;dropTarget=0;pointerEvents=0;fillColor=none;points=[[0,0.5],[1,0.5]];portConstraint=eastwest;top=0;left=0;right=0;bottom=0;" parent="NnqCrW_BLDO7N7kZBRQU-17" vertex="1">
          <mxGeometry y="30" width="250" height="30" as="geometry" />
        </mxCell>
        <mxCell id="NnqCrW_BLDO7N7kZBRQU-19" value="" style="shape=partialRectangle;overflow=hidden;connectable=0;fillColor=none;top=0;left=0;bottom=0;right=0;" parent="NnqCrW_BLDO7N7kZBRQU-18" vertex="1">
          <mxGeometry width="30" height="30" as="geometry">
            <mxRectangle width="30" height="30" as="alternateBounds" />
          </mxGeometry>
        </mxCell>
        <mxCell id="NnqCrW_BLDO7N7kZBRQU-20" value="dv_id" style="shape=partialRectangle;overflow=hidden;connectable=0;fillColor=none;top=0;left=0;bottom=0;right=0;align=left;spacingLeft=6;fontStyle=0" parent="NnqCrW_BLDO7N7kZBRQU-18" vertex="1">
          <mxGeometry x="30" width="220" height="30" as="geometry">
            <mxRectangle width="220" height="30" as="alternateBounds" />
          </mxGeometry>
        </mxCell>
        <mxCell id="NnqCrW_BLDO7N7kZBRQU-38" value="" style="shape=partialRectangle;collapsible=0;dropTarget=0;pointerEvents=0;fillColor=none;points=[[0,0.5],[1,0.5]];portConstraint=eastwest;top=0;left=0;right=0;bottom=0;" parent="NnqCrW_BLDO7N7kZBRQU-17" vertex="1">
          <mxGeometry y="60" width="250" height="30" as="geometry" />
        </mxCell>
        <mxCell id="NnqCrW_BLDO7N7kZBRQU-39" value="" style="shape=partialRectangle;overflow=hidden;connectable=0;fillColor=none;top=0;left=0;bottom=0;right=0;" parent="NnqCrW_BLDO7N7kZBRQU-38" vertex="1">
          <mxGeometry width="30" height="30" as="geometry">
            <mxRectangle width="30" height="30" as="alternateBounds" />
          </mxGeometry>
        </mxCell>
        <mxCell id="NnqCrW_BLDO7N7kZBRQU-40" value="url" style="shape=partialRectangle;overflow=hidden;connectable=0;fillColor=none;top=0;left=0;bottom=0;right=0;align=left;spacingLeft=6;fontStyle=0" parent="NnqCrW_BLDO7N7kZBRQU-38" vertex="1">
          <mxGeometry x="30" width="220" height="30" as="geometry">
            <mxRectangle width="220" height="30" as="alternateBounds" />
          </mxGeometry>
        </mxCell>
        <mxCell id="NnqCrW_BLDO7N7kZBRQU-21" value="" style="shape=partialRectangle;collapsible=0;dropTarget=0;pointerEvents=0;fillColor=none;points=[[0,0.5],[1,0.5]];portConstraint=eastwest;top=0;left=0;right=0;bottom=0;" parent="NnqCrW_BLDO7N7kZBRQU-17" vertex="1">
          <mxGeometry y="90" width="250" height="30" as="geometry" />
        </mxCell>
        <mxCell id="NnqCrW_BLDO7N7kZBRQU-22" value="" style="shape=partialRectangle;overflow=hidden;connectable=0;fillColor=none;top=0;left=0;bottom=0;right=0;" parent="NnqCrW_BLDO7N7kZBRQU-21" vertex="1">
          <mxGeometry width="30" height="30" as="geometry">
            <mxRectangle width="30" height="30" as="alternateBounds" />
          </mxGeometry>
        </mxCell>
        <mxCell id="NnqCrW_BLDO7N7kZBRQU-23" value="price" style="shape=partialRectangle;overflow=hidden;connectable=0;fillColor=none;top=0;left=0;bottom=0;right=0;align=left;spacingLeft=6;" parent="NnqCrW_BLDO7N7kZBRQU-21" vertex="1">
          <mxGeometry x="30" width="220" height="30" as="geometry">
            <mxRectangle width="220" height="30" as="alternateBounds" />
          </mxGeometry>
        </mxCell>
        <mxCell id="NnqCrW_BLDO7N7kZBRQU-29" value="blu" style="shape=rhombus;double=1;perimeter=rhombusPerimeter;whiteSpace=wrap;html=1;align=center;" parent="1" vertex="1">
          <mxGeometry x="120" y="300" width="120" height="60" as="geometry" />
        </mxCell>
        <mxCell id="NnqCrW_BLDO7N7kZBRQU-30" value="down" style="shape=rhombus;double=1;perimeter=rhombusPerimeter;whiteSpace=wrap;html=1;align=center;" parent="1" vertex="1">
          <mxGeometry x="650" y="300" width="120" height="60" as="geometry" />
        </mxCell>
        <mxCell id="NnqCrW_BLDO7N7kZBRQU-41" value="" style="endArrow=none;html=1;rounded=0;dashed=1;dashPattern=1 2;" parent="1" edge="1">
          <mxGeometry relative="1" as="geometry">
            <mxPoint x="80" y="470" as="sourcePoint" />
            <mxPoint x="240" y="470" as="targetPoint" />
          </mxGeometry>
        </mxCell>
        <mxCell id="NnqCrW_BLDO7N7kZBRQU-43" value="" style="endArrow=none;html=1;rounded=0;dashed=1;dashPattern=1 2;" parent="1" edge="1">
          <mxGeometry relative="1" as="geometry">
            <mxPoint x="80" y="500" as="sourcePoint" />
            <mxPoint x="240" y="500" as="targetPoint" />
          </mxGeometry>
        </mxCell>
        <mxCell id="NnqCrW_BLDO7N7kZBRQU-44" value="" style="endArrow=none;html=1;rounded=0;dashed=1;dashPattern=1 2;" parent="1" edge="1">
          <mxGeometry relative="1" as="geometry">
            <mxPoint x="620" y="470" as="sourcePoint" />
            <mxPoint x="780" y="470" as="targetPoint" />
          </mxGeometry>
        </mxCell>
        <mxCell id="NnqCrW_BLDO7N7kZBRQU-45" value="" style="endArrow=none;html=1;rounded=0;dashed=1;dashPattern=1 2;" parent="1" edge="1">
          <mxGeometry relative="1" as="geometry">
            <mxPoint x="610" y="500" as="sourcePoint" />
            <mxPoint x="770" y="500" as="targetPoint" />
          </mxGeometry>
        </mxCell>
        <mxCell id="NnqCrW_BLDO7N7kZBRQU-47" value="" style="endArrow=none;html=1;rounded=0;dashed=1;dashPattern=1 2;" parent="1" edge="1">
          <mxGeometry relative="1" as="geometry">
            <mxPoint x="620" y="530" as="sourcePoint" />
            <mxPoint x="780" y="530" as="targetPoint" />
          </mxGeometry>
        </mxCell>
        <mxCell id="NnqCrW_BLDO7N7kZBRQU-48" value="" style="shape=link;html=1;rounded=0;exitX=0.453;exitY=1;exitDx=0;exitDy=0;exitPerimeter=0;entryX=0.505;entryY=-0.027;entryDx=0;entryDy=0;entryPerimeter=0;" parent="1" source="NnqCrW_BLDO7N7kZBRQU-29" target="NnqCrW_BLDO7N7kZBRQU-7" edge="1">
          <mxGeometry relative="1" as="geometry">
            <mxPoint x="110" y="380" as="sourcePoint" />
            <mxPoint x="270" y="380" as="targetPoint" />
          </mxGeometry>
        </mxCell>
        <mxCell id="NnqCrW_BLDO7N7kZBRQU-50" value="" style="shape=link;html=1;rounded=0;exitX=0.464;exitY=0.978;exitDx=0;exitDy=0;exitPerimeter=0;entryX=0.495;entryY=-0.041;entryDx=0;entryDy=0;entryPerimeter=0;" parent="1" source="NnqCrW_BLDO7N7kZBRQU-30" target="NnqCrW_BLDO7N7kZBRQU-17" edge="1">
          <mxGeometry relative="1" as="geometry">
            <mxPoint x="690" y="360" as="sourcePoint" />
            <mxPoint x="692" y="407" as="targetPoint" />
          </mxGeometry>
        </mxCell>
        <mxCell id="NnqCrW_BLDO7N7kZBRQU-51" style="edgeStyle=orthogonalEdgeStyle;rounded=0;orthogonalLoop=1;jettySize=auto;html=1;entryX=-0.015;entryY=0.244;entryDx=0;entryDy=0;entryPerimeter=0;" parent="1" source="NnqCrW_BLDO7N7kZBRQU-29" target="C-vyLk0tnHw3VtMMgP7b-9" edge="1">
          <mxGeometry relative="1" as="geometry" />
        </mxCell>
        <mxCell id="NnqCrW_BLDO7N7kZBRQU-52" style="edgeStyle=orthogonalEdgeStyle;rounded=0;orthogonalLoop=1;jettySize=auto;html=1;entryX=1.007;entryY=0.111;entryDx=0;entryDy=0;entryPerimeter=0;" parent="1" source="NnqCrW_BLDO7N7kZBRQU-30" target="C-vyLk0tnHw3VtMMgP7b-9" edge="1">
          <mxGeometry relative="1" as="geometry" />
        </mxCell>
        <mxCell id="NnqCrW_BLDO7N7kZBRQU-53" value="" style="shape=image;verticalLabelPosition=bottom;labelBackgroundColor=default;verticalAlign=top;aspect=fixed;imageAspect=0;image=data:image/png,iVBORw0KGgoAAAANSUhEUgAAA+MAAAMhCAIAAAAMxvc4AAAgAElEQVR4nOzdZ3xTZRsG8LtJ06Z7791C996D2TIqG9kgQxEURRyAryIyFRQBFQUFhaqAbJCpsmeTbmjponTTvUeaNulJ3w8dFGSL5LS9/p/M85xzcic/aq8+ee4ThZaWFgIAAAAAAJbhyLsAAAAAAAB4ACR1AAAAAAA2QlIHAAAAAGAjJHUAAAAAADZCUgcAAAAAYCMkdQAAAAAANkJSBwAAAABgIyR1AAAAAAA2QlIHAAAAAGAjJHUAAAAAADZCUgcAAAAAYCMkdQAAAAAANkJSBwAAAABgIyR1AAAAAAA2QlIHAAAAAGAjJHUAAAAAADZCUgcAAAAAYCMkdQAAAAAANkJSBwAAAABgIyR1AAAAAAA2QlIHAAAAAGAjJHUAAAAAADZCUgcAAAAAYCMkdQAAAAAANkJSBwAAAABgIyR1AAAAAAA2QlIHAAAAAGAjJHUAAAAAADZCUgcAAAAAYCMkdQAAAAAANkJSBwAAAABgIyR1AAAAAAA2QlIHAAAAAGAjJHUAAAAAADZCUgcAAAAAYCMkdQAAAAAANkJSBwAAAABgIyR1AAAAAAA2QlIHAAAAAGAjJHUAAAAAADZCUgcAAAAAYCMkdQAAAAAANkJSBwAAAABgIyR1AAAAAAA2QlIHAAAAAGAjJHUAAAAAADZCUgcAAAAAYCMkdQAAAAAANkJSBwAAAABgIyR1AAAAAAA2QlIHAAAAAGAjJHUAAAAAADZCUgcAAAAAYCMkdQAAAAAANkJSBwAAAABgIyR1AAAAAAA2QlIHAAAAAGAjJHUAAAAAADZCUgcAAAAAYCMkdQAAAAAANkJSBwAAAABgIyR1AAAAAAA2QlIHAAAAAGAjJHUAAAAAADZCUgcAAAAAYCMkdQAAAAAANkJSBwAAAABgIyR1AAAAAAA2QlIHAAAAAGAjJHUAAAAAADZCUgcAAAAAYCMkdQAAAAAANlKUdwFwj5MnTqxdt0FJmS/vQro5SVPj0o8/DH/pJXkXAgAAAPBQSOrsUlVZ1SKTTX3vI3kX0s1t/3xpVWWlvKsAAAAAeBQkddaxcnRx8Q+WdxXdnJWDs7xLAAAAAHgM7FMHAAAAAGAjrKkDANxv8QcL8/LyeDz8H/I/1NzMqKioRPz2q7wLAQBgL/weAgC437WrVz1Dw+3dveVdSHdWWVr8+zdfyLsKAABWQ1IHALifqppawKCX7D185F1Id1ZZUnxgy0Z5VwEAwGrYpw4AAAAAwEZYU4d/jxGXZhfm5ZcVN+j4hzsYcuVdDwAAAEB3gDV1+Pdqi1POnVz95ubNV2pUENMBAAAAng8kdfj3dGz8e6k2K6h5BztqyLsWAAAAgO4CSR2ejaT4zNdHr1S1PUiNzahQtfcPUJdvUQAAAADdCPapwzOQlJxbs2nt7eDt81sf5sUKi3neg/z08ZcfwHNSX56eeufOnYoKVbvRQ62V75uVioqz7mRlFRcypoNG9NZ+qiujsQQAoMtAUu+5ZLW3Es9fzhWbuob5cW9H5Uqs/Qa4qhLVZ1+OvnxLPWSafy8VIiJiyq6fTivStA0NMVOmptSDv2/ZFinMbjIYUB93LlM73E4962Z0OsdlkYsBl0hcdvParRLt3sG+hiqdn01UGn8mSphSKdG2DBnVx8+cR0RE0tyr1wTJ5SXFtTqDJk4wTtkZkaQ2csK0AM0X/3YAsApTX1N849I366+bfLBq7D9nq4oS/zq+8ftEjdkfjRzRNiityE8vU7d31FF69KVri1POnfx6Y4xk7Dv9hz//ygEA4PnBGmjPJK0Qbvn6rVWxIjNby+qrPy2N+HDxX0liRaK6m4eOfb9293cbT13ObW47NlO4eeHPu2PECkREzUomTv399LlcI78+ljq6amrUXBCZnEZW/sEGzVnCb+Z/vWTJtv+9FnEsT9bxbE050d+8uflQtdVLb44dzI9Z8dqO04Vts1r2zpYVMXv2F8iUUja9++NP+y7/cT6/6YW/HwBswzW2czfkirnmPgHGvH/OGvbytVKScHS8/W3bltslmb/MXTZr7Bc/xEgec2k0lgAAdBlI6j0QUxW58dsVZwzmfvXatJfcQkY7tyRnS00dfJyVauOTy11HjPJR4+qZ2Zq1fuAiK41KSZMZ+gRYKBERqdmFOCrXVLSYu4ZPDA7zN1ZiKmMEWYy9iw8neutv5cGrlq6cYMJtUeC2hwtJ+rlPX41I7zN9ySx3G11Nl/F9vaoEv+3PlBAR8bT1uCX5lQoO1nRSwJ82cqCP95ghNvd/0A/QEzXciLrVYOngbf/PoE5EDdejbtXrOPr48NsGuNq9/Xs7+zg7GT32f+toLAEA6Cqw+6XHkd05tnvNHhqzfWI/Ew4RMfW1FTWkO8LZTY00vAMHiJO/jq3R8HP2aF1tYyqjrt5uMg70dW/PzzVpMXFNugOc3VSIiJiKlJj4ZotRWjf2lwfPH+mvU74/vUzBwd9Fj0NEJMk7sGbfZbX+m6f1Ums9ncvlKTLZKXm11FufiGrS4uOlJm5lGdrhH09xVp/yot8OAJYS346NrtULcnZWefBsXHStqq+zt1b7CFdvwP+WDHiSK6OxBACgy0BS72nKYyM2xXJHzJ/UvhRXG5OeIlX1DnBoTeaSWynxuUoerzm2bhWXZkefETbqDHXxaAvaJIpPTqjiewY4tC7H1UbdjK9XMckv1v54qr8+h8pSYxOarSY62SoREYkE5/YLpS7v93FvX7xjysqLa1oUVZRbg399fGp8DVdWotn3c0es70G3IS4ryEi7k5NTxnUdGMhLPnutmNPba1ioRfuP0aO7QYiImlJS4gtVvfxMc06duny9QmbiOHSCX6/2H5KmlJT4AkX3WU46RETNlbczbqYU5GSV8PxGTQlp29LSkBV/9HByqaqZR5AFFUmch7q0No9Kn6SxhBFlR0ZdiMwrbdZyHTbwJS9tLrpKAADkAEsqPUtz9vFzp0vMwse567QOMKWX/kqq4vfy9Wv97d6cJ0y9zbX19dfhEhFTdn7bmbgGVc9Ax/bfxk0pgrRS5d6+/q2RQZQQmVZDCvoDw16yUySi2tiUGyJd78DWHSxNN68mF3HM/INNOz6/r0rISJdybXqbth6QHJVW3sLo9O/T//Ef2QN0FbKaosKoiB2r18RkJP/5zbbY6+f+WvfW+q9OVTFET9ANQkTSnKi0bJla+dndEefychOidn7x3dsfnc+Tts4250SlZitY+wTqcomIJDVV9beOHfxua3q9dttf4EzBtS/mHMhyGDB1rMmdbd+tOlPd/q1kj28sYQoTt89f++VFjteEwX6NkZ+9tftsBRG6SgAA5ADpqEdhyoWXb0utnP2c2m4OURd9Zv/5ep67k7chp/WAGGEOuTj7mHGIZCWXYhIqGFLt5dexbCbJi4su5bo7+RhwiIhEGdFRtTyPIXMnmPGIiBpvCNKq9Rx9vVrjgqSksLJFy7yXbXtQZyoiz6XUqfYKHWSpRESS3LjoMpmGy5jxvR74CT9A18Qxdrc3UpURX1qr7P3hprc+WzfCl1tx8e9kEdETdIMQSctjhXmMnnHfOW+u3/DmFzvmjrdRqDh/6fQtKRERUx4bldfi6Oxr1Xq6qo23nZ6ilGPr5GPX9rNWHRl9odbct7+FgYnTxDf7h9qbtm1fe1xjCVMav2n+ltMm4z5fMsDLVl+d39IibmqUEbpKAADkAUm9R5GU5Oc1cw11jXhERExpwo4t0UUMt7e/s2mjqI4hpjw17jpj4+doxSNR4sUTpWr80hpFd2dfw7Z/KNLslNhbZB/gbEqi2noSJ96MLVT0GhbUqzVfiDNjY6rVfF282oI9V0lZkaOtrtW+yUqSevmPS1L7aWPHOioSkTQrJe52i07/4EHW2IYF3UtNWnx8k7p3v+ljbDWIuPraenyS1NbXM6TpHTjAMj/+Ad0gjh3dIExZSmySzHHi6HGuakREGjb2dlyFlkaRqIWImLLk+BuMhb9Tr47bMdamJ1xvNvZzcuzoL1Xi8WoTjx3IERMpWbuGB5u2HtvWWOLV2lgyzN+4PiO9TMGhV1tjCVN2+stf99f6vfW2lx6XGlLP7z5abj6qfx+DjhclNdEty9AePHvK2HV7353mo/pC3k0AgB4LSb1HUVBSViZpVtrVpNK8mPMbPo1UczNp5hh5uTNnfo/KEpEkLSejgaOlp1p89e9fIzWHeFQnZZKVh7Xk8rWYYhkRidNyM2X6Lu6qcb9fjK8SZwhT7ijaBffTb12Pk2Sm38jhuvrbFh27ICyWEfE9+rhoV1aW1BERkTj30LcXaoZMX7XAVYOISFYkTE1vVvPr56ort3cE4D/RcD0loVK9z9hgm9a/iqtqqxoVVA20tVp3q7R2gwTe2w3if7cbpDo6OVFiHtzPqn2Jvb6uroUUdY1NFYmoNir1uljHJ8CuYz1blJASX63uFdi7IzhrDwwd5yKN+nZ7RLSItBx8PdqObW0s4ecXa08Z7q/PocrU2IRmK7+2xhJx7OlfTtXYjx4QqFaZfGLvojeOVw2aueZDHz0iau8qEZdo9p2CrhIAgBcDSb1H4duGjbbXLI3bMOnjd7YUur0/I0CpvllWcmqzUHVEPw9N4upp6/KkMV9+uTZSd8QsX/2i8mJGVnLtynUtNz9jDpFM3CiVMeUXvj2S6zlwgFFJTGSBgourv0XbinhzUXmRTJp+7GSyiU+gMYeIYzLi5XfCyvauPnRg56EvPz6aHzp/27qBdq3LfkxVXFSWRMs5OETrESUDdEGSVGFqiY5b35C2T5fqkrJvN/M9fXvziZ6gG0R0XXirwcLR26F9S0p9dlo6o+Tu7GvEIWq4EZ1e1/n+jNSULEwtU7f39VW7W4Km86vLR3lxs3euOhxZ0TH6mMaS66fjs2Xq/MJrXy/f+8ct3fHfrf55zcC25nF0lQAAyAE2HfQsyq5vLNzVJ6eEZ2Rvr6NCxBi98a17raGvi7UmEZGS6+gNh5zyeWbOtho8Iuo77uu9Ydou1oZtK3sco/Fzf3EoU3GwNVYhIuvZB36d3enqqn3GrPneV8XdzdmoPWEoWYxYu6xPTn5eg+awqfpqnb+3nKs39oef/vnliwBdniQ/LqqU7zPcq61xu1pwNqna1H/EID0udXSDjH5oN4goIy6mXj/E2aWte0NWdiUhplY9ZIy/NY9InBkbVXPP/RkleXFRZUpeQ33ano4YhrhcUvUYtmhB2rw1Z3/cHey7wE6JOhpLxt7bWOLc1ljCVOXcrpSp+Yz9ZEb4P9fM27pKXNFVAgDwAmFlpMfhG7s4etjrtP6u5epY+Ie2xXQiIuLoOjh6tMZ0IuJp23t1xPTWEzRsPFtj+oOoGPoM9r4b06n9Kta27s73xnSA7kuamxKbznULcGrd1tVw49z+c4oD548M0SWix3eDNKWkxhWpegX0blshF2cf33O9OXDE7NFGXCJJWkr8HUX3ACedjqfLTonN4DgFOOuJG0REJErYtimugYhIyWHisHBLWXZmYevXlj6msUTGSJtbSCIW1d+9D0xDQWmphAhdJQAA8oGkDgDwPMnKolJSW6x8AnS5RExJ/Oal52jqax+MMW5r53hMN4g0U5iar2Lv66dGRCQpubDh1wMNIUs+G+KgRETNuVGpWQrW3p61f/0alS0lIlmxMDWtxcTTueH03vj8RpIWFyReSEsRERERI21mlOwdzZWIiKSPaSzhGbh5mSg2pR775WaJlEham37i0OaDmfUMoasEAEBOsDgCAPA81cQKMxuVdW6diTyTWhv/V2rz5Pc2TLbXbf9M6W43yGszlyzw1Y+8UczIxNeuXB8wdaIxh4hRsrTzNL4t/O1UrWpNZlxmpd2gjb/0cdJpXVZpLsgra26Wnv4lY9GSoTY8IpIW3imXNlee+/3WJ6uGO/JJdLuwqCL1+2Vq40J1y878neQ24ZPpNkpEJCmIiSxQcHn5vsaSomMnkxdNmmjMIVJynzF5ZsLWiO0bJp3S11XR8H5txoJ3bTWpo6vEHV0lAAAvlkJLS4u8a4C7dv2289RlwTtrv5V3Id3ctx/OHz2o35Rp0+RdCLDUoIGh0z9ZY+/h8/SnVgmWvfRj6ugPt81QyS7imjlaGd2/51tWmX7rbjeItPrWzepO3SBERCSuzk7PL5Zq2TqbG6nd89GntCLvZq5Sbw9j9fboz5TnxGfzHL3NNLhEROL8gnIdM2OmNCOlWKxt5uikp0YPIS6Nu3rnnsYSIpLU5qbkFjSoWLrammv+p5+6VpYUL3p5UOqt9P/ySQAAujasqQMAPD/18clxNdohgXY6ZnwdswcewtF1cLy7h4Snbe+lff8hKto2nto2DzqZp2fppXfPCFff2k+/06kWZhZERIbOQYaPqVXF0GfwP45R0rTydLN6zJkAAPBiYJ86AMBzUxt9NqlM2cbdg//4YwEAAB4DSR0A4HlgKjJO/3LmhqLryOHaOQdP/51Qw8i7JAAA6OKw+4VdysrKbly7tG3Vx/IupJtLFFwe2sdf3lVA98LV6z1kVu8h8i4DAAC6ESR1dqmuqmoSNyiKquRdSDcnaWxUU8P3oQMAAACrIamzS297+2HDh2/a/L28C+nmvN09/AOwpg4AAACshn3qAAAAAABshDV1AID7VVdV/blrx41rl+RdSHdWV10tlUjkXQUAAKshqQMA3E9JSSnzRqystkLehXRnN27cUNXQlHcVAACshqQOAHA/VTW1L79a5+PrK+9CurMjhw8fP3pU3lUAALAa9qkDAAAAALARkjoAAAAAABshqQMAAAAAsBGSOgAAAAAAGyGpAwAAAACwEZI6AAAAAAAbIal3PVJRxZ3bmcWitgf1jf84ghHX1TfdNyQqz0mOvZFbT0QkLk5Lul3JtF2uKic5vfgBF6kryisRP+faAQAAAOBJIal3MfWpf254PbT/5B8SpDU3938yIdDDd/CSv6s65utu7lv5zvzlX3+7duM3yycHjfsmvomI6lP/+uatUWPePZhNlXERi2a8/PKYYXN+TG5qvH3s8zkTxo16adzKs6KOazRm/bn+4+Xf7Dq0ed6Q0WsuVMrhZQIAAAAAknoXo27vZaMu1QkONjzz4ylm7JcfDVEqLixv+0Luytgf3/v0ou289euWffS6QcLeeGV3XydlIlK397BUa9YN8NH6M0Jg9OaPy0cZtrS0VJ7fdqBm2LqtbwXwOBxO2z+Fqqit894+oDFl8cJ5s0d6KqXEp5VJ5fZqAQAAAHowJPWuploYGc3zNCq8xh39zhQPcVGRxMbRQYuImPwjKxdGqM5YOtVZjai5oqKSDAKDPVWIiKhCKIzjuumXxaqOnTvMojA1tdrMoj620G/udC9eSko618HRQYmIqOLcho+3NIxePMtdXZR2IOJ4Xf+xQ2158ny9AAAAAD0VknoXUxt1RVCtVM93njLaUUWac+1qiklQsAufqOrStm/OGU2fO9yMS0TS/OiYDHX/YB91IiKqjhbE1qs1qTmMDbdVkuYKIlMZaZPF0GlBelQfJ4iqdw8INuQSSdMO/HSgqs+YEPH57Svmvn9cZ/4P6yYjqAMAAADIBZJ611Ifc+VapcWg2bNCDbjE3Ll85YZWYLCXCjGlZw+cquozcbyzEhGR+MahI3GKvoH+WkREJEoQRFUZ9Z0ypZ8+l5gigSBRwWPy/AnOfCJxokBY4RQcZM4jYgquXIpvNuFXxWdIbMatP3Jg/UwfXa5cXy8Aqz2+vZvQ4Q0AAM8OSb1LEcdfuVrhMnZSfz0iYoquXInnBwb5aRA1JsVfF/d2c9HjEpE4aeemPWlcr6AgAy4RUWOiQFhqO3L8QEMiogqhIEEhaORIJyUiakoVCApsgoJ7KRORtLSsXMa36z995qTRoW4mfPm9ToAu4HHt3YQObwAA+JeQ1LuSxhtXBMXOoYOdlIiIKb12JYbjF+SUJ0yqaBY3ipmasrJ6aXXi3nW7MvmaSi6BHmUnT90UkyRNGHXHJnSwhwoRUVVUZEyz74ABFlwikmYJhLcN/dw5l86miIhnZmXBr78uuFrMEFFT7rmft/6ViXZSgAd7ZHs3ocMbAAD+PST1LqQp5eq1HOvAIHtlIiJpfk6uWFYYc01k6ayn7jMwzDjnlzkDwuZEiMLneFKppODCoQyrvq4q0hxBZIZxcLArn4ioPlYorHcNCTbhEhE1V1RWc5tSLt0yC3RWI67ZiDfmBTceeHfMuKmzXl+0T9zvlXA77FIHeIiHtncTOrwBAOC5UJR3AfDklL0XnUpf1P6I7/92xLlXtGzM1ImITEatOeQ0o1jJysFKm0cis4OuMms3S3UiIvt5B1LmtZ+lPvhzYXrHFVX6LDkWu0hFTaXtsVbA27+dGZmaWavn4Np6XQB4iNb2btu29u6Ma1dTTILed2ndNdbW4b3nng7vOfd0eNu3dXjfEkSmMlKTtg7vs4KoeveZnTu8V4SIz29fsetgssn8H5agwxsAoGdBUu8ympubKyoq7hlSVFUUlZR0bGjVNDagpsqSEiLiGRhS56lHqq2v7fxQ2cjcoNPJilyunr7+vyweoNtpa+/+vLW9O+/ylRtagbO9VIiovcP743s7vFc+sMO7QCBIVPB4u3OH95jOHd4jq+IzVG3GrT+yAq0jAAA9D5J6l5GVlTVq2PAX/7xm5ubnLl548c8LwGoPau+e4KdBRO0d3q/c2+E98REd3h907vDu37nD27H/9JmjNOT0GgEAQN6Q1LsMe3v7tNsZ8q4CAIja27uH3dPevdQpT5jU4uem19LR4W2Sf+jb3Xc7vGsHD7NP/2eH9zv3dHi/w7l0NqXPIIeODu/hLxlzm3LP7fxLOvA1tI4AAPQo6CgFAHhaj2jv5hKpoMMbAACeC6ypAwA8rUe1dxNx0eENAADPBZI6AMC/pW5mc2+UVtbv7dHeiK1m7ur2ZJfh3o3prXjalu4+z6E+AADompDUAQCezq1bt0aEv/Tin9fU1PTi1Ssv/nkBAEBekNQBAJ6OnZ1dZJTwxT8vh8t98U8KAAByhKQOAPB0uFyuvoGBvKsAAIDuD/d+AQAAAABgIyT17kxaX5KVFJ2U1/hUUwAAAADABkjq3RZTmnBy08LJL39yvPAppgAAAACAJbBPvdviGnqF2GsyJrYhbvwnnwIAAAAAlsCaejdWEyuM4weGeKs91RQAAAAAsAKSepfFiOvqmx481VR9JyuvsiZBGC3z7+On8bgpSXVBRtKt4iaqz01OK26/JlNXlFcivucZRcXZeZVNROL6eulDRgAAAADgOcHul66o7ua+jVsvigzMVdXVWqL33Qzc/Pt73spERFSTtOfrnyMZGwd+xuXzsTU+iwK02s964JQ099qh375ds7NqytZPlX+cvymtz4aLG72E3/8kVLA0KD2zL813VcSSgbpE9bFb312f5BjqIUu/dIU3cfcXo7j/GNF6aMUAIK0vyc/OFWm5u1nev+vsEVMAANCTIal3OZWxPy7+/MaAz9dPd+bf2flaWLzy1PlOykRE0jvnNizakDlsw6YZTir1JzL2X1F7NUif+8gprlVgsOVWqamHsuBoha2bo7azZM+8t2MDv9z0hjv3atmRw/FpZdKBury6Czu3lwX8vGWuOyVJai7a8Knu9P0jAPAwTGnCyZ83rIkoGbPzuJvlk04BAEAPh90vXQuTf2TlwgjVGUunOqsRNVdUVJJBYLCnChE1pvy25KPDBnNWTnNSIWq6fTuz2T0kyIj76CmicmFUgppBebnRq5+u3b17YvFPWxtGL57lri5KOxBxvK7/2KG2PCJSUOS1pPx1VFBByr37vdy3l/IDRgDgYdrbuIMe3uH9gCkAAOjhkNS7lKpL2745ZzR97nAzLhFJ86NjMtT9g33UiZj845u3CI3GzQg35RKRKOHU37cdg0MseY+cIqLqGGGsqFFkFzbOlS9NO/DTgao+Y0LE57evmPv+cZ35P6ybbMsjIlIfMGOOX+GvS9eeKOC5+XqqPGgEAB4OHd4AAPDUkNS7EKb07IFTVX0mjndWIiIS3zh0JE7RN9Bfi0iad/roxVq3YaM8VYiIKfx75+Fsu5AgW94jp4hIFCeIqlR0GD62jzYxBVcuxTeb8KviMyQ249YfObB+po8ut+3JVdxnrVw8QHTw8zV/5DMPGQHomR7R3k3PqcObnqzJ+2GDAADQNWGfehfSmBR/Xdz7FRc9LhGJk3Zu2pPG9ZoYZMAlEqelpEq0Qu0seUTMndM/RlyqsZoc5KRMRE0PnyISJ0YJS7TC3hvnpEzUWFpWLuM79p8+c9Q9aaLx5tUEg6AgI/spS987P/qzP84XhvvkJt47MmamBfcBJQN0c49o76bn0+G9ZZxOY9afT9LkrfWQQQAA6LKQ1LuQFnGjmKkpK6uXmuQf+nZ3Jl9TySXQo+zkqdrB/TkcbouopKi4Oiv7l59jtZ1MjHmBtunHjzP9Qh8+NdI1WxCVqx7y9kBjLhHxzKws+PXXBVeLh79kzG3KPbfzL+nA18It7wj2HLd0CRqqwzPqZWuoVqKhWHT/iApiOvRAD2/vpufU4e1rr1YVtfWDFVFP0ORNRA8cBACArgu7X7oQFZ+BYcY5v8wZEDYnQhQ+x5NKJQUXDmVY9XVVUfMLD7djLn8+cthHZ0ymvmpSnV96bdvXN8z6ems9YkqaIxCkq4X076NPRERcsxFvzAtuPPDumHFTZ72+aJ+43yvhdjxqupURf/bnL7efOLp9zeYEp0VvDdP4x4i+nN8agBfuEe3d9Jw6vP/a+prplQ0fb3myJu+HDQIAQNeFNfUuhGsyas0hpxnFSlYOVto8EpkddJVZu1mqExHphn36+8mXCxWtHG10eFTzv9+dePaej52yn3cgbV6nZ9AKePu3MyNTM2v1HFzN1NsGFT3e2n/BQrf2Vlqh3YbJTiZq1Kh9/whAT9PW3r3nnvbuOT6tPzZtbdwTd3du4x7ZucP7QWDkCS8AACAASURBVFPU3uGtbxc2zpVPRG1N3itCxOe3r9h1MNlk/g9LOjd5T1u3dK3Xvi9H+Hq2FvXAQQAA6Lqwpt61KOv39nC10uYREamZu7bFdCIi4un19nSz0eEREWnZeXs+2dQ/8LQt3X3uxnQi4ptZW6hx1UycfHzaQvk/RwB6lke0d9Nz6vAmetom74cNAgBAl4WkDgDwtFrbu93ube8OCjJojdGtbdy297RxB3Xu8H7gVEeH9+RxbY+lpWXlMr5d/+kzJ40OdTPp2HXeePOqoIQhJfspS98b0HD6j/OFzEMGAQCga0NSBwB4Wnfbu6sT967bdbe9+6aYiBTutnGf/W5LrLaTibFvoG368ePxNY+YIkm6ICpXPWRwa4c3dW7yZoioKffcz1v/ypSS9I5gz/HrtUTU2tKtqaHCffAgAAB0cUjqAABP6xHt3UT0XDq86SmavPXpwYMAANDFKbS0tMi7Brhr1287o6OiNm3+Xt6FdHPe7h6Hj/5hbWMj70KApQYNDP3yq3U+vr4PP6SpPCOto737zs2sjvZuIiKSVmQkd7RxZ8Znd7RxP3LqQaTVefc1eTcW5JRpt7Z0k6ljW6/IAwfZ7cjhw8ePHt3x66/yLgQAgL1w7xcAgGegrN/bo33ZWs3c1e3eWZ5eb0+9tv/WsvP2fLKpB+FpW7r73DPCN7O2ICI1Jx+TxwwCAEAXh90vAAAAAABshKQOAAAAAMBGSOoAAAAAAGyEpA4AAAAAwEZI6gAAAAAAbIR7v3Q9jXcSE3JqZW2PFLh6vfycjLgkLboZk1UtIyIFrq6dv7ORJD8xIbeu7TgFBZ6akVUva2P1u9+GUp0Zl1zU2HGXTo6WlbebOZ8AAAAAgA2wpt4FcRVbik6tnfXKzDlrTuTL1NX5XCIimaKyQubeJZ9ExBRLFZWIiHjKLem/L5wxY9bSiAuRl45snBs2cPyHe2+KOq6jzJel7lw4Y8aMBVuuVSlqaqrx5PWSAAAAAOB+WFPvevgmzn6u5qocjtbA2e9P7GvYtkiubNDb09rIc9L4+S878YiIVIwdPG30eBxFm6FzFi8O4DeN7/X6+DWrv+jlFTHXgUdEGuYu3rb6XA7XavSb80cGdIFvSgEAAADoQbCm3hUxJbGxaVJV375BetxOw02pCTW9Q2zvLow3psXFF5NpYKArn4iULVydTDji7KxcSccBqXHXS8k4uI8XYjoAAAAAyyCpd0WVUZFxDcqeAYFGnYO6NDumwMDXXrnTgECYKdP1C2rN4UzprYwimYazi0P7XvSmTEHUbZmOX5D3I77LHACejaSm8PaNuLQSRt6FAABAV4Wk3gVVRwti63gugYHmnYM6Uxh1W8PX/W5HKHNHKExu1vAL9NcmImn+iW9/usbv//4HE6zaTpMWRAmSm9V8Av00X2j9AD2ANO/qbx9PGTp+Y6RY3qUAAECXhX3qXY8oThBTybWbEGjbuQGUKYtO5XuPuruLhSmNirou4WjVJv668XZ1dlJSme6oryLmjnbidxwgEN6Q8H0CA/S5BADPFc/Sp7c+w/MICTHDzxcAADwjrKl3OeJEgbCYzAMCXe65oWJtTCJ5+OncHaiJFsQ1KPm/+snrnnUX9vx5x2Xu6sWjnbXuHlAdLYxr4LkEBpkgSAA8d403o4Sljn362OCWSgAA8KyQ1Luapqy4uDyZnp+fl0rn4bq4+CZnf73OA4KYaq5LQJCNeZ9xw925d/4+er70njNiBTG1ivYBQdYIEgDPTFpfI2KIpGKx9J5xya1rkdm2wSH2Sg87U1ySm1veeN/VRBV3bmcWi9oe1Df+4yymriivBBtqAAB6CCT1rqY5Ny+vmefo4qraebQq8kq9e99Oi+Pi68KoUo6df4CdMik7DB8RoFJ5/sTfuXdb28TxAmG5goV/gKNy5wsxJSnJ+fcmDgB4AKY04dDqyb5eozcc3bXs1eGBHoFTt8TUt89Ks69eTTMLDnFVyD+7ce5g38AxX11tn2QqYiKW/u+z7ScvHvxk2ozvBJVt4/Wpf254PbT/5B8SpDU3938yIdDDd/CSv6vaL9mY9ef6j5d/s+vQ5nlDRq+5UEkAANDtIal3NRwVFRUOcTidd6w0phw+TQPCO33KLkmNir5Dpv4Bznwi4lmGj+irKYo8ejK9PYQ3JgljCmWGAYEe9yzN10TtPXVbCYvsAI/FNXQPsOLVMnwRY//Wtr1fT1IX7th7uS2NMwXXribphwRq/b1lb6HfvEnOVemZJVIiIib/1OqZy5J83vzf/NdmLng/TPTDxt9vtt44Vd3ey0ZdqhMcbHjmx1PM2C8/GqJUXFjeOlcVtXXe2wc0pixeOG/2SE+llPi0MvxFDQDQ/SGpdzUqfqPGefCEO787cbs1E4huHV//Y+Gg14fo3z2oMeXC5YxmNXcvj9YOU67poOGDDKXXDx+MrG49IPnSlUxG3cvX5+79GaXlcTs++jLHLtjoxb0agC6sOjrmuoLrS7MmBRnztGysTTl1FVUNRETEFF+LTND00s08Kx06f4ZvQ2E+x83LU52IufPH2uXHDF95b5QNj4g4aqoqkqQbKW1fHFwtjIzmeRoVXuOOfmeKh7ioSGLj6KBFRBXnNny8pWH04lnu6qK0AxHH6/qPHWqLv6gBALo/3Puly1H3mbduHfPFxk9fHvqjg42usqpF8KT3FoVZtP3almae+23fkaP7bkqJl3Z+10HjsWODzLmk22/kUMsjO/csfYdmDbMqjzz0e4pUxondueSDq6oKLc2N9dUlGddv5CsN37DaQL6vD6CLqIsWRMtC3h3jrERE0pKSUpl+gLEGERFVRl6JaeQ6yXp9+rKzSlO8UFjgMDjIgkeSpEO7TjP9NoRbtn4oJsnJy2tW9VFr/emtjboiqFay5TtPGe2oIs24djXFJOh9Fz5J0w78dKCqz4oQ8fntK3YdTDaZ/8OSyQjqAAA9AZJ6F8S3G7rop6Hv1hQV1vGNzXXu2WdOPLuw2UvCZi+5/yT1/ivPZa5sfzRl5v++ewGVAnRf4vhIoch3Tj8TLhFJ0gXRuQZ9F/uoEBFVRV2NqjcJm/5KqCGXpLcEwgyrgGX2SsQUxMWlcDwn+Gu3XkKSFhWTz/eY7aZCRFQfc+VapcWgz2eFGnCJybt85YZW4GwvFWJyrlyKbzYZWRWfoWozbv2RFSb8hxYFAADdC5J6l8XTMrHSevxhAPBfaEwUCEtdxwUbcYmo7tqBIznesz4bqE1EVBd9TVDjOH5ymAmXiCmMFCQbBr7txieSNjY2KRjZmGu3rqjXRR07lW7+8oLhllwiEsdfuVrhMnZSfz0iYoquXInnB07w0yBqLC0rl/Ed+0+fOUpDfq8XAADkAfvUAQCemiRDKMx1DAq24BFTfvm7zTHuH6981VWZiEgUdy2y0nnQEDc+ETFlQmGCemCgdcq1pDqesX1vI2lTE0NEVBcbsflPnTmfvx+qT0TUeOOKoNg5dLCTEhExpdeuxHD8gpzyhEkVHDMrC379dcHVYoaImnLP/bz1r0y0kwIA9AhYUwcAeFrS/EhBKlfmmnj2D0HMmRvKr2/dEG7duhGtMfFqZLHDSwOdlImIpHk5ueJG/oWzde/M1CBe31ff6/fR71/vrjEvirvZOGHbz+PcW7+urCnl6rUc675B9q1n5efkimWKMddE/afrKXFHvDHvxPyv3x2TutNRX895zDtvj7DDLnUAgB4BSR0A4CkxJZGCRKPx37/b16BA7L3uDRO1u3P8oKVn0+8+8pq1fmeYpoevtToREc9u7Lpd/bNvl/BGjX1Vo9O9VpW9F51KX9Rxlv/bEede0bIxa703k1bA27+dGZmaWavn4Gp293ZNAADQ7SGpAwA8Habo0qVoVb8JPgZWWo+7VxLPyD3k3hufKuvauOg+7inUzWzuieQ8bUt3n6evFAAAujbsUwcAeHJMZcr5vZv3XBWpy0oEMdliedcDAADdGdbUAQCeHFfdzGPIe9sHv0dEHCVNlceeAAAA8MyQ1AEAnoKSlp4B7o8KAAAvBHa/AAAAAACwEZI6AAAAAAAbYfcL6yQkJJw9c0beVXRztbW18i4BAAAA4DGQ1NnF0NBQT09v2w8/yruQbs7VzU2Zz5d3FQAAAACPgqTOLkPChw4JHyrvKp6PzKzscaNHX09KlHchAAAAAF0S9qkDAAAAALARkjoAAAAAABth9wsAwDNqvJOYkFMra3ukwNXr5edkxCVp0c2YrGoZESlwde38nY0k+YkJuXVtxyko8NSMrHpZG6tzOy5UnRmXXNTY0v6Qo2Xl7WaOTgoAgB4Pa+oAAM+Kq9hSdGrtrFdmzllzIl+mrs7nEhHJFJUVMvcu+SQipliqqERExFNuSf994YwZs5ZGXIi8dGTj3LCB4z/ce1PUcR1lvix158IZM2Ys2HKtSlFTU40nr5cEAAAsgjV1AIBnxDdx9nM1V+VwtAbOfn9iX8O2RXJlg96e1kaek8bPf9mJR0SkYuzgaaPH4yjaDJ2zeHEAv2l8r9fHr1n9RS+viLkOPCLSMHfxttXncrhWo9+cPzJATY6vCQAAWARr6gAAz4wpiY1Nk6r69g3S43YabkpNqOkdYnt3YbwxLS6+mEwDA135RKRs4epkwhFnZ+VKOg5IjbteSsbBfbwQ0wEAoB2SOgDAM6uMioxrUPYMCDTqHNSl2TEFBr72yp0GBMJMma5fUGsOZ0pvZRTJNJxdHNr3ojdlCqJuy3T8grzVX2D1AADAckjqAADPqjpaEFvHcwkMNO8c1JnCqNsavu53O0KZO0JhcrOGX6C/NhFJ8098+9M1fv/3P5hg1XaatCBKkNys5hPop/lC6wcAAHbDPnUAgGckihPEVHLtJgTadm4AZcqiU/neo+7uYmFKo6KuSzhatYm/brxdnZ2UVKY76quIuaOd+B0HCIQ3JHyfwAB9LgEAALTDmjoAwLMRJwqExWQeEOhyzw0Va2MSycNP5+5ATbQgrkHJ/9VPXvesu7Dnzzsuc1cvHu2sdfeA6mhhXAPPJTDIBEEdAAA6QVIHAHgmTVlxcXkyPT8/L5XOw3Vx8U3O/nqdBwQx1VyXgCAb8z7jhrtz7/x99HzpPWfECmJqFe0Dgqxxb0YAAOgMSR0A4Jk05+blNfMcXVxVO49WRV6pd+/baXFcfF0YVcqx8w+wUyZlh+EjAlQqz5/4O5e5e0C8QFiuYOEf4Kjc+UJMSUpyvvS/fhEAAMBmSOoAAM+Eo6KiwiEOp/OOlcaUw6dpQLjN3cVxSWpU9B0y9Q9w5hMRzzJ8RF9NUeTRk+ntIbwxSRhTKDMMCPS4Z2m+JmrvqdtKWGQHAOjRkNQBAJ6Jit+ocR484c7vTtyuJyIi0a3j638sHPT6EP27BzWmXLic0azm7uXR2mHKNR00fJCh9Prhg5HVrQckX7qSyah7+frcvT+jtDxux0df5tgFG724VwMAACyEe78AADwbdZ9569YxX2z89OWhPzrY6CqrWgRPem9RmEXbQrg089xv+44c3XdTSry087sOGo8dG2TOJd1+I4daHtm5Z+k7NGuYVXnkod9TpDJO7M4lH1xVVWhpbqyvLsm4fiNfafiG1QbyfX0AACBvCi0tLfKuAbqnzKzscaNHX09KlHchAE9t0MDQL79a5+Pr+0RHS2uKCuv4xuY6yo8/FjocOXz4+NGjO379Vd6FAACwF9bUAQD+HZ6WiZXW4w8DAAB4StinDgAAAADARkjqAAAAAABshKQOAAAAAMBGSOoAAAAAAGyEpA4AAAAAwEZI6gAAAAAAbISkDgAAAADARkjqAAAAAABshKQOAAAAAMBGSOoAAAAAAGyEpA4AAAAAwEaK8i4AAIB1GkSiqZMmm1tYyLuQ7iw3JyekTx95VwEAwGpI6gAA9/s5IqKxsVHeVTy1DRu/trOzGzN6lLwLeVJaWlryLgEAgNWQ1AEA7ufs4izvEp6Ftq6uqbm5t4+3vAsBAIDnA/vUAQAAAADYCEkdAAAAAICNkNQBAAAAANgISR0AAAAAgI2Q1AEAAAAA2AhJHQAAAACAjZDUAQAAAADYCEkdAAAAAICNkNQBAAAAANgISR0AAAAAgI2Q1AEAAAAA2AhJHQAAAACAjZDUAQAAAADYCEkdAAAAAICNkNQBAAAAANgISR0AAAAAgI2Q1AEAAAAA2AhJHQAAAACAjRTlXQAAAAB0eUcOH754/gIpyLuObq+F5r+7oHfv3vKuA14QJHUAAAD4t24m3YxJuDF0ykx5F9LN7Vz/2eSpU5HUew4kdQAAAHgOAoeMGDJphryr6OYuHNkn7xLghcI+dQAAAAAANkJSBwAAAABgIyR1AAAAAAA2QlIHAAAAAGAjJHUAAAAAADZCUgcAAAAAYCMkdQAAAAAANkJSBwAAAABgIyR1AAAA6PYkxWe+PnqlSt5lADwdJHUAAADo3iQl59ZsWhvHNVeXdyUAT0dR3gUAAAAA3Edae+ty1NXEsnpF45Dx/XxMFInqsy9HX76lHjLNv5cKERExZddPpxVp2oaGmCkTEVFDVvzRw8mlqmYeQRZUJHEe6mLIbUo9+PuWbZHC7CaDAfVx5zK1w+10iEhUGn8mSphSKdG2DBnVx8+c1/q0tTejTl7JKbhTqd5v0pyhukx+4qGdkWky+3Fvh7rrEIkKL+87fymL5/fK6HBH/t1qGVF2ZNSFyLzSZi3XYQNf8lK7c/WaILm8pLhWZ9DECcYpOyOS1EZOmBag+YLfRej6sKYOAAAAbCLJidn0+hffJemGzhkX1nLho2Xnc6V1Nw8d+37t7u82nrqc29x6mDRTuHnhz7tjxApERMQUXPtizoEshwFTx5rc2fbdqjPVKlwialYycervp8/lGvn1sdTRVVMjasqJ/ubNzYeqrV56c+xgfsyK13acLpS1XpNvZW9dFX/gcL7MUF0Ud3L50tMxCYmnft23P1LMlN7YuuiXP4RpFw6c/GFfuri9WqYwcfv8tV9e5HhNGOzXGPnZW7vPVpCWvbNlRcye/QUypZRN7/74077Lf5zPb3rRbyR0A0jqAAAAwBpMQdRXb0XEu0xe/o6PtWLmmT/z6qvqS+OTy11HjPJR4+qZ2Zq17geQlUalpMkMfQIslIiIqDoy+kKtuW9/CwMTp4lv9g+1N1UmIlKzC3FUrqloMXcNnxgc5m9M6ec+fTUivc/0JbPcbXQ1Xcb39aoS/LY/U0JEREoaVFZYSeYOHsrC7afVZ//4wcKRljyulp563v7vkqw/WvzlR0H2XAVtXQ1ua7Wl8ZvmbzltMu7zJQO8bPXV+S0t4qZGGU9bj1uSX6ngYE0nBfxpIwf6eI8ZYqMsj/cTujjsfgEAAACWYEr/XLfzlGK/79921+cSkXnomzM8HAP9HNRInPx1bI2Gn7OHRuuRlVFXbzcZB/q6twVgrhKPV5t47EBOv9nWKtau4WTamuCpJi0mrkl3gLObCpEk78CafZfV+m+e1kut7TQuT5HJTsmrpd76RFSVFhsr0e2rm3dGMnj+oF4qtX9ez2nWd1VJjOFOGDfUild++PYtmW64h6kSETFlp7/8dX+t3xdve+lxqSH1/O6j5eajpvQxIKpMi4+XmriVZWiHfzzFWX3Ki34jobvAmjr8VxoaGqRSaV1trbwLAQCALkIcd2bnabHnuP6urTmaq+k+OmyggxoRSW6lxOcqeQQ6tu71lmZHnxE26vi7eLQlbtIeGDrORRr17faIaBFpOfh6tCV4UXxyQhXfM8BBnUgkOLdfKHUZ0ce9vbWUKSsvrmlRVFFWbj84roqrWS3SGT3AVYOoLj02RqTAqRDbDhnnrkJUFy9IF+k5+njyiUgce/qXUzX2owcEqlUmn9i76I3jVYNmrvnQR4+oPj41voYrLtHsO8URXazwLyCpw3/ixPHjs2fN4quoDAoNO/bHUXmXAwAAXYDk5tnrOQqWfoEGvPunmvOEqbe5tr7+OlwiYsrObzsT16Dq2R7ciYg0nV9dPsqLm71z1eHIio7RphRBWqlyb19/daKmm1eTizhm/sGmHdevSshIl3JterdulWlKjkorJ1Xr8AGDrRWJSHw9Jb5UQd83bFK4IZeI6m/FRIvUfJ09NYmo6frp+GyZOr/w2tfL9/5xS3f8d6t/XjPQQb39Oi2MTv8+/Y2QtODfwO4XeM5ysrOXfbosMzPz/eWrQ0IHCy6eX7dm5b59+1Z/ttrWzk7e1QEAAGsxdbnZ5YyKlYnZP9IJUx4jzCGX0T5mHCJZyaWYhAqGVHv5td9NhWGIyyVVj2GLFqTNW3P2x93BvgvslIhIkhcXXcp1H+BjwCGSlBRWtmj597JtD+pMReS5lDrVXqGDLNsOjiqjXkMnDTPmEhFJ0oVphQqmr0zxN+USEYkTk+NLFD0CnbSJiKnKuV0pU/MZ+8mM8PuWzSW5cdFlMg3XMePb7lID8Kzwlx48N02NTV9v2DBy+AgrB+eI46dDQgcTUdCA0Ihjf9u5eo4eOWr9uq8aGxvlXSYAALBUs1RKJJV0+k0hLUjKKmGIKU+Nu87Y+Dla8UiUePFEqRq/tEbR3dnXkENEJErYtimugYhIyWHisHBLWXZmYWuHqDQ7JfYW2Qc4m5Kotp6rpKzI0VbXav9DQJJ6+Y9LUvtpY8c6KrYdnKHgMjzYrTVfSwpiowoVnP3CPFp3vEtuRabe4dr6Bmg11IgYGSNtbiGJWFQv6yi3oaC0VELSrJS42y06/YMHWWNBFP4lJHV4Pi5dvBQ+ZMhVQfTmPYfmfPAhX+XuMoIyn//6ewt/2HckOi5+6KDBF86fl2OdAADAVlwdZw9TXlPa34ez6omIEaUf3rf7ukydS5K0nIwGjpaeavHVv3+N1BziUZ2USVYe1pLL12KKZdLigsQLaSkiIiJipM2Mkr2jeWu4FqflZsr0XdxV436/GF+l6NHHRbuysqSudS730LcXaoZMX7XAVYOISFYsSElrMQ/oY9a65C7NT4lNJdtgN7vWa0mL4mOKyNrSIOviX9dFMp6Bm5eJYlPqsV9ulkiJpLXpJw5tPphZz8iKhKnpzWp+/Vx1X/Q7CN0P/tiDf6uoqGjVipWxMbFvLP5oyKixDzvM0tZu/Y5dZ08c+9+H//Py8lq+coWpqemLrBMAAFhOyfWVybMTf9q+Ye20M5YmKhpO419+e7qlGpFET1uXJ4358su1r81cssBXP/JGMSMTX7tyfcDUicYc0d+FRRWp3y9TGxeqW3bm7yS3CZ9Mt1EiIpKJG6UypvzCt0csls2YbKFERi+/E7Nt7+pDDX6UFVegEDp/20R7vbYbLlbFRmU1Ww/wtW8N6rLyqORkxmBMsFVba2pLs6yFq1SXGVXRZ+EkQx6R+4zJMxO2RmzfMOmUvq6KhvdrMxa8a6vJVByJypJouQeHaMnnXYRuRaGlpUXeNUBX1dzcHLF9x/fffRc2fNTr7y1S13yiL1+rr6vbsWnjmWNH3nr77dden83j/aNvCACeydvvvOvm5vbm3NflXQj0RKtXrqoi/oS33v/XV2LEJem5d6RaNk4mukodo7LK9Fv5PDNnWw0eEUmrb92s1naxNlQiIhLnF5TrmBkzpRkpxWJtM0cnPbW7V6vLTipTcbA1vvtJr7Q6Jz+vQdPOQV+N+5S1NTaIOKpqSp1GJLW5KbkFDSqWrrbmmi9go8LHk4evXb0yKDjov38qYAWsqcMziouNXfrJUo4i76uff3N0c3/yE9U1NBZ8sjx87LhvVn56+PDh1Z+t9g8I+O/qBACALoWrYuTsaHT/KEfXwfHuZhKetr2XdscjFQszCyIiQ+cgw39cTcPGU+PeIZ62ta32/cc9Gb6q2n0jSppWnm5Wz3Y1gMfDPnV4apWVlYsXLpr96msvjZ+8ee/hp4rpHeydXb/fc2jklOlvzJm78IMPKioqHn8OAAAAQE+CpA5PoaWlZc/u3weHhtU1SX85cWbM1OkczrP/E+JwOKMmTf3lxBlxMw0ODdu9a5dMJnv8aQAAAAA9A3a/wJNKSU5Z+skn1TW1yzZ+5xXw3HbI6ejpfbT2qxux0d+uWnbwwMHVn3/m6ur6vC4OAAAA0HVhTR0er76+ftXKlZMnTvTrH/bT4RPPMaZ38PD133boeFDY0GmTpqxYtryutva5PwUAAABA14KkDo9x4vjxwaFht7Pzfj5yctrceTwlpcef80wUebzJs+f+/MepnIKiQaFhx/44+h89EQAAAECXgN0v8FA52dnLPl2WlZW14NOVrV84+gIYmZqu2vSD4OL5r9as2rdv3+rPVtva2b2YpwYAAABgFSR1eICmxqYtm7/fsX3HmCmvLP3mh85fOPpiBA0I9Q4M3rV1y+iRo2bOmjV/wTt8Pv8F1wAAAE+uvr4+OS3B4KiZvAvp5kry8+RdArxQSOpwv0sXL61YtkzPyGTL3sNWdr3kVYYynz/73Q8Gjxy96bPlQwcNXrFq5cDQUHkVAwAAj5aVeTsz6bq0plLehXRnooYGqaQJS1c9CpI63FVUVLRqxcrYmNg3Fn80ZNRYeZdDRGRpa7d+x66zJ47978P/eXp6rli5wtQMCzYAAKzj7uEZFBz8waJF8i6kO6usrPT39vHy9pJ3IfDioKMUiIiam5t/2rotfPAQFW29X0+eYUlM7zBoxKhfTpzRNDR5aWj4j1t+kEql8q4IAAAA4D+HpA4UFxs7cviIP44dX79953vLVqlrasq7ogdQ19BY8MnyDRG7Tpz6c8Sw4dFRUfKuCAAAAOC/haTeo1VWVi5euOj112a/NH7y5r2HHVzd5F3RY9g7u36/59DIKdPfmDN34QcfVFRUyLsiAAAAgP8KknoP1dLSsmf374NDw+qapBHHT4+ZOp3D6Rr/GDgczqhJU385cUbcTINDw3bv2iWTyeRdFAAAAMDzh47SniglOWXpJ5/U1NYt//p7T/9AeZfzLHT09D5a+9WN/T4YMwAAIABJREFU2OhvVy07eODg6s8/c3V1lXdRAAAAAM9T11hGheelvr5+1cqVkydO9Osf9tPhE100pnfw8PXfduh4UNjQaZOmrFi2vK62Vt4VAchNSnLKnbw8oUBQUlIi71oAAOD5QFLvQU4cOz44NOx2dt7PR05OmztPkceTd0XPgSKPN3n23J//OJVTUDQoNOzYH0flXRHAi9bxF7irj7+mjt7QsME7tm9nGEbedQEAwL+F3S89Qk529rJPl2VlZS34dFVI6CB5l/P8GZmartr0g+Di+a/WrNq3b9/qz1bb2tnJuyiAF+HEseOff/ZZb2fXn4+cNDYzJ6Jh4yd+s2rZoQMHV3/+ubePt7wLBJA7Rlyed/t2qWJvXyc9rryLAXg6WFPv5poam77esGHk8BFWji47jv3dLWN6h6ABoTuO/dXLzWv0yFHr133V2Ngo74oA/kM52dkzXpn+xRdfLPh05Webt7XGdCJy9vD6Yf8fg8aMf3XmrI//91F1dbV86wR44aRlKbHJxU1tD7Iub/9o6pjXf0slxHToepDUu7NLFy4OHTz4mjBmy97Dc95fzFdRkXdF/zllPn/2ux/8sP+P6Lj4oYMGXzh/Xt4VATx/d/8Cd3DecezvkNDB9x3A5XLHTZ8Vcfyv8pr6QQNDD+zb39LSIpdSAV48pvjwp+PHT/74YAFDRMSz9bJWb1LxCw7QlndlAE8Pu1+6p6KiolUrVsbGxL6x+CO2feHoC2BpY7t+x66zJ47978P/eXp6rli5wtTMTN5FATwfly5cXL5smb6x6Za9h63sej3iSH1Do083fBsbeXXTZ8v379//2eefOTg6vrA6AeSFqxc8bfHCAJs+hq1r6KI4oVDk/lqgIZbUoQvCmnp309zc/NPWbeGDh6ho6/168kwPjOkdBo0Y9cuJM5qGJi8NDf9xyw9SqVTeFQH8K0VFRfPeeHPRwkWvvLVg4y+7Hx3TO/gG9/k/e3cZF8XWxwH8wLKES0koSAkq3R0mIUqXglh4VRQVMfCKSmOLioFiACYKKCjdBrV0CYK0SDe7yy4b8LxAbzzXQAWWON93O7sz8xs+sPznzIm7L+LkNJats7Q6ffIUDoeb6JwQ9HMomNaP7fgvL3BdDeX5JY1YAADAt1WW1fR8HhxN6m0or2r7b69GCh6DHfrXFiS35CoTIw2h0WkTCKXo3G5xdQ3+mTCLAjT7wEp9RsnPyzMyMHwRFe0b+PCAuzczKyu1E1EZMwvL/hMeF4MfxcYnGBkY5ubkUDsRBP2K37wDp6dn2OKw7/bz6PKqD6t1dBPi4ycoJwT9HEJdvO8xD79Hz/0dVpueftUDsO8T/PaYmDk9qwc9BcHOWywszAx2BpQPEWqiTu1cZ2my1tIr5R/3mph3oV6O+zwuXzlzyc/DRsPSrxBT+yrwqKGCht29qs9r4g1VZaM/LtRQX8JAnWuEoN8DK/UZoqen58hh553bdxis2+D/NEJMWobaiaYQUUnpayHPjDds3m2/6/DBg91dXdROBEE/YbzuwBcICJ4JCHJwcfPy9N621a6xsXF8c0LQz+nNueWwN5xlw5HDDtuN5ekrCis7ScyicoIoMoeaElt8cPb83QEeJvNGRkZ60m6H9xucv7VHDUn793raPfkBB9xeizj4nnd32cFd9LSQQVZZgmXR8tVSHCPcahpyoyOzSB/R2VXz1NVlGKl3pRD0G2ClPu2NjIw8eRyiu0obM0QKjk4ys9389/cY9AUtLa2JtW1wdBKeQqOno/vo4cPh4WFqh4KgH+jp6flzvO/Al+vp34tO5BVeYmxgeNXvytDQ0I/3gaDx15168diNQdMjdrLMuMrw4GjMCnN9ESToRqMLEDJcnflzzO0NBFrev+/jE8Dmt6jYb1ZAVlRUIcTExegBAIDSFOl1OHjOFldbSRQA5O7uHsCtrinPBEBffn7ZHGUNZRYAAACUtqzsMjZ1TYWZP6MCNEPBkm56qyivsDQzvxsY5Onnf/zcJQ4uLmonmtLmcnK6nLngdfXm/fsPLc0t3r17R+1EEPR1o3fgeto6AxNwB86EQu0+4nLtcfirt+lr9ddkpKeP15EhaIxIleF3wnuXmmnh0wI97Q9Gz91387yNCBL05WbnY1FDKDHzNSL0pMbsrPcU0pCA/kYNToAtyM7ByqppzkMAAHrf3PZLnb/Z3pAPAQAgNeXmVTOraioxAzCQm5VPVtRQZRs9US86uxipqv7lJQRNO7BSn64wGIy3p6fN+vUqK3XvRMTIq6pTO9G0IaeseutZlIaO/kbrDZ7uHpiBAWongqB/qSivsDS3uHM30P3StYm7AxdeIur34Kn19t1Ojk6Oe/e2t7dPxFkg6GsozelvCsm8jL2F1URhS9/IcN+tShwIAHBF2Tm985dt2LCcCwEordnZpTRyNvvWSTICgC/NRndLaGrwIwGgdKSEx/UuXW8lSQ8AAPiS55EFdMrqqmwA4IqycgZkNdS4R+d56c9F55OV4fyM0DQGK/VpKSYqWk9bp6ah6W5k7EZ7BzokHNH+c+iQSJvt9ndfxDU0t+pq60S9eEntRBAEAABYLNbby8tm/XqVFTp3ImIU1DQm9HQ0NDRrLazuxybTMrHo6+gFBQZSKJQJPSMEAQAAIHV0dg0zLlqxeau1qbYM75cu5ITSbHSHiLHVqnkAANCNzi6i0TA2lqAHAAy9z85uFtbQXMwAACCUFRbjl8hIcSIAAPiyh1efVCIUNDS4EYDwLhvdIaahzjf6XxFXiM7GyGjA+RmhaQxW6tNMfV3d5o2bzp496+Tu889VCWcobHtlLjoxIioksWYC1hudv2CB99Wbh7xOX7jgu3GDbV1t7fifA4LG7PMdeP3H0TtwJD395JyXlZ39sNeps7eDwsKfmxgaFRYUTs55oVkMySckwIgtzs5oowAAhhpT795KqCURK9E5n4S19UbHgvbmZOWRlVeuFEAAAEh12eiaeSqytG9SKnBgBE/AU/o7O7GkvtKn5x/VMrLSS6nLdcbGFZWhc5oWqipQ0hJK8QAQytA5neLqirjM9Do4TS80TcFKfdoYIgxd8vU1MTJeKCEdFJWopa07UWciddeXvu8iTtThfwIF29tSEu/rcj2hATFhLSIaK7WDohIWyyiYGpv4nr9AIEzAPQEEfVdDff2WTZvPnj27382LWnfgknIKN8Ne6JpZbdtqd+yoS19f3+RngGYNBJ/RLgdNQriTmaWt3Q7nUPzyTWsWgYbsrGoeTU1pRgAAwOaj0VhpLU1eBAAAkLt7+hBDFW8+8KlLogCT0iodnoZ7O1fq7AzGrdkpDzqIza+eVwstW9xa10jsLkqu5teSZQKUvuqqRmJHYVIdl7wIfPQMTVM0cInpaeF12itPDw8ungVObl5jXO7kVxErb9jsv17O98fDAGdV6k8/2xvlY3S0ecPTq/vkJrqB8WN93VUf9/bmT57eXqu0tSf4bBAEAABDhKEb/teDAoPMNmza7ODIyET9CSq6OtpvnjtdlJN11MXFav06GhoaaieCpgcfL28Uas4hZ+ex7kDq+/i+doBTTJqPeQyfpuBxRCbUX38gQ13VlW30QmJC7EiA+/SubnihjCAzAISWihqSoLTQ5yPimytqKYLSgmM5wbTQ09OjqqhU01BP7SDQ5KGjdgDoB1paWrw9vQoLCnYdOaZnbDbxJ0RwiKnKSDMJSfL8oxWb+Cnh+hvGbRtXzv3aywmELUSX4QRXqohOQj8AQWER36BHKTFRR/88Ki8v7+nluYCPb+JPC81eb1699nB35+JZcONpxATfgf8Ernnz3S5eyc/KuHrSIyws7OSpk2Li4tQOBc0o5e/KR8AIAADQMoDehne9v3YYBBj6VPXuEwAAABrQ8PdkXg3/ntfrr5cSEhKIiXs+C0ETA1bqUxeZTA66G+h//bqukem9mOTJWnAUMU/H5aLOP7cQm5NOeXrV6D5y/NrLCYV/n5vbx60hLzV5DY26RibqK1YFXb20Vn+Nw54923fuQMIBu9B4a21t9fb0ys/L33XE5WcXHJ0cyppL776Iexp4Z52llbWNzYFDB1EoFLVDQTPEPgcHMjXGLsfGx7Oyzfalu6FpB1bqU1Rebq6bqxsCSe8b+PBnljvBd9e8qyxvZlQyVOIfrS8p3QXoTjEtcWYACPXoyNcYKWNtWS5KQ3pKRkVba2sfp+6ODbzFQUH5KOMtJlzNJRUNdbXN9CobNy9lA4BQHh5w5VZKZj1+3qqBvJSSDuyr4L9fVnKsFf/cqk7B1GW9ScmsaSdzyBgYGityIgAYKE+PRzd2dvbRK1puX80Luj+8ji9omatouEaMY2ytGoSKorxmlKKKUH1c2KuijmFeOYP1y0SZAWmg+X3Bu+KSqoHFFruM+JEAUJpzHoRU85lZrV7y++vQMbOw7D/hscbc8oq3e2RkpM9JH1U1td8+KgQBAACZTA4ODLp+7ZqOocn92Em7A/8V9PQMWxz26RqZXDvluVpH19Xdba2BAbVDQTPBq/S31I4AQdMGHFE65XR3dzsfPmy/Y6fhetufXZWQ0lKKfn7F9/jxJ69aPrdXYPLCzt4q7iABAMhtGZF+Jy/4RbVSAGAXUxDqSn8Y2kihL/Z1PH3jafzztA/tvf2VL4IuBZRh535ehpmeV05bdT4Cwa++dNFcDka2f71kRn0+a27AXmefV7RK681U8anuDjcTuwEAgFFQclF/+u2g3B7mufiylyf2+F4NCD5z+NqzD+SxXQ6xHl1SO8zalex/J6WuvvB10BnPnX/GNJKILZXVdWVvHvhHBkcXjw57Izbkht0OPv+gCD/2n9YPiEpKXwt5Zrxh8277XYcPHuzu6hq3Q0OzVX5enpGB4YuoaN/Ahwfcvadymf6XBQKCZwKCHFzcvL187LZsbWxspHYiCIKgWQRW6lPIyMhIyKPHeto6uCFKcHSS6YZNP7sqIWKBmqGDrcpccmNNDREAAIh1z/1jq7oHeikAALqFts5upoILFrAjAD07J117UweN2BKa2FTGTba6ypqW+rISipJcdERaETmVRaP9wlmWLJVl6O8YEVAystbRVxOT/NdLfnoAKB3ZvntOxfPa+Z4wUBLhYWUaGcET8MMAAEDPgmj72DbCr6jO9ub6M7L1jWu+m8WRgI5+jONUSe256FoKJ9/KXceuXnK5fO/oBmHazrS4uA9ASHWlmb2NwRIEuX+gjwQAAExa2y4fU1u0gHtcnxLR0tKaWNsGRyfhKTR6OrqPHj4cHh4ezxNAs0ZPT8+Rw847t+8wWLfhZ+/Ap4Llevr3ohMXiIgaGxhe9bsyNDRE7UQQBEGzAqzUp4ryd+WWZuaBQcGefv7Hzl389VUJGRfw8ND0t7dhKYDSmpyU3YcY6RvoH21hHyb00cuv1mIGAID+krxC0gKOtkp2s922W66EetkpMYOB0vxiEq+qguRfXUj6SnPy8Zwq8rJMX3tJaYs/6xeCWe60T4MTAQYrYu69bBMwXbuSGwAAwEBJdg5uvtK82qg+XSdLBc6h2upPI3wiS3jHVE5TOotyS4clrTdbS7MAAACLqNhiBM0IHocdGb1Ofj7EyOAg7vPkRXS4IX6dNQsnoEv5XE5OlzMXvK7evH//oaW5xbt/j1WCoO8bGRl58jhEd5U2ZogUHJ1kZrv5Z+/ApwgmFGr3EZdrj8NfvU1fq78mIz2d2okgCIJmvmn5D2OGwWAwXh4eG6ytVVfp3YmIkVdV/63D0S/g4kaM9Pf1UTAl0RUCllqcoH+gnwQAANjCN+1KZhosAACAKSjO76PDd7CvspVl+bIvtqiooI9NWV1yzl9bCosKeucoqcmwfO0lPi/yTmyvuKmhJqqrLPq2466QXl2ni0e1OEc/nF+Q200/p6OP28ZSmQMATGkWeoBTVUF2bMND+3KKiogLly3/3LwPSAMDmGFAx83LN1roo1jZGEdwgzgKAACQGtLe0GoaCE/cwAs5ZdVbz6I0dPQ3Wm/wcHPHDAxM2KmgmaOivMLSzPzO3UCPy9ePn7v063fgU4bwElG/B0+tt+92cnRy3Lu3vb2d2okgCIJmMlipU1l3V5eCjCw6N//uizjbnbvpxmGakTkoZnqAw2CqI9H0+tqLOFloydj+XjLAloWmMK41Hh1oSijLKekYIXOsWK09/6/RnYR32SXtzDJqKn+V7oTy7JI2BilVNdavvixMyqwdZmVqSb7gfuv5B26b67cenDGU+DxxLaEss6h1hFnU1MxQmA4AgM3Py+5gVtKQ+evo34UpQJfhBORUxL/Mz4j98L6KQi8nr/o5MA0zCwpg8fhhAIgN0aE96uvlJ3jKXDok0ma7/d0XcQVFxQqycq2trRN7Pmg6w2Aw3p6eNuvXq6zUvRMRo6CmQe1E44aGhmathdX92GRaJhZ9Hb2gwEAKNebxgCAImg1gpU5lzCwsJmZmLR8/vo6PJZPGZbVjGgQdcgTfnhHTo2Aqy8TBxoIYGejvweQFxxJ01nzu1kKsycttG2ZRtFon+XcDN7E2N6eVQUFBee4/t7QgZOVVuRFfeUnprqvpGEbJrnN1dDt/wvOwuZ4c998TrxA+ZGe3IqTXbjVagAAAAEJpekEbk5Sa6tgKdVxFbu7APDUF6c/5KB3p2eh+thVmK76sNEfLwoqiwQ3iKPiyxy/aNI00J3xydwAAhUx+kxjX1NBgZGzMNf3bR6EJEhMVraetU9PQdDcydqO9A5J+EtYDmGys7OyHvU6dvR0UFv7cxNCosKCQ2okgCIJmIFipUxkDA8Mlv8uPn4ZkJSfssjIpLcj7/WPS0SFH2tFdIuYqcwFgYGdlGRlozYpMYDLeqv650ZlUW5xbPcyxQmfNwr+7i5DqinI+0Eipy3HjsdjRLfXFuR+AuLoCH8D0Y///JRgmkcgAEAex2L/b0wabW9pHx7J+KEDX0imb6H5uEye8z8xqo5NX+Fzl/wihvCivlVlRTerLQnPVkY+zyeo2u8z4vuxPy8KCoqHge7KfR1H0tixj/62f2Zi8KyzYZWXyNiHm4eOHfteuwnnWof+qr6vbvHHT2bNnndy9T/rf5uHjp3aiiSUpp3Az7IWumdW2rXbHjrr09fVROxEEQdCMAiv1KUFaRibiZaSd3RZ3x91njx3p7e7+jYPRIpB09BI21kZCdAAAWnZWdtCTV8m9YcuXqhdQWtDF78ms6iuVOP7ejdKKLq4YEVKUwsU/zfpIAACAwcqa6uH5snKovMdx+b3k/3sJkLxyCoJ0Q8URwQVtJABIfZXR9/zCKzEUAAC5PrOwikZUU4t3tJolVhRk19OIKUsQXidmNv5wlkZiDbqkkUlaTZUZAACIzSm+V57g9TxPW0j83TZJx8Y8h5ZcHfOKff3flzZB+nt7zp/488TenZs32b6IeikrJzex54OmoSHC0CVfXxMjYyFxqaCoRC1tPWonmiQIBMJys11wdEJXP1Z3lXZ4aNjIyAi1Q0EQBM0QsFKfKmhpaTdu2pScljoHSbPNePXLp49/fUJAmgW69ps+L+uJmMvGIax75LjB4r9qXEpPbk4lkV1hmdY/CnVAav7UTiI3JT56x2exWpIRAEAZxA8NU9qS/R7WyxvqCND8+yUdAAzyW+13qM0pv3vcVHvTWgPXEJzG3gPai5kAILVkZ34YkVBU/dJmP9Ta3jY83Pw2voxbU0vox+M+6YUklHg6s+6H3/O/eWL3uWe0Zv73HfX4/rUjAwuKTVzb8dDaJRPYtWBkZCQ69MlWQz16MJycmrJ569ZpOnEHNKFep73S19PLysm/8TTC/tCfjEyTt6ruFME1b77bxSvHz1/2v3FjvdW6qspKaieCIAiaCWhg48cUNLpAKR09wwF3H1Ep6Z/cm9JZVU2zWJzrcy8R/KeqT6xiS368wgqlqya/DimhJMT6V/8USn9taRuTuNgCpq+9HEXsayivaRqcs1BGTID12z1bKJiP1b0siwTnjr3HCL67rrKhlcS+SGohD+o/RyY1J16O6DPcaS31+4uSfkv1+/Ir3u5Dgzjvkz5q6r83Jw80Q7W2tnp7euXn5e864rLaxJzacaiPSBx6GngnLPiOtY3NgUMHUSgUtRNBk8THyxuFmnPI2ZnaQWaynp4eVUWlmoZ6ageBJg+s1KcoMpkcdDfQ//p1XSPT7U6Hp8Vahj8D39PY1Df0jd89GhSHCD/716t+ykBL2zA3Dxkd8LRWeaOd2gQNI8ViMEFXLyVHRTrs2bN95w7YJR36LzKZHBwYdP3aNR1Dkx0HnGfcH+lvaWn6eO2UZ0P1B1d3t7UGBtSOA02GX6jUSbju9tY+Ot5FPCgASDgsBcX8f00vFDwGT8vC/Nd6eRRcV1NDQz+zuJwQM8C3VdZg50ku5kAAAEi9DR86GBeJ8fz/ETCtzYPsgvNnxnMuWKnPQhM3/TT0W+jo6Ox37zI2NfH29NpqqGfvfFTf1ILaocYPqS7mmFVwMfHr7zLqHEq8bcz9lXeGcs7v3xVCo6ons3T91s0TVaanRL8M8D2joKAQn5iwgI9vYk4CTW/5eXmuJ1wRSHrfwIfTbsHRSbBAQPBMQNDb5ERvL5/Qp6FePt5CQkLUDgVNLdj38de9Xe5U611PcRMIO+91LrRszvorUaf1P3+zY96FXrr1GsfNP4cZNZIb+k7dP2QHU8oVj2P3mk3vJAp0BZ8+eyeusEviUGTIdobEiyevRqTXMa6/nXRG9/NzHEJd/PU7aBpB7o7k0Epl7+Djqzi+nQaCpipYqU9pvLy8N28FvHn12tPDIyHimZOb18LFS6gdajwgpbaEvN/y8/vR8S813IZiVLfQV+OfiM7pH+tqr/h4dLR8Onf+3Cpt7Qk4AzTt9fT0nDl1OiU5eZvjQRObjXDcwncs19NX0Vx6/8Y1o7UGO3bu3L3HgYGB4ce7QbMDs6iCMDNprqbmvOSAOIr5OZdes+MtXZ8bcHryA46cKll5ynezJOOnh3/oFDLY7pNgYKaXE0SROdSU2OKDM+fvDvCgM9r3YaQn7XZGv8H5WzwHDO799QfZm3PrkGeO+rmru2QRGZ2REYWVnaRVHPDpKDT9wP8x08CKVSsTkpKWaart3WB5y/csfnCQ2omoBsG3bJ3TfuMJKNMJePydyxccrM01VJUSU5JhmQ7918jIyJPHIbqrtDFDpODoJDPbzbBM/yEmFGr3EZfrIc9ep2es1V+TkZ5O7UTQlNGHzspFys9vyUSYOm6Qw7e2EoXFxdgAAJSmSK/DwXO2uNpKogAgd3f3AG51TXkmALrR6AKEDFdn/hxzewOBlvfv+/gEsPktKvabFZAVFVUIMXExegAA6E69eOzGoOkRO1lmXGV4cDRmhbm+CCzToWkJ/puZHhgYGQ4cOhQdF9tcU7XNWP9tciK1E80omWnJf5joN7x/FxUTfcjZmZFx4gapQtNVRXmFpZn5nbuBHpevHz93iQOue/UzhJeI+j14arPDwcnRyXHv3vb2dmongqhvICc9u48eyyi5wVScidSQmVHBq6EpxQhA75vbfqnzN9sb8iEAAKSm3LxqZlVNJWYA+nKz87GoIZSY+RoRelJjdtZ7CmlIQH+jBifAFmTnYGXVNOchACBVht8J711qpoVPC/S0Pxg9d9/N8zawUIemKdj7ZTpZuHDhvYcP4mJjT3p7J0SE7TvusUBAkNqhpre25k/XT3tXV7w74eZqZGxM7TjQVITBYC5fvPgs/NmGHbvX220fjwVHse2VFfWNnzq6UZIW+ov//8aQhGmpra+ra/5EEVxjLDXWNb0og+31Hxs+trbiOTXWyM4f0wpjX0Po/Vjb9LGptY1W2GC16Jwffv771/I3GhqaNeaWmqt07ly+oK+jt/+g01Y7OwTil3NC0x02Lz2zR0D3lJ02NwJQPr5NL2FT367ABCgdKeFxvUuPWUnSAwAAvuR5ZAGdspcqGwC4ouyc3vnLNmxYzoUAlObs7FIaub371kkyAoAvzUZ3S5hp8CMBoDSnvykk8xr3FlbPEbb0jfTkhY0v0DQG29SnHwNDw+S0VIkli+0tjR/cvE4kDlE70bREIhIf3fLfYW64RFgoOS0VlunQV8VERetp69Q0NN2NjN1o7zAeZToAFGxvS0m8r8v1hIavVKqU3qaShCcnHH0fvyOOFhik7vrS913fGID9xcCnd6lP3Xf5+L3tY/qN8pfYWleYGuqx/2J45fBYWnK+fy3/wcrOftjr1NnbQWHhz00MjQoLCn89KjSt4QvTM7qlzK1XcAIAKK3p6YWM6hoqLAAQygqL8UtkpDgRAAB82cOrTyoRChoa3AhAKM1Gd4gYW62aBwAA3ejsIhoNY2MJegDA0Pvs7GZhDc3FDAAAUkdn1zDjohWbt1qbasvAMh2a5mClPi2hUKgTbq7hz5+VZKfvNDfMz8qgdqJpphCdtdPcsDDjTWh4mJuHOzPzBK9xCk1D9XV1mzduOnv2rJO790n/2zx8/ON2aASPuMJ8ukGEiKo633+fyCPmSaoJMQ7RcimriTMCAIiVd3busjE7cjX3uzflc0U1FjOTaVhVtGR/Z7pIemElHXG2YYSAmobwWO5Kvn8t3yApp3Az7IWumdW2rXbHjrr09fX9RmJoWiKUpGe3SWrrSdADACgdmel5tCoaEh/RZd1kPAFP6e/sxJL6Sp+ef1TLyEovpS7XGRtXVILO+SSsrSfHBAAAvTlZeWTllSsFEAAAUl02umaeiiztm5QKHEDyCQkwYouzM9ooAIChxtS7txJqSVS9XAj6dbBSn8bExMXDnoXv3bPnzNFD3of2d3XArp8/1t3ZcdLZ6aSz026HXeHPn0lISlI7ETTlDBGGLvn6mhgZC4lLBUUlamnrjfspsIXoMpygrIroV4thbEFOGXaunKoiEwAAIDjEVGWklRUkeb7fZj1UnlfeOUdaXY3l97IRynLLevnk1aTHOEvL96/lWxC0XXP2AAAgAElEQVQIhOVmu+DohK5+rO4q7fDQMLi4x2wyVJGR2bBQXUOUAQAASE0NjfjhlrxMnKAkJ7PSKh2ehns7V+rsDMat2SkPOojNr55XC6mjCrOqeTQ1pRkBAACbj0ZjpbU0eREAAEDu7ulDDFW8+cCnLokCCD6jXQ6ahHAnM0tbux3Oofjlm9Ysgr3UoekK9lOf3mhoaKzWr9NdrXfh3Lltxmu27HG02LQVdv38KgqF8iLk4X3/K2vWrk1OS507d4JmY4emt9dprzw9PLh4Ftx4GiG0aPHEnAT/Pje3j1tDXuqri7Hg3+fl9qJUFJRHu6gj5um4XNT54TGJtTnZn+gVTdW4fu/vn1ibn9vBpa4oN8aFYr5/LT/ANW++28Ur+VkZV096hIWFnTx1Ukxc/BeOA003DIrOcVV/LZHEqLo3OHUTmzAfMwAA8Jqcfi6xpY1eSEyIHQlwfM+khxfKCDIDIBde4fBlF2a9U+iqvw7HtPR4VL4zE+rLLyGb2t4Hycbvawc4xaT54CNTaHqDlfpMwM7OfurMmXXr17udcE1+GbHfzUtaQYnaoaaWipIiP293BBgJundPUUmR2nGgqailpcXb06sgv2DXEZfVJubf/By+s6GqsqG+vg0hbahFX5iQ0UwrqmGsLfylHhioffvm9QfWZRtXiI7WDZS2gsSSFlZxvaVCoz1mCRVFec0oRRWh+riwV0Udw7xyBuuXiX7Zn1BRlPcJKb9NngOQe2rKSyoa6mqb6VU2bl7KBgAYrMt6/rywbY6QooYIaCNK6yuMDh4l1RZmV9HIHFGcjwAA31aaUdY6V3q5Mu+/6mcKpi7rTUpmTTuZQ8bA0FiR80tRT+mrRCeklDVgWWQViXk1zCq7pcdY3nzrWkgDze8L3hWXVA0stthlNDrML+dBSDWfmdXqJf/XcVhZc+ndF3FPA++ss7SytrE5cOggCoUa2+mhGYKZT/gfv3EMXEvkvkyuhOIf08piiL/L9FFIdkFZ+H8Qmglg75eZQ15B4UV01AYb6+MOOy64uvT39VI70ZQw0Nfn637cxf6P9esso2JjYJkO/ReZTL4dcGvtav05c7nuxyZ/r0wHgNLb+jEr6JLrqbdV5c/O38ooSHl2crfL6bguCgAA9Jc+C7l86uZF37DXDeTRHUi1aX6HfO/n4b583RLr0SW1w6xdyf53UurqC18HnfHc+WdM4+d+tOQGdEktjaiqOjcCEPp6+ytfBF0KKMPOZQIAUJqTvbYH1ooZbLUQbLrl5ZrU9WXwKPlTVmEFWKKhyUOue31hr9vhY+cO2l2O+Ej5O3dLbsBeZ59XtErrzVTxqe4ONxO7AQAAED6l+h7bfqaMbaX5Jl1ErNvjojky6qpsY/vRfetaiC2V1XVlbx74RwZHF4/2Qic25IbdDj7/oAj/lePQ0zNscdh3+3l0xYfq1Tq68XFxYzs/BEHQDAcr9RkFgUBs3WaXnJqKoBC3GurFhD+dzV0/R0ZG4p6HbTXSA0ODSWkpf2zfDvsFQf+Vl5trZGD4MjrGN/DhAXdvZtYfjMdELJCV5mWiAEZSP4PmiWsnLvjaqCE6UhOKsAD0FxZ1SltbKLMgOIUW8Y8+sqS05xRXDC9QURf53I+b1J6LrqVw8q3cdezqJZfL945uEKbtTIuL+0AEAABKW05O9Yi4vKoQHQDMIoqSXHREWhE5lUX0AIC+zLepA8KqK0Xm8crZOhjoiX5upAeUTnRWJUVUSRnx5vr9tmU+l8+uF0SM0CK+9M2ldGT77jkVz2vne8JASYSHlWlkBE/ADwNAbIrxdHN9tWDP2Z1rpefzS0st5qado6SkOsa+Yd+8FiCkutLM3sZgCYLcP9BHAgAAJq1tl4+pLVrA/e1HuQsEBM8EBDm4uHl7+dht2drY2Di2GBAEQTMWrNRnIO553H5Xr/jfuBH5IMjRdl3N+wpqJ6KC2qpKp03Wz4LvXLt+7er1a/PmzaN2ImjK6e7udj582H7HToN1G/yfRoiN6SE7AKCvNK+QwKK0Zpu5GCsACC5OLkYw1D+AoQA2xZU6QvV5eT2sqgqKowM7KV1Z6eVDPHJqsn8V1UW5pcOS1putpVkAAIBFVGwxgmYEj8OOjL6bV0wRUlNYMlrXD5TmF5N4VRUkGQEAAMGApBvIjQirxgNAv1DRUFNw9FOU7iJ0IUlIcW5RaPsyx3XqPJiqylYaMQmZ0e4tlLb4s34hmOVO+zQ4EWCwIubeyzYB07UruQllwZdPvUSsc7fX4UUAACjddR8+IuQ0FOeN7Z72+9cCGBfw8yFGBgdxn9sL6HBD/DprFv5oaN9yPf170YkLRESN1hpcuew3NAQnooUgaPaClfqMpaGpEZeYsFZf98DWDddPe+OwGGonmiSDOOyNc6ecNlvr6ayMS0zQ1NKidiJoyhkZGQl59FhPWwc7RA6OTjKz3UxLO+Yvw8HiovwethXm2qOzSVB6+3oINChuTnYEAAAQq4rzG+kV1OVHm+ZJ9W8SsvEcqooKXzpe9+UUFREXLlu+6EsT+8AAZhjQcfPy0QEABnKKC/FcKurio3U9tqiooI9NWV1ydAUi9lXGNlLELL9Lt3MwgF1WTf5z9T+ALsjHzmH8+GmurY06FwL0FOcWkYVV5UfPgc+LvBPbK25qqInqKou+7bgrpFfX6eJRLda6+Bu3S8AyYyvl0cNTWl6ji8ii6ppjXTfp+9cCAIqVjXEEN4ijAAAAqSHtDa2mgfBYRkcxoVC7j7hcD3n2Oj1jrf6ajPT0sQWCIAiaaWClPpMhkUiHvXvjExP62prtjFanxkZTO9GEe5UQu81Iv+tTY1xCwl5HR/pxWacGmlly0TkWZuZ3A4M8Ll8/fu4SBxfXj/f5h6FydEnbXOWVSz93EMGUVX0gz1FUHZ37hNyALvqAkFBT40AAAChtyQGRuYMoJU2ZL/2+MQXoMpyAnIr4l19N7If3VRR6OXnV+QgAsIU5pQN/zc8ICO+yS9qZZdRUvky8yKpg77lRCVEZ5HU/o/uvSJj8rJI+QMutbWy8iA4A0J9XVIjjVtYQZQQAAEJhUmbtMCtTS/IF91vPP3DbXL/14IyhBPNQWURs5gCXruUqwdHCnFAdHVGIF1dQXzjGqQa+fy0AABpmFhTA4vHDABAbokN71NfL/8w8HMJLRP0ePLXZ4eDk6LRnt0NHR8dP7AxBEDQjwLlfZj4+fv7bgXdTU1K8PDzjI8L2u3oJCotQO9T4+9TYcO2k56eGOu+T3nqrV1M7DjQVjYyMBNy+63/5MoGADwh7ISol/fPHINbn5rQwKVkrfS7UuzOS83sXrDDT5UYAACjtOdnVQHqTKh8CAErrm7f5PcNgjpSaGvvn3XEVubkD85YqSH+ep4LSkZ6N7mdbYbZCBAkAvjI3p+fv+RmJtbk5rQwKlspzAQCAQgEIBJgjv/6EU+m2Uy+vPtJVdRKnBwDgytHoXqTc1r3rRzuW4IuyS3s55dUUmAAAgNJdV9MxjFq6ztXR8J9lMvFjLvojhUldQXm09Z/c+DIktHR4kb3SojHe337/WgAAgJaFFUWDG8RR8GVhL9o07Sx+empUGhqaNeaWdHR0p10OS0hIODrt/9kjQBAETWuwTX220NHVTUpNUVVU2GNtftfv4hCBQO1E44Y4NBR87fLudaYKstJJqSmwTIe+qq+//4/t9mEhIQ9Dnzo6OR20s715/jQeh/u5o5Aai3IqEXIacpwAAAAGi6NDUuh0HTcs5wAAAEpXcW4xZZGKnBASYEvjX7azMLV308kqqH3p900oL8prZVZUk/pcM+OrIx9nk9VtdpnxIQAgvi/Oa0LKq8tzjJ6rrijnA42Uuhw3HovFZftfyRwEAAAGcet1RkKU2prG0f7b+NKCnBaksqH256WH8JW5ud3MKoqfK/BhEokMAHEQi/17HpjB5pZ2fFdHxzANCysbIwAAYApD/SKaAR2vquYSRjwWQ/zxj+L71wIAAICWhQVFQ8H3ZD+PouhtWcb+zWN9U2dbq4fTnoDzp89f9IVlOgRBsxCs1GcRRkZG5z+PvIh6WVdess1EP/t1GrUTjYOc9Dd/mKypKi6IePHiT5ejTEy/svwKNOMVFBUbrTVkZGR8GROlICfrdPBATHxca32NndHq14k/MSEgpR1dVD6yRFVtHgIASnuWn2sU2HjYxZx/tBGZWFldNUjDzsnclh4RmMluINdTUguE5UWJb1Jy2igAEGvQJY1M0mqqzAAAQGxO8b3yBK/nedpCgh4AQK7PKa6hWaIs3xd773UdidKKLq4YEVKUwsU/zaprbCx+VVI2el9BIZHIjOISwgwAAECsyi76SCe5dAXP5wy1pYUNCFlV8eao2Mw2CkDyyikI0g0VRwQXtJEAIPVVRt/zC6/EAHYOTtqR7qrCovaPGU9PBQ/qanMPMovJLv4UFRRX2kv52uX/0/evZRQdG/McWnJ1zCv29VukfnL9GQqZ/DTozh8ma/nnc6e8SrOwtPy5/SEIgmYE2Ptl1hFZtOhRyOPol1GnPE/EScvuPe7Os4CP2qF+RUdri/8Zn/LiwuOuJ8zMvzcBNjSbjYyM3LoT6O/nd8jl6LYtm//aLiQkdO/B/YT4eB8v7/jn4ftPePAJLfzh0Xrzst8TGLgqk1ISKvry4ovJNt7XN0hzfGlDRnBycCFJ6LNHvLbv93Rayp2V00oZHsxIKFjlYMuDAIBCLyShxPM+6374wJze6oL33YvM/O/rSs0d3Z/06WMrmUyMD3p33NVCBEnK/tROIncmPnrnfdJaJPd8S1fxZTcWa23ujuSIEtk/vLaI0gMAiI3ozEYa6a0aAp+/zckt7a3DxNao0DLnnbY8CAAQ8lvtdxSdvX33uGkcDwcju8p2x8MHxNgAWd9KOdwLHbxtS5KW5Z8em7gjDxD7is/tRR313ac1hjGl372WzxhYUGzi2o6H1i75uREjpQV5V3zc5zAyPnryWEZW9qf2hWYeEra9qb4RxyYrI8g49rcgaGagmc3zbc9yGAzm8sWLz8Kfbdix23rbDjrkj+ZOmzLIJNKzB8GPb90wszB3PuLM8qMJsKFZq6+///DhP2s+VF274S8rLfXVz+BwuKt+fiGPQ9bZbbfdsZuegeHbx+tNO6p/psLs3IOtqNpWBJ/4Yt7/byim9FSWN9ALyYiwIQEApO6qsl526cXz/1mn4rvrKhtaSeyLpBbyoP5V15K6a0sbGUTl+FlGJ1fsqsmvQ0ooCbEiAL6poXPuQl5yS9X7ZjybkITkvG82UeNb8tIbmOSUpf95VmJfQ3lN0+CchTJiAqyIvz9a9r6Jlk9Kaj4zAJTOqoyiQUENBWGWrx326+f65rUAAACpOfFyRJ/hTmupsddQfT3dARfOZr9OPeR8eOOmTT8xJw9EbT5e3ijUnEPOzuN7WEpHUfTdi6eD280eRh9XZxzjWzNVT0+PqqJSTUM9tYNAkwdW6rNdRXmF64kT/QOY/a6eCmoa1I7zYyV5OVd8PFhQKJ/TJ6Wlf2FEIDRbFBaXOO3dJykre+HcGdYf3c59qKpyc3Vra+9wPO6uumzF1z+ESfE125u37OY9T+3Z0csK39PY1Df0jf8RNCgOEX72r7S9UwZa2oa5ecjogKe1yhvt1MY4jHR4eDg67Enw1UurtFcdP3GC8yfn5IGoboIqdQBA57M9a65yXYr3XoH6ibdmJFipz0Kw98tsJykl+TwyIvTJU+9DjspayxyOHOfg5qZ2qK/r7e4OOH86J/314SPOG2xtYWMb9B13AoOvXbrk5Hxk+7YtY/m8qJhYaHhYxLNnZ4//Ka2kvNfFlZuH9/8+04dOyWtnEJOXnx1lOgCkuphjVsHF3xhdyqhzKPG28X++LYZyzu/fFUKjqiezdP3WzWMt0z+Uv/PzdiMR8DdvBaipq/9OamjG6c9HFzCqeyt+pRb/zlsQNEPASh0CNDQ0NrYbVq/RP3fmrJ3xart9B0w3bEIgxrj2yWQYHh6Oevo4+NplHT3d5LRUTk5OaieCpq6BgQHnI0ffl5c/eBIiLzvGZUc/s7Cy0tHTu3Du/B8mazc57LXavA1BRwcAAJTu8sSovDKEsrkRsj48Mk5lhb4ixxT6E5kYSKktIe/HdKPzD3T8Sw23oRjVLfTV+MfSOR2LwQT6+abEvNyzd+8fO7Yjp083PGjcUPAYPC0L8386ng31fWoemMNZh84dVnVWYfnRW8S+5sYmHIuoKHNb+SeGxeI8Xw5IwbQ2D7ILzv8ynyiu7WM3/QJBjmEslo6ZGfm1LRA0ZcDeL9C/FBQUuB13BQiEk5u3hKwcteMAAEDVuzI/bzcKiehz0kdFVZXacaAprbi0bP/efWISEr4XzrGxsf14h28oLSlxPeGKHxo64OYjo6Q8jgmhf0qKirzte1ZRScnd02PBggXUjgP9ll/q/YJ5F3rp1mscN/8cZtRIbug7df+QA4oMAPSXPbl8N4siLMZY/TYtv2qJc5L/us/jnL/61nBj5vMHV04/7N1wy40hYN/VyqUXX9+wnEuoi79+B00jyN2RHFqp7B18fBV9/i0n3zJxbbnhqjfpyPWPz5og/rPl1785Jhzs/TILwTZ16F+UlJSiYqPv37t3dKfdyrWGOw8eYfmNcuc3YQcG7vr5psZG7XN03Lb9Dzo6+OsKfU9g8AO/C+f3Hz68c/u23zyUrJzci6iXjx8+dN1nr7lKZ5ezCzsHfJIznhpra674eHS1tZy/cGGl9ipqx4Gooic/4MipkpWnfDdLMn56+IdOIYPtPgkGQPqUetH5Yq3BxatbJJiwMdVh6ahtGlwIAMC330IIqWsK3iItkGPIftktIiPOriyK6s25dcgzR/3c1V2yiIzOyIjCyk6S8oeHgZ1qd2/Yy4IyYv9rYUaASfr/LRA0pcCevtD/o6Oj275jR0JKEhk3sNVQLz7iGVUevCS+jNhqqEfo70lITtq5yx6W6dB3DAwM7HLYe+/unfshj3+/TB9FS0u7eevW5NQUBpoRO6PVUaEhw8PD43LkWY6Ax9+5dH6PjYWmmnJCchIs02crSlOk1+HgOVtcbSVRAJC7u3sAt7qmPBOh4sFxlwjunV4bJZgAGKqpqSXLamnMRwAAvvMWAF3onCIUd1fX/G1uZx4n3PpjQfrFYzcGTY/YyTLjKsODozErzPVFkDR0yJGKhJfZ3YBhyXKLZYsZwH+3QNCUAit16Ot4eHiu3/C/fOVyaGDAgS02dR+qJu3U9TUfDm7dEBJw3ffSxRsBN3l5/39gHwT9U+m7cmMjEzKJHB0Xoyg/zl22uLi5L/ldvhEQEB3ywNHW6kPFu/E9/myTkZq0zXh1Y1VFVEz0IWdnRkbYgDlb9b657Zc6f7O9IR8CAEBqys2rZlbVVGJqiva/gZ5vuWXNAgQAAFcUl1gjrqkliASA8u23AAB9eeh8HAG3SMdSmhEAQKoMvxPeu9RMC58W6Gl/MHruvpvnbUSQgHnllp0qLfddz8Q0I2WU5ZnAV7ZA0JQCK3Xoe5YtXx6fmLBq+bL9m9b/ytLrPwk/OHjL96yj7brlWhoJSUkrVn5jsjwI+uLew0ebrG1sN2++eyeAfcJ6aqlrqMfExxmuXXPIbuPVk55YDGaCTjSDtX5qOrFn57WTnseOH3vw6KGwiAi1E0FUROlICY/rXbreSpIeAADwJc8jC+iU1VXnfEx6+XpAxsBEngkAQGlJfBhRv0hLQwQJAOnbbwEAcAXZOT10YobmS9kBAIDSnP6mkMzL2FtYTRS29I0M992qNDoGnEnWzuvIStyzU6dfNI2uxPvfLRA0lcBKHfoBBgaG/QecYuLj2hpqf3bp9Z/yNjlxm7F+c01VVGyM08GDDIzwGST0PQMYzJ69++/cvBn08MGundtpaGgm9HRIJHL3HoeEpERMV7udoW5y9IsJPd1MQiISHwb477QwEhVZmJyWamRsTO1EENURygqL8UtkpDgRAAB82cOrTyoRChoa3OTKivdENpFFgkgAKJ+SAoLf9AtpaEgwAACGvv0WAPjSHHQ7m46N5efXpI7OrmHGRSs2b7U21ZbhHX10Q3iXkd1OAfSiG1wPrBxMepHWgvvPFliqQ1MOrNShMREUFAy+f8/Ty/PWhTNH7bc1NzaM48Fbmj4ed9h+86yPm7vrvYcPFi788aLu0Cz3rrzC1MgEj8fHxMUqKypM2nkX8PHdunP73IXzD677HbLb2FhbM2mnnqYKsjN3mBsUZb4JDQ9z83BnZv7m2qrQbDKCJ+Ap/Z2dWFJf6dPzj2oZWeml1OU6Y5M/jSBGcO2tbX11Kddu5LNL8PIoq4tURUcX9tPQ0n7rLUCsys5pZNbSW8Xzee5UJJ+QACO2ODujjQIAGGpMvXsroaoh+0l08QAAADl/scg8FCsLXev/b2Ga8XOvQtMPrNShn6C/dk1yaoqclLi9lck9/yvEoaHfPCCROPTgxjV7S2NJ0SVJqSlrDQzGJSc0sz14FGK73nq9rW1Q4O257OyTH2CVtnZiSrKmmvIeG4vbl84T8PjJzzD1dXW0ex/af+rIgT0ODuHPn0lISlI7ETR1MCmt0uFpuLdzpc7OYNyanfKgg9j86nm1kK6l4ZpFlLenjA1cknltt/H2NXVk3r5cwrdMkQ2lsuZbb5EasrOrUForlv61ri2Cz2iXgyYh3MnM0tZuh3MofvmmNXx11YUpd88FxrwMPO1fJOG8x4Dlw/9vgQvjQlMPnE8d+hUfPnxwP+Ha+v2l138kPyvj6kmPedzcJ0+dFBUTG9+E0IyExeFcXI4X5udduXZdRVmR2nFAfV2du5t7XV3d3mNuS3VWUzvOVEGhUCIe3X9w45qhkcGfLi7s1LibgibfT86nPtRVXdlGLyQmxI4EuE/v6oYXyggyAwBI3dXlLXRC4sJzkaC/trAeKSov+PlJzHfe+hpS38f3tQOcYtJ8zAAAQGhu6GQX4Bj4UNkCFohL8KK+smXKg/Opz0KwUod+XWRExJlTp6UVv770+nd0dbTfOHuyJC/H5dgxCyvLie5hDM0M5e8rHffsFRASunz5IsfcMa5SPxlioqNP+ZxcLCG177g7L78AteNQ2buigqs+HnS0ND6nTilMYsckiOp+aeUj6OfASn0Wgr1foF9nbmGRkpbGP5/7D5O1ocF3KGTyD3ehkMnh9wK3Ga/h4WRPeZVmuc4KlunQWDwMebrBap3FunXBQXenVJkOADAyNk5OSxUVWbjTwuhhgD+JSKR2Iuro7+u94Opy3GGHjfX6lzHRsEyHIAj6fbBSh34LKxur90mfR08eZyTG2VsZlxXkf+fD74oKdq8zfR0X9eDRg5OnT//OYu/Q7IHD4RydDt68evVOcPC+PbtpaafitxYzM7Obh3toeFhR5psd5gYF2ZnUTjSpRkZGYp+FbjXUoyUPJaWm2P2xDYGAI/MgCILGAVz3ERoHMrKykS9fPH706FtLr/f39ty+eC49JenQ4UObtmyZmsUWNAVVVFY57tnLxy8QHRfDycFB7Tg/ICEpGf78WXhY2KkjBxTUNPe4nODknkftUBOupvL9FW933EDfdf/rmlpa1I4DQRA0o8CCCRoftLS0m7dsSUlLZaT919LrIyMjMWFPtxqtphsmp6SlbrGzg2U6NEZPwp7ZWFqZWljcuxc49cv0UTQ0NOutrZPTUjlZUXZG+s8eBFMoM3aG5kEc1v+Mz4EtNqt1V8UlJsAyHYIgaNzBEaXQ+MvNyXFzdUMyMBpZ28aFhxJwGO+TJ9U11KmdC5o2BgcHj59wR2dmXL52VUNNldpxflFhQaG7qyt5eMTJ3VtKnvoz1YyvtLiYgAunpaWlPb28+AX4qR0Hoj44onQSwBGlsxBs3YTGn6qaWkxcrJamxrVTXmvX6MUmxMMyHRq7qg/VpiZmXZ2dMfGx07dMBwAoKim+jIm2Xr/u2K7tvm7H+vt6qZ1ofDQ11B/ZsSXw8nmfkz53gwJhmQ5BEDRxYKUOTQgkErnexgaJRDrs2YNEIqkdB5o2QsMj1ltYGJiYPHgQzMXJ+eMdpjYEArFt+x9JaSmAiLczWh37LHRaP8YcIhACr1zavc5UWU42KTVFbzWcQh6CIGhiwRGlEARNCXg8/rire9bbtzfu3NXSUKN2nPE0b968q9evZWVmuru6JUQ8c3L3XiwuQe1QPw395tW1U14CAvyRL18uXrKY2nEgCIJmBVipQxBEfR9qavc57OGaNy82PpaLa2au6K2ppRWXmHDn1q0DW2zWmltt239wDuo76ytOIe0tLdfPeFeWFh93PWFqZkbtONCsQOxv+djQSuaRF58PZ/yEZjXY+wWCICoLj3ixzsxM39Dw4YN7M7VMH0VPT7/X0TEuIaG7pcnOaHVaXAy1E/0AmUQKuROw3WytMP+ClLRUWKZDk4P0MePBsQ36Vpey8NSOAkHUBtvUIQiiGgKB4Orm+fZV6vVbt5dpaVA7ziThF+C/GxSYnJTk7ekVHxG239VLYKEwtUN9RXEu+oqPBysLc0joU2lpaWrHgWYRpKDSEi4KUk5Liw82qEOzHWxThyCIOqprak1NzJo/NUXHxc6eMv0veqtXJ6WmKMvJ7l5nGnjl0hCBQO1Ef+vp6jp99JDngb3b/9j2PDIClunQZCO8y0F3iC9dKgznI4BmPVipQxBEBc9fRFmZmemtWfPo0YP582b+Qp5fxcTEdMTlaOTLl9WlhX+YrEG/eUXtRGB4eDjy8YNtxqtZGJDJaam2mzbCpcqgCUXC9uMoAJDweNLfG4kfMrPqRTS1ROm/tRu+vbGx6593tyRc96ea2jbc5xfY/975UjCtH9thbxpo2oFfwRAETSoCgfCny4mzPt5XbwY4HzqAQMz2p9uLlywOefrksPMhX7dj7vsd2ltaqJWksqx0r41FwvPQO4F3L1z05Zz+s2RCUxilo+i5j42ygunFl4/ctxmqy4t9MzsAACAASURBVKnb3sjDAgAAINVnZFTyaWpJ0zSlXLLXU1Y3u5CB/bJbd16w69GTgbGvn53YuOVadg8AAGDfx1/cob3C5mYRqf9d2Il16nLKescT/1rAgFAX73vMw+/Rc3+H1aanX/VM/sVC0K+DlToEQZOntq7ezMyiob4uOj5uxTK4+PzfzMzNU1+lCi3g2WFm8OTuLTKJ9ON9xg+mv/+yl+uRHVvMTY2jY2OUVVQm8+zQrISYJ6smhBygMOIoontuP71szYwOevoWCwCgNGdmlHFpqbMl3njaouJgLdlbVdtOAgAASlOcz1b3MqXdR/f9sXX/QR3czUsh74gAMIsqCDOT5mpqzksOiKOYn3NZTd/W0kUEAADQm3PLYW84y4Yjhx22G8vTVxRWdk7qHxcE/SZYqUMQNEkiX8ZYmpqu0tF9EvKIZ7b2ePkOFlZWLx/vx6FP0GlJ9pbGJXk5k3PehMjnWw31iJj+xJTkHfb2dHRwpgFoUvTl5hXTSK+1s9bgQbIJL1xAi+nuHQSA0paZVcSqwFGbQtLft0V5sKWJVkZBnhkAyqcXZzyi5m06YCKMBADQouYwEctKKnAAgD50Vi5Sfn5LJsLUcYMcvrWVKCwuxgYA6E69eOzGoOkRO1lmXGV4cDRmhbm+COz8Dk0n8BsZgqAJRyAQPL1PpiYm+Pn7r1y+jNpxpjRpaennkRFPQ554OO1RW7Zy15FjHBM2c2V99YcrPu69XZ2X/C4tX7Figs4CQV+Fyc3OHdZyMpOkBwCQ2ts7hrnUeFgA6MlKzyMgJIYXu1lIMg0VotHNYnoaAkhALHv+KImy/OIawdEec8SGjx/Jc5RQSAAGctKz++hFGCU3mIozkaozMyp4NQ5KMQJSZfid8N6lnlr4tEDPR8/KeffdPG4DC3VoeoFt6hAETaz6hkYLC6ua6uqouFhYpo8FLS2t7aaNyWmpzAx0dkZ6kY8fDA8Pj+8p8DhcwIUz+2ytVizVSkhKhGU6NOnwhVlonPLK5bwIAACxKju3kXvZciUm0JuTkYPlXbp5k/Y8BCDVZaOrhdQ0ROkBpbOgoIJWXlWVfXR/YmVOXhOjnLwME8DmpWf2COhut9PmRgDKp7fpJWzqmgpMgNKc/qaQzMvYW1hNFLb0jQz33arEMdsHxkDTDqzUIQiaQFExceYmJktXrHj65DHv/PnUjjOdcHJyXrjoezcoMOF56F4bi8qy0vE68pvEeDtj/Za66pj4OKeDBxgYGMbryBA0VoTSbHSHtIbmfAQAAJMZHtmgaLdpFTvA5GZm94ub2ejwIgCgtGRll89T15BhBGCYQBiimS/Azz5aamNyouKq+C1sDQUR+ML0jG4pc+sVnAAASmt6eiGjuoYKCwCkjs6uYcZFKzZvtTbVluFlpOoFQ9AvgpU6BEETYmho6ISbh5eb28Wr144fPQJ7P/8aZRWV6NgYc1PjIzu2XPZyxfT3/87Rmj82uuz6I+D8KQ9P93sP7gsJCY1XTgj6KcRqNLpRXENTAAkoXW+v+efJHvPaJs0AcAWZWT2SuqtlGAEAlE40uohZXX1hRWYZBskjumQ+aWiIAgAAmPxg//i5O08d1OYChJL07DZJbT0JegAApSMzPY9WRUPiI7qsm5ZPSIARW5yd0UYBAAw1pt69lVALh5NC0wys1CEIGn8NjR8tLawqKyqi42J0Vi6ndpzpjY6Oboe9fWJKMhHTv9VQLyHy+S8chEgcuud/xd7SWEZCNCk1Zc3ateOeE4LGjNSUlf0eMdxZmvLilo/HU5odty5aSzACQCjNyGoTW7VKggEAAEgfGxrxhOpXKRh+cRaAWrbtwPLakMuPnwX7nn4ysO723SPLuRFgqCIjs2Ghuobo6C5NDY344Za8TJygJCc9n9EuB01CuJOZpa3dDudQ/PJNaxbBXurQNEMzMjJC7QzQzFRbV29palo8fo/soekiOi7BzeXoug22R48chk3p4+vtmzce7h5zubid3LyFl4iOca+8jLdXT3nxzJ/nc9JHVExsQhNCs5aPlzcKNeeQs/OPP0r59HD76jsC15/v4G7Gcy0R50V9/XOk9tLcJlY55YXMX7YM9dTXtCMFRflZvtXfHNtc388mzPfXHqS+j+9rBzjFpP/eNI319PSoKirVNNRTOwg0eeA/UQiCxg2RSPQ+eSY+6qWv3xVd7ZXUjjMDLV+xIiEpMeDGzX22Vsbrbbfu3c80Z853Pt/Z1up/9uS7gnyX4y4WVlaTlhOCvoPS+uZN7hyVdUrcQmzc3/sgcr6s1r9HtzBwCEtxfPfgzHzC/yrJkeyCskq/mhSCqA/2foEgaHw0Nn2ytFxXXlYaFRcDy/SJw8DA4HTwQHRcbEvdBzuj1W+TEr76MQqZHBp85w+TtQu4OZNfpcIyHZoaKD0VaU/9n2TgmIfbs/Pq8dTOA0FTHWxThyBoHMQlJp/484j5OutjR52RSNgTdMItXLjw3oP78XFxJ7194iPC9h334BP8e3hoWUG+n48bEwPDw5BHsnJyVMwJQf+GYOaTW30gUO8AAICWnpWJ2nkgaKqDlToEQb+FSCSePH029sWLsxcv6uvqUDvO7LLWwGD5ihVXLvvZWxqvt9uxYeeuQSz2lu/ZrFephw4f2rh5My0tfHAKTS30bJzcbNQOAUHTB6zUIQj6dU1Nn/btc6ShoX0ZG83Px0ftOLMRCoU67nrCap2V6wnXmPAnQwSCto5OcmoKF/d3OwBDEARB0wGs1CEI+kUJySnHnY+YWlkdd/kT9nihLlExsdDwsIT4eE5OTlU1NWrHgSAIgsYHrNQhCPppJBLp9NnzL56Fn75wYe1qPWrHgQAAgIaGZq2BAbVTQBAEQeMJVuoQBP2c5paWvXsch4cpL2NiBAX4qR0HgiAIgmYsONgIgqCfkJSSZmJgJCsv9+xZGCzTIQiCIGhCwTZ1CILGhEQinT1/MSLs6clz5w3XrKZ2HAiCIAia+WClDkHQj7W0tu7b60gkEiOjoxcKClA7DgRBEATNCrD3CwRBP5CS9trYwEhSWub583BYpkMQBEHQpIFt6hAEfROZTD7veyks5LHPmbPGhmupHQeCoCntxnX/8vJyaqeYyTADGGpHgCYbrNQhCPq6lra2/fv24/H4yKgo4YVCP94BgqBZzNTMVEpKktopfhoON+jl4XHuwgUaGmpHGRubDTbUjgBNKpqRkRFqZ4Bmptq6ektT0+KyUmoHgX5F6uu3Rw8dXG1g6OF2goGBgdpxIAiCJkRvb6+KgmJ1fR3NdCnVoVkGtqlDEPQvZDLZ95Lf04cPPE+dMTMxpHYcCIIgCJq9YKUOQdDf2jo6HPftx2Iwz1++XCQiTO04EARBEDSrwblfIAj67PXbdOO1BiKLFkdGPodlOgRBEARRHWxThyAIUCgU30tXnjy45+FzytzMmNpxIOh/7N11QJNbGwDwh43RHZLS3R1iAgIiaaIYWNjdRdmKLdiiYIuKguhFsIXR3d1dIzY2Nr4/APXeT73qHYw4v7+Us73n2d7Fs/Oe8xwEQRAEAGXqCILU1tVtWL+xtaUlOCREQV6O0eEgCIIgCNIHzX5BkFHtw6doe9vpUtIyIc+eojQdQRAEQYYUNKaOIKMUlUo9ffZ80I3r+3wOzJ7hxOhwEARBEAT5J5SpI8hoVF9fv2HDpsaGhkchIUoK8owOB0EQBEGQ70CzXxBk1PkUjZ8+bbq4pOSz5yhNRxAEQZChC42pI8goQqPRTp+7EHjt6l4v7zmzZjA6HARBEARBfgZl6kNLXGxsWGgoo6OgjzZCG4lE8ti3j9GBfJ+Do6OBoSGjoxhUDQ0NGzZurq+rffT0qZKiAqPDQRAEQRDkX6BMfWjJy817+OChw5LVjA6EDnAcgg5LVpMYHcZ3Pbvur6qqOqoy9Wh87JYNG03GT7h29TIHBwejw0EQBEEQ5N+hTH3I0Ztk6bxiHaOjGOHK8nMYHcLgodFo5/wu3rh0aben57w5sxgdDoIgCIIgvwpl6ggykjU0Nm7auKWmuurBk8eqykqMDgdBEARBkN+Aar8gyIiFj423t7UTFBJ6HvoMpekIgiAIMuygMXUEGYFoNJrfxctX/f137t/n6jKX0eEgCIIgCPInUKaOICNNU3Pzpk1bK8vL7gU/UldVYXQ4CIIgCIL8IZSpI8iIEhefuGn9ej0jo4v+zzg5OQHgVkBA5OtIZuZR8Wbv7u7W0tbavnMnowNBEARBEDoYFV/eyO9ob8jNrqioaGzkkHe0lmGl45FJhNK80qKC6nImmRnOSlx0PDICAECj0fwvX71y4cL2vXsXznf58ve83Lz29vbFS9wYGNug+evly8SEREZHgSAIgiD0gTJ15O+o7a01qe/P+KaIbfFxpuuRKXWVaWFPfQMKpTd4uPz7zZHf0tzSsnnz1tLi4nuPHqqrqf6j1cra2smZvqdziGJmZr5/9x6jo0AQBEEQ+kC1X5C/w4rKa43BErGS+saiOLoeGSelrD+WtRsroms4loWuRx714hOT7Wync3BwPg97/v9pOoIgCIIgwxTK1JF/6kyNzeuUUtZTom+iDgBtSfFF3aLKBpooUaeXnp6ei5evLVu0yH3NGn+/c9xcaFIRgiAIgowcaPYL8g/EgoQ4gqCpmho7vY/clpeUROI1UdPkpPeRR6mW1tbNm7cVF+bfefhAU12N0eEgCIIgCEJnKFNH/q4rKyupikPXULwkPPxDSiNNTMV6tqHCtyO1HXVJr2PxWU1kPikzh/GGkn8fev9xKzEtO6WBRdtEhRugLSP+dXoLrQeACSOoZTJFHSXvvysxOWXj2nUaOjrPw0J5uLkZHQ6CIAiCIPSHZr8gf0Mpic0ppnE2RN4JiCorTY4NOnp+7a43ZZS+5q6SuDOr/B63SE9b5TyVLd5r6Y2IKtqXO/+0lVIYn1uFkzcw4sUCcMsLt4SGhqZ08qlpG6mgNP239PT0XL563c11wVL3lZf8L6A0HUEQBEFGKpSpI9+iNCTgy6iCohNWrPI9ueroDfdZskyNb95H5FEAgJwbtX9JQO74hXvctGQFeNRnTdBtjgl8WEgG+NdWoNQmxVUyaajqi2GgOf+e59PGOVv9jztaagtxYhn3eIef1tbWFe6r7wQG3n5wf6nbQkaHgyAIgiDIAEKZOvINan1WQjpNZY7jTA1OAABuWSV5LFMPqaOjB8hljw4/+MA5frmrQt8YOBaLY6YWZ5URAP6lFYBal52U2SNvrCZWHX/5eAzbghXbnaTRWPpvSk5Ns5tuj8Viwl6EamtqMDocBEEQBEEGFsrUkW+0xGWmkSXHTZTuK85CaW9r6wFmAVFx5o6YqId4irrdeK3+OevU+oaa1h5mdlZWgJ+3AkBrQk5al5CqYP6BpdfSlK3stFCNkt919XrAonnzFy9bdvmSPw8PD6PD+TPtlVmx78If3w18lUVidCwIgiAIMuShTB35qiMFn9c5VkVPuX8ZaHtxTi6VRUvNQISS8SmzGiNhNE78yxLR5uT8XApWVlGcFbp+2goAxLS4/Dag1jSyy0vTUiMTyimA/DICgeC+cnVgQEDgvbvLlyxmdDj/AbWtsTL10aGdB8JKmNGkJwRBEAT5NyhTR77oyE+MbxcyUlPvq89Iq/+YHE/gMnMyksGRa6uaenglFeT6U3FqY3RUVhuHgrmlFAv8vBWAWJSU2MprPdNz0yQHa1VccsK7gm4GPMBhKTU9w266PY3WE/YiVFdbi9Hh/DdYMS19EVwnVtnERIbu5foRBEEQZMRBmTrSrysrO7GaQ9dYsW/6OLE49F5Kt4ndMkcRLGBZWJkxfFy8/WU9ydkfQt5TlFydnVWY4V9agZyfk1LGomOmxg8YockGxpwlbyNKyADU2szo5E4GPNRh40ZA4IK5LgsWL7565SIvLy+jw6GDtoSY+I6xRibKaPcrBEEQBPlXKFNH+lAK8dnl7EoGhpwAAOTatydvPeo023PQSpkFANi0x6vzNTXVtgEAALH08dm3rVYLfTZocMO/tnZXxmcXYOX1jfmxANgx2pPHc+Q9e/upquptSCWrPAdDHu2QR2hrW7VmXcC1qzfv3HZfvpSJiYnREdEFMSUmtlHY2FiL7vtqIQiCIMgIhHY+QvqxSMnriBbgA8MJHK2FiYVN8panbo5X5e/9MYcRs5uxPv7K/QOPOw2hKLGSyXzdlTlKgn1zjX/aSm1NjivpUbc3EO89FK/ZrHEyL//ycutYfdzdcpiujBxYaRmZG9aulVNQCg0P4xugofTWzIjQmIK6+iZWPbdV1pLQmBEZHl3Jb+o4TbP/tLbkv38Vlcs3ZaGNcm9iTa2IfxVfwaM1bYI8G0BL+sunH7LKyqu5Jm/fZCPSXfbhbmBYOlVvwQYXPX6AjqLIe/deF7KNW7TKUbXvOg0pE4+v4jEyUih4cSMqqZIqbuw410r529XFVELB55evPmfXUIR07OY66wljgVz08dn7jMrq6kbBqVsXicVevv6Ry3HLchOBAXleEARBEGQIQZk60gen4LjY36qlOLe8hsI7dfE8Ec6/X3BhGWt3xGN8SXlZJ4/t/P8rgv6TVqzgjMvXZnzzB+5xcy+EmLYJSskJobnK/+9m0O2TR46u3bRp5YplAziUzialq/jS3+t6x+KJW4lpd/YfeJhZkZfb+LpT/u46VRxAc/Kjy/6X70SUqXRPsFBWxQEApfDF8c2nOlc9sJ0AAMAuoy//7NzBx8yr5/C2JVzbdwZP6kiLSo6k6tlpGyWd3Xc1i0aIf5sVjTO08pnIDgBALoyJK6DxCUQc8sfxMZd+iggIfBR/8OH5ubI4AABq5Qd/71PR4q6bFy5ouL5mw8oillenHASBX8lU9v3yQw/4tkyPPbxuy+2cbnmu6QtMTNkG6rlBEARBkCECZerIt9j5ZHX4ZH/YjOOTkeP7w9a/3VJYWV74t4Mb8dra23fu3JOanHjjdpChnu7AdsbKja0uK++RsB/H9/LUg+4Flx5wPXSzO41hZQEAaEmMqdNcMccw7E27gpJk7w8qanVMTAZNer6JMmvfEaCmohokZ+izvrgQwr/+6mX2B0s/pNcIc+fcOvtJYe/19dTARR9zOgX7rssApTIGn0UVMLNc5btEkwfaPno7L7/x5mForvMGDRZq7ZvDq7d/1PW9u3+KEJb4ia2np7OTSAMAFn4h5uqyaiZlM6YXz9kXrrZ+mm1grYHSdARBEGQUQPPUEWRIyMjMcphuTyR2hoW/GPA0HQCgNe4Tvk3EQDQ/pMl602J9QVJ+QXGPuLKyOA4A+PRtraXz8PH1PMYmBtwAAECt+fQxuUvUaJx2/xzz5riYhE4hXZGSCNL0DTOV2VuTkjO7BVXYUyOY525wkGFpTknOpIlr68j1ZvbUupiYVKqGy9r5mjwAANwaqgrMmJ6O9g4aUCtCj3gGEqZt3zBFCAsdWfevhZRLOc2yEO4LNTaxS0KgMot34XrXdZeC/Zb3xYQgCIIgIxvK1BGE8YLu3Js/Z+6c+fNvXL/Kz/drFyb+o/bETzFNrJx1TSLzFhsLALTFf4puFjQ21e3Pw7ty8bGlbAamxr3z5ClFr8KiOwSMx+lzfjlCDL4Jx9tMEHCao8sN0JYQE9vChK3ulFvkqs0F0Bz3OaFDwNBUp+8OzbH4RIrypMmqvYk7UFoIbTTAioqL44jxQf4v6tWc5kzgrE19ftx9+aXGqT4XdlsKAQBAWwI+thVHrBW0dDVEGTqCIHSVk50NADQajdGBIMj3odkvCMJIHR0dO3fvTYqPu37rlqGB3qD1S0z5iK+m8Ux3WugghwOA9viPn+p5jMZ9GaymlETjczHaM4yFsQBArXh5KQjfyWM9zrD/dwQxNSauDnh1bOfYyeIAgJgcg69jGmM/381WEgsA7UmfY5u5DE0N+1bEEuJjEjrGTjdR6a/P2J6RkdPNomNqKkqOv/66gCpgVPXs4L5mqqjOQv9nk3VE2b6Eio+ro1GUJjtZiaLtkhAEoZc2AsH3hO+Tx495+flnOc84cPiQhoYGo4NCkH9CmTqCMExmds76NWslpaTDwl8I8PMPYs+kjE8xZVjNNcvsxmIBAIjJHz9Xs+mvNeovNEOtio7JAI11ppJYAGrVu4jYxm7g0Btn3F9xpSsHjy8DxSVudtLY3iNGx1VgFFe42vQdMSUaX8uqP86o72F1JMfENo2ZYNI/d4Za++FtNEHA3HmaAqbuc0E1ldNqnsd+x2/rwPR1lIWPLadxT5g3RweVdkQQhE6ehYQcOnBQXUcv4PkrASHh4MAA17nznGY4b9u+jZsHFSVDhhA0+wVBGOP2vQfzZs2eMXv2zYBrg5umA3Tlfv5ciDNycFTvnYlCSv3wqZxZx8RkTN+gNbUeH53crWBsJIuD9tTgx7W8HLV1zNom40T6bkApxkfnM2nbO+j1ps9dBTH4AiZ1a1vt3qFwUmZ0bBlWa5yJcHsLgQpAysDja3iNTPT6UnFi5qPbURQT93VOUlgahdLdA+SOtjbqlwg7KsprugAAKEWx+AKawGT76bKoUhCCIP9dYUHhfJd5vidObjtw1PvcxTFi4sw4nMsy92sh4aVVNZbmFs9CQhgdI4J8hTJ1BBlsnZ2dGzZu8Ttz5mpAwLo1qzCYwX4bUoo/R+cwaU6Y0FfVpSvr8+cSJlUjbdLbpx9KKABAzsnK6cTwC3JXfQy8+FnAXqcuuRDkdNTJ755HV1MBqJXRMRk9KhMmKPQegVKOj8kGRbPxSqx9PcTGFoCMikjho+fJBBqQ8/CxJWz6pkY8AABdZa+OewV1Oh85skidFQAnqaurgOuKeXTjczUFgNKU9fzc8UepBBoAUCti8JkUPrMpZoKD/CQhCDLSkEikE8eOOzk4KGnr3Xj+ymTSlG9bRcTFfc5d3OpzxPfESdd58wsLChkVJ4J8C81+GVpIJFJ1aVFazEdGBzLC1ZSVUKlmDOk6Ozdv/Zq1ouLiYS9fCAowZPceSvmnTxk9qitNpftGqclVlVVUGvb949RJO11kcACAERQWwpE/H1m8d7nX4U1TRT6/r+ymdX56Eme+e7EYFqg1MTGp3TJzTZV7J51Ta/ExKVSpeWZqfZPLaRQa4Fja0j41OnvMk8QBmVVax1As+eOtG60cDbkJqY3yC67ddtTk7x2hZ9N327E6ebvf1eVTX4wVYhcwWe6xa7MmHwBQ6/H4NDLfpMnjhQb/eUIQZASJioz09vQSHSt16dGzsTI/rEZsMmmKrrHp7cv+Tg4Oi93c1m1Yz8aGisIijMTU09PD6BiQr7Zs2vw8JIQHTZIbYAQCYfvOHStXrx7kfu89DD7i7b1s1er1awdvKH3vrt2SY8euXrvmxzehEkryG3jk5QS+TjChNuYkFeMUtOX5cQBAqc9Or+dXVxNl/eVuSW3tTNxc396eWF+Qk1dFFlTUUBT759ZZAF1NRVlZZR1cspqa0rx/vHI0LDT0/t17t+/d/dMDIAgy0lRWVHh7eqWmpa3esdfc1u4X71VWXHTuoGdNeZmXj7e5hcWARoggP4HG1IcWPT29bgrlnN8FRgcywulpaVvb2Axmj52dnXv2euA/f7p04/o4Y6PB7PoXYHlkVP7x6xArqGL4dcIJTlhV7zf3qmLj/ufqUHZhBV1hhR/dnlVATne83O/1gSAI8hMUCuXa1auX/C9aO864ediXk+s36rxKycr5Xg+KehG6a+cuHR0dL28vcQmJgQsVQX4EzVNHkAGXm5fv6OBUX18XFh429NJ0BEGQEQgfg59uM+3lq4hTN++s2+PxW2n6FxbT7W+9eM0rIj7N2uaS/0UKhUL3OBHk51CmjiAD62HwkzkzZkyztw8KvCkkhKZbIwiCDKzGhoYtmzavWbXK0dXt3J1Hiqrq/+VonFzc6/d4nAy4/eLlK7tptrF4PL3iRJBfgTJ1BBkoRCJxy7YdJ48d8796bcvG9YNf4wVBEGRUodFoQYGBluYWZMDcDIuwnzuPXh+8Smoa5+8GO8xfvHrlqq2bNzc2NNDlsAjyr1DqgCADIq+g0NHBqbqqKiw8zMzUmNHhIAiCjHDpaWnOjk6BQbcPXLi849BxPgE613bFYDD2c+fdDIsg0ZgszS1uBwXRaDT6doEg/w9l6ghCf4+ehMx2crK2tb0ddEtY+DeXYiIIgiC/o41A8Ni3f8E8VzMr2yvBoVr6hgPXF5+A4M7DJ3zOX7p1K2iGk3NGevrA9YUggGq/IAh9kUikffu9PryNOn/p8sTx4xgdDoIgyAgX8vTp4YOH1HX0rj8LHyMmPjidahsYXQ5+HhwY4Ooy32mG87bt27hReWVkYKAxdQShm4LCIidH54rystDwFyhNRxAEGVAF+QXz5rqc9D217cBR73MXBy1N78WMw7ksc78WEl5aVWMxxfxZSMhg9o6MHihTRxD6eBISOsvJycLK6s6dIJExYxgdDoIgyIhFJBJPHD3m7OiorKN/4/krk0lTGBWJiLi4z7mL2w4c9T1x0nXe/MKCQkZFgoxUaPbLcNZVmZFY3Nq/oIUJJ6xkoCzUt7sjqbEot7RTQEF5LA8OoL2iolNMkr08Jb2io/f2TBgch4ColLSUIHv/4aj1OQn5DZQeAAyfnIGGeO9+ldSarPjCJmoPAGA4JDR1Zf+kJO3IRiKRPLwOvH3911k//0kTxzM6HARBkJEsKjLS29NLdKzUpUfPxsrIMjocAACTSVN0jU1vX/Z3cnBY7Oa2bsN6NjY2RgeFjBAoUx/WWFh7cu9uO/Kqjsd4ued6J1k2LABAS8p934MX49kMTBXY2iqKa5hERTrb5HZcWKfAwkrNurT1aGSz3FQ3K8mWzPeReXy22w7sn6nMBgBYdh4eptS7x33uZAktuPrCZxIXAAANg6VVhB06nKO3ZfUsWdxP4xmNCouK165Zy8PLG/oyXHSoDqWfPHHi/r27g9YdiUTCYrE4/YuLJAAAIABJREFUHANeLZUVlQaGA7iYDEEQBqqsqPD29EpNS1u9Y6+5rR2jw/kbVja2ZRu3THVwOnfQ08rC0svH29zCgtFBISMBytSHM1ZhRR1ZASxgpR1Xb3Q05QQAoNZG+G71ijE8e++Q9RgsALUx5rT72lANJyVWYBdX1ZMVxAKzuv3abRs1WKmL7q123ut9TFHnsps8DoBLXNXUzkLH7156xZuImK2TpvICAG6MsoG65NhpE7cutuZn8AMeckKev/Dau9tl4eJtWzYyMw/Rd9OadWvnznMZtO6Ki4q2bt4iIyNz6uyZQev0W1xcXAzpF0GQgUOhUK5duXLR/6KN08ybh33/bMPRQSAlK+d7PSjqReiunbt0dHS8vL3EJSQYHRQyvA3R3AL5RaTshORaEJs7QY+z7y9t0aEvisBouf6Y3mkwWEHTZYumNzNpsgMAkDISk+uxsg4mCqwAgBVWUBDFvCnIL+0G+d7xT1JGfL2CmVTlx3cR0c1Tp/EDAFBrk/L4TOajNP1bJBLJ+8Ch1y/DT124YD5pIqPD+RkJSUkJSclB645IJAIAoa1NS1t70DpFEGQEw8fgPfbtY+PkOn3r7n/ccHRwWEy3N5k0+ca509OsbVavWbNsxXKGXGNERga0onRY6yrCxxbQ+A1MdfsTdcDx8HBhyAlhwWnt/X9iEzadqM8DANBVgI8t6hEzNNZgAwDoKk5MKqEJ6OqpsPQfsCC+XHKR+zQFbN27vz41AgAAtSE2GatnzDt4D2vIKy4pnTlzdn5eXujL8CGepg++3msLGAwTowNBEGTYa6iv37Jp85pVqxxd3c7deTQs0vRenFzc6/d4nAy4/eLlK7tptrF4PKMjQoYrlKkPZ5RKfExmN6eBieHX8W7OcbNdjXgI0ac27r6f0wEAAOzjbK0lsABAKcfjs6gChiZ6nABtuWHHPS5mysz32u4g3rcMlVIel8dnoG9gZa2Kbfzw+l0tFQAIcYndWsZ9Q/QIPA8Ld3ZwMJs48f69O2IiIowOZ8jR1tGZbmfnvnIVowNBEGQYo9FoQbduTbWwJAPmZliE/dx5GMzwy1iU1DTO3w22n79o9cpVWzdvbmxoYHREyPAz/F73yBfUenxsCpldz8RE6Ju/suusOHNhnSlvRZjHig1XEhqpX29fF4tPpTCzlD3fucBp4sSZPtmGh4LvHrSVxH29QSa7vj43q5qNlSZzy6eId3VUaE+MJ6iaSKBEHaCrq2vvfk/v/ft9z57bs3P7kJ2YzljMzMxnL5xfunwZowNBEGS4Sk9Lc3Z0Crx958CFyzsOHecTEGR0RH8Og8E4zJ0fEBpBpDJZmlvcDgqi0Wj/fjcE6Ycy9WGsJRafSMSpm5qK/j2NxoqM3+h3acdk/prIoxt23M4i9f29OTYmmcRutuqU3+WAq2e3TeVICDwXFF31NZVvjk1l0jHiBWBRtLLSZyF8jnhT2ZEW16BoIodm2JWUls2cOTsnKys0PMxyyiRGh4MgCDICEVoJHvv2L5jnamZleyU4VEt/hJRy4hcU3HXkhM/5S7duBc1wcs5IT2d0RMiwgTL14astMTa+FatsYiz9ZUy8oaaW3PtPfv0VJ8+uN+Wrf3ve73k5FQCgNSEmnoDTMjYRxQJOWHfWMmf17vxHd1+W9afqrYmJXRomY7AAgJOfamXM0RHzOuIjvlzCQJV10B/d0BIW/peTvb3JOLMHD+6Ji4kxOhwEQZARKOTpU0tz84qauuvPwl2WrsCOuOuW2gZGl4Ofj7O0cXWZ77nfo41AYHREyDCAMvVhi5gSi6/HSBsbq/Sn0ZSSv8Lju77cQMBkxfoZspimmI+JbQDQkYKPbcSqmphK9Sb2GAwWw0QDMpncdx2uIyWeoGwk2VcyZuxUa1MuUuyd03ECRjrsMGqRyeT9nj6ee3afOH1m356daMYLgiAI3RXkF8yb63LS99S2g8e8zvqPERNndEQDhRmHc1nmfi0kvLSqxmKK+bOQEEZHhAx1KFMfrkiZ+NgKEDE20fySRndmpcXXNlC+3gbLycnBBDhWFmYAUmZMfBWTnHFvfUYAYmbU2ywKi5y+Qd+QPCkzvl7G6Ms0F6yYudUEvu7SRnFj/VFbnrqsvGLmzNkZqanPw8OmWjBst+rhpbOzc+P69YG3bjE6EARBhgEikXji6DFnR0dlHf0bz1+ZTJzM6IgGg4i4uM+5i9sOHPU9cXK+y7zCgkJGR4QMXShTH6ZI2e8/FFDZNHV0vqTRpPzszDe3zocWf5mXnhAemc+iOWemGReQMt99LOgRMzLVYAOgNqU+9N53LRmnuWTnEr3eHY9JmR8yeLVVv25/jBWdbDNJkEvf2GiU1md8+ddrRzs7Q2Pjh4/uS4iP2AEeusvMyHgRGnbJz5/RgSAIMtRFRUZaW06NT0m99OjZ0g1bWNnY/v0+I4jJpCk3nr9S1NJzcnA4cew4iUT69/sgow+6lD/8UCs/3w28+/BeJgWweW/vhsjNsdcXwQK1Maeax9q0O3jHqvcamrKcbVlRLzN45h4+tEo4/urhp8/uZXf3cLw7s8b9VndTTSNIGq05f3S2jYYAFijFb4LuPX56PwFTExjC42RvJNY7A0Zwoo21ZY2J8Kgr+0Imkw8dORb65MkRX1+bqZaMDmeY6S1r0E2l/ustEQQZtSorKrw9vVLT0lbv2Gtua8focBiGlY1t2cYtUx2czh30tLKw9PT2srBEXzrI3zD19PQwOgbkq9uBQXGxsef8Lvz+XakN+UU0OcUxWGivzMoqrKdwisopK4v9p5krlJYWEh/fEN20+b/Q09J+8ixERlb2/5vKyyvWrVvPxMR04cJ5SUm0C/RvKyostLKwlJaRiXr3ltGxjAShz553dHYwOgrkzzk6ObGzj+K1Pv+HQqFcu3Llov9FG6eZSzZs5uQagV8xfybqRejF44d0tLU9vb0Gc2NpZIhDY+rDT1VVVcSrV99v+/jxm/8U5qd+pmO/QsLCdvb2dDzgEPRXZNTurdscZs7cs2sHCwvLv98B+T9y8vI3bt2UkpJidCAjxK6du4QlxopIoudzWEp8Hzl5yhSUqX+Bj8F77NvHxsl1+tbdYbTh6OCwmG5vPHHyjXOnplnbrF67ZvmKFTgcqpCMoEx9GGpvb09NTR38fqWlZQa/00FDoVAOHz0eEvzo8PET06ynMjqc4W3iJFRvnm44uHlW+ZyQVlJldCDIn3AzRclon4b6+sOHDr97+3bZxm3TZ88djhuODgIubu4Nez1tnGee9fF4+viJz8GDJqYmjA4KYTCUqQ8/SkpKp8+eZXQUI0plVdW6NeupNOqzsDCpseiaI4IgCN3QaLQ7QUGnTp4yM7e8GRYxrDccHRxKahrn7waHPbq/ZtWqyVOm7N23V1BI6N/vhoxQ6EctMtq9jnrrYGunoa0dHPwQpekIgiB0lJ6W5uzoFHj7zoELl3ccOo7S9F+EwWAc5s4PCI0g0ZgszS1uBwX1LtZHRiE0po6MXhQK5ejxk08e3j9w5JidrTWjwxk5GhsauLi5WVlH+9a2CDKaEVoJvidOPHsa4rpq7exFS0behqODgF9QcNeRE6kJcecOeAY/DD54+KCGpiajg0IGGxpTR0aphobGuXPnxcZEPw0NRWk6HZWVlU2ZOMl92XJGB4IgCMM8ffLE0ty8oqbu+rNwl6UrUJr+X2gbGF0Ofj5uqo2ry3zP/R5tBAKjI0IGFcrUkdFIbKzUSnd3NQ2Nx48fyUiNZXQ4I0p1VVVnZ2d2djajA0EQhAEK8gvmzXU5dfL0toPHvM76jxFD28bRATMO57LM/VpIeGlVjcUU82chIYyOCBk86GcuMho1NzZu3Lpt0YL5jA5k5EIbNTAMlVhXXFVWXl/TyW9kozxmRO5c1t6Qm11RUdHYyCHvaC1Dn2lWJEJpXmlRQXU5k8wMZ6X/tBPFKEUkEi+cPRcYGDhzoZuP//U/3XC0vTYnq7i0oq6RU22GtQIdNi0lNZfkFRUUlJWB4uwZGoyv3k6uTXz1MbGExK1uamsh/zubgIuIi/ucu4h//9b3kPeD+w8OHDworyA/YHEiQwUaU0dGI1Jnx0QzU0ZHMQJ1d3fHx8UBAJlMjouNZXQ4oxOhJivqxYFVfn4fW9kHN02nNJZn5DSTB74jantrTer7M7tvR5Zi6fUlRqmrTAt76rXzTmQFFm2l8PsiX7+2srCMT0m99OjZ0g1b/jRNB6C2N1elvvTddeFVCZYur19KXWly6K092/1fVTAzfO0MtRZ/1v3w405NB+3GwA3nHud3//4xTCZNufH8laKWnpODw4ljx0kkEv3jRIYSlKmPHlRiQ3E6Pja7EW3zjgyIxIQE++l2L/967XcveNnm7StXuG/dvLmxoYHRcY02/LJGChzdTJx641QGdfiQXHjT3cPN+ejF+AHP1bGi8lpjsESspL6xKL12hsFJKeuPZe3GiugajkWZ+u+orKhYsWz53j17l23e4Xs9aKzMd/Z+/g1YURVdEeZOrJyRiQRdTi5OStNQio2CFTcwkmXwmSUV3N9zMkrOdYeLsqCcyeJdc82l/2xiAysb27KNWy4+DIlPSraysIyKjKRzpMhQgjL1kYRSn5WQWdP1/baiD9d3zXdaHpgNI/JqOMJITU1NO7ZtX7Zkqc3MuX73n6hq6Ti6uN4Me02kovpiDEDOTshv5FAyMh7cGRxYPkUjRTV9NVWRQfhe6UyNzeuUUtZTouMWjm1J8UXdosoGmr+ZzpFrXp9+9rGZfoEMGxQK5aKf3zRrG35RiZthEea2dnQ5bHsSPr1DSstQiV55dWtiXHa3qLaR5u8PqZMrXp26844+J5da8TzwUqyE8zw9PgDcWGOXheNk/tNDlJKV871x223D1t27drsvW15ZUUGXOJGhBmXqIwe15sn+WbNcdgdXfm/QHCenK8PVxW44zphv0CNDRq6enp779+5NNbdoJXbdDI1wdl30ZevB3vpiPucv3bwZONN5RkZGBmNDHTXIZQn4GpyepqHQ4H6+YwUn79wTeHuxldTAr38iFiTEEQQN1dTY6XfMtrykJBKvgZom5+/ci1wbdfjckUSs5Kib2B4THTPdZtrLv16fvnV33R4PTi56XcEhZsfFtQgb6ajT6+S2ZcQnEvkMdXR+68wCALky4pCXdyJ2LD1OLrUBf/1KdIee2RQZ+r5BLO0cboa95hERn2Ztc9Hfn0Kh0PXwCOOhFaXDGqUszOdUyczj63RYALCC41y3bzWWHd+/hOxvrdCRiMd3aC01GZkLzBBGyMrM2rd3b0srYf/J83om35/3r21gdOVxaHBgwPy5Ls4zZmzbvo2bh2eQ4xyxOouSnj3JrOOQ0DYdC9VkNWv1MVigFGXE5WLUt6kLYwGI9Rmf82r5FMcZjPlb2tNRl/Q6Fp/VROaTMnMYbyjZNzJNrK/Mz6koKanHakwxwWVGfq7BKOramo/l/GkTQHdTQX5GVmVJUS3O0GGeGXdbVnwEvrKhvo1Fz3rR1DHQWPzxVUY1n7q1jZzANx9AxMrC5JSy2i4uBRNtTfHfGF3syspKquLQNRQvCQ//kNJIE1Oxnm2o8Ld0ikbIS3vzoZQormFhiC2ILSXLGE7W4PjRkwYAxLTslAYWbRMVboC2jPjX6S20HgAmjKCWyRR1TgAAakdxdOzb6LK6bl4N2ynTdNnzgu/6X4nGF3cJT25PjCrks5Hn/4OzOPw01NcfOnjo/bt3yzZumz577pcf5/RBykqOr+TUM5QuDn/4NrmOJqZtO2fC31f4Ulvz4l+/LyBKGFgZMufh88myEyw0uACgsyj68eOkGg5pPVM5qCFrWOuKYIGYmprYwKZrosUNQMj48CqtuffMCmlPtlTv/3lBbSuKfh/5uaC2W0DTdrq9HmfOo0tnL0d+LiaOmUKIj8wRmKbyqye3ozoh4t3nrHoyn/xEx6nGkixALv0Y/OlTRFhwcY+oQlvs23xBK0W6zkzj4ubesNfTxnnmWR+Pp4+f+Bw8aGJqQs8OEIZCY+rDFaUx49XFbat2RAvpKvd9w+GE1aY42JlK477XSkrDxzWqmJhKfr1YTG2rLqslMiJ4ZLhrb2/38fZ2mTPHcJL51SdhP0rTe/XWF7se8rK0qsbS3ALVF6MPauXnoyseFSlPnu8sVnHlvM/rFnYsAHRXRmfmgLTROOHuIvyZdaf37Lmyc2nA87Kv04+6SuLOrPJ73CI9bZXzVLZ4r6U3Iqp6W2mt1VWxATcOHI7Pz3x55kpCStSr42t8T4Q3U3/WBADk1ub2vOfB5y/ntvOxAQDrWEXZ1oSAgNRmTl5S+mvvddcvXnpycntgyJf1c5S6D2d8F7gERFT09FRH+zhumWm3y8Vur1dw3S+so6GUxOYU0zgbIu8ERJWVJscGHT2/dtebsi9DiZRGvP/pNT4JHRJyUi2fru4L2LH9VTqR+cdPGgBQCuNzq3DyBka8WABueeGW0NDQlE4+NW0jFU4AoFalXV935Ng7jO7sqYak6INr7kQ2drOIqU4yFMJiRQzHS/ELcP7uiO0wRKPRgm7dmmpuQWHC3gyLsJ87j85pOgC5GJ9aSONpeO13NbKoOOndjSNeK3aElX49uXWf/fYv8/7UIaEi3Rxxce/pjduCU4k4AKBWvvZedr1Q2XbxDKnyy977IhrYsQBAzo9Pr8SpGhvzYwF45MVaQu88TWnnVzcy6V/HQa2Ku7R224G3GP05TkbEKI/VF/9qpLCIaZsbiWCxkibj5fkFuH7x5JJKPpxwP3C/RcF+9SIbto+73U6/rKICuQfHJ6YozYvBSugZSwsIcNKhoM13KKlpnL8b7OC6eM2qVVs2oTVCIwfK1IcpUtqL+0/D3uXiOKtfXH5Z0lH49vrO6bqmbjdzaf/fSgHoyo3Bl8mYmiiyAgCQil767vY8c/ux32orx8Nvmxj8YJDhJSw0dKq5RX5R6bWnL1zd1+BYfmkwtLe+2Bbvw74nTrrOm19YUDjQcY5wLdFxbwmSBpPGCoupzlk1yVxJnBUAqE3xMUVUJXV9TNzlwIZxPvu8Z4the5iw/b/QyblR+5cE5I5fuMdNS1aAR33WBN3mmMCHhWQAAIyolpIIBw3YKARWvR3n1hw8bmeAbXz3V2bHz5oAgENWT16QmYKRU9WXxwEACzemtqyhR0LDkC/20mPqzAsehxfI4oC5/6XSkejn73mpWGHjhr0rzWessLeSbq8gCE92tZluJPDvF/0oDQn4Mqqg6IQVq3xPrjp6w32WLFPjm/cReRQAAGpz9KmzXq+F3U8sdZ2maeao1pNZTBFX1ldj+eGTBgCU2qS4SiYNVX0xDDTn3/N82jhnq/9xR0ttIU4sUOuSzq3zjxCbeWjPZF05IS62nh5iF4nGKW+mwtra2COpYTNnnIWR6Ehfh5qelubk4Bh4+84Bvys7Dh3nExAcgE4otXH4QqqgxOSVu8+d2nX65s55spj6N+HheWQAAGrDx5OeeyLE1vpuXmxrMNFJl5aRQ5HQMlJjBYCWzx+iCLJGk+XGiGnPX207VUmaDQAoVfFxJUwaOoZiWGjODPIIbJhz+PoJV2ttES4sAAC1LsZ3zaGXYm6+e2315UR52Ht6iCQijVtxvBZra13PWH27uRbWxpK/cnLJuaG7Fp/Omrjea4mhnACf5mwrg+ao6w9yyFwyJraGPMR6mojOtDkWUw3E6bi64u8wGIzD3PkBoREkGpOluUVQYCBaIzQCoNkvwxSbvuuaSW8fJyq5HzpsxwcAY63Ub5z4pGGqzf69Vko+PiZ3jMlWTTaA5tjLW7xiTY6dW6mF/VT/9ElSTj1lisCAfXIgI0hJcbHHfo/CwsIN+73NzKf+wRFMJ5vrmYy7fdnfycFhsZvbug3r2f64mtsoh2XB4Qhpzx+VTFwmwy6jYQPiLADUxqz4pO6xDrypDxvGrbM34m94mFvPpGykLogBACCXPTr84APnJD9Xhb4xQiwWx0wtziojgKIQALTmJCV1celNXOgkxw0AQnyCbEAmtLdTgaf9x01YAEJuckq3qI2qSu/ZJOTExRGFzQSKnrdN2TBdW6D9dWFNj7ixghgzAEB7RuiDok5JC8dpY3AAQG1vbenpYeJTd5pg+AtTk6n1WQnpNJUljjM1OAEAuGWV5LFMpaSOjh4AWsXzO4fvgdP1ORPFMABAbSc0toKAXd/s8+8+aQBArctOyuyRX6ImVh1/+WL2mAUrtmtxfekv4tithwTDo2t1BbHQmf3mzrMGSYd544UBWnPiE7sEJqtp/jBsYRGRVavXYpiYfvf0DjUUCiU7Pc1t7UZX99UDuOEotT45Lo2mtnTh3N6659xKygpYplJiR3sPALX8mb/3XZgVsHyKGBYAqO3NDa0gOFFHq/fksuKYCXFPHuZPWa7ILqM3HaRYAKh1qQkZPYpLdcSrP17wTxFduH2P1jfT76g1L4+euds28fQ6U0EsdGaF3XxWM9Zx5WRhgJa02ASi4BQdrV+cLk8uvHfoyhtO22uuqn0vHSwzjrm7MKuoFdSFibkJSa1ceprag3HlpXeNUGpC3ObF84MfPnoWFjoInSIDB2Xqw1YLPjoBa+jRv0C0JSEhncNgpgH391qpNdEx6bwmS3XZoTHq5G7/zjn33bS4OnICA0LbJm2ylkNpOvIvukhd/n4Xbly/4TRvwb4zF9nY/3yxV299sakOTucOeFhZWHr5eJtbWNAx1NGCb4r5TPWkgLPXAzR3rTFSNtAGACDEZiS1s4uV1/Dtnm8khIH67ITkbuk5qnIsAAAdMVEP8RT1zeO/yUIbalp7mNlZe4eWO1Oykpu4xjuPk8UBAFCbCc0kJg5hPl7sz5oAoCM5K6mFy8BEkQMAADoS0xMamTnrCcKrXfQEANpyYmM6BCaoafS+bGjdFEoPVlyoN01uT0yJrezht1b8xVIfLXGZaWTJ2ROl+25OaW9r6wFmAVFxZmhICDiXgLVbN1e/7/cfIT43i8KhZ6zM/eMnDQBaE3LSuoQsBPMPLH3WtsD7jNbXadHEhIib4a1KayabcDZlhkX4Hf/QZrn48A59QYCOpMzkZjYdY+UfLzikUCgu8+Zxcg379aZtBMK9IOqrkGBFNXXTyeYD1U1LbHIyWWbeRPn+k0sgtNGAWVhMghkaPl85+wlj77FAv+/ThxCXnkHhMjTW7E29+abYu6hHXzlz6orm8Y3GWsY6AACt8akpXSLWgpn7lwS1Lbh4Uetvq2SI8U+vvmhWWTt9HGdDeuiTM8dftVluPLnTTBCgPSk5sZlD31jzFyeUt0eH3o3p0toyVffrm6umqrUHx8bKCkDOS0spZ9ZarDFYi3RqqiqDb17n5eNbvmLFIHWJDBiUqQ9XhNjoOLLeWmOBvv/GRSd0620w4v1uazM+JgVn5GHES8m5dPVR83gvM+Kb6163gzPF1l3c44ISdeTn3r977+XhITBG1O/eYxkFRbocs7e+WGTY8107d+no6Hh5e4lLSNDlyKMGj9oST4cUt+Agnyc6txaOEwSAjuTonFZg0pxiMU2eGQAICVmpHQLmJrKsAABdGZ8yqzEStuO+XnxvTs7PpWBlFXsngZCz8dm1/JoTzPrSibb04oJuNh0DRTYgp/ywCQC6MvHZ9VxKBga9A4ZdGZ+za3s4LR2srGWZAaAjMT2unl3XpD+j5dGwcRT/8FdBWnX3WLbcIP/PtXITdm80Ffml1e4dKfi8zrEmesr9D6K9OCeXyqKlZiBCK74dFVErMX+mVt/iP2rd+1fpzWwKBob96dZ3njQAIKbF5bcBpqaRXUuadisyodzVrv9jsSslIqmYxqVb9fm0ZztVRGHW+QNm2oK9z2dWTE4dq6KB0U/S8JampskTx4uKiv7KQxvi5rvMeRYScthzj4qm9to9HqLi9H/DtiXi0zvGTjFU6f/R1p6XnUtl0dYxEukpCnr+slZm0UzD/pNbHfUyoYlNzaj/aw94dN29XBMX37jhfUs/aN14QQDoTI7LIAC2qpFTR5p2LfJT6QIXha9feKSkiM+FNB6DqtcnPAhUETWXC5cnaAuzAQCQMmNSa1jVlxv/YmpNSv+UWImRtTeT+nL4pqSsHAqznJI0G3RXxqfnMcmvMRAe+IoO3RTKg4Br965dmjlr5oWzp9AK/hEAzVMfpjqSomMImiYmYr3v+47k6FiClqlx38fAP1pb4/AJ3QbjjPmolR/fJ3WLsTUn5ZNlZ/o+feS7WP8XpoUio1Z1dfXqlau2bdnqunr96Vt36ZWmf9FXX2yM2DRrm0v+F1F9sV9FpQIAcGjbbtugwZ4beelOIRkAOvLjYgk4bSv32b1bxpBSY3JaBFUMdHsHmMm1VU09vJIKX36bUxujo7LaOBTMLaVYAIBcnhhbx6avptuXCrXERKa3iBvZWQpif9IEAOSyxNh6Fl01/d5WUnEcvh6rPtF1em9Vla6Mjxm17N9mtLwTdm07YF1/YYWvx8nPnZOWXLm9bJrsr40YdOQnxrcLGan1l/Cj1X9MjidwmTkZyWAa8B8KKNJqhqp9eV5b3OuHb9pxWqp6YzA/fNIAgFiUlNjKaz3Tc9MkB2tVXHLCu4L+la/U5pKCJhqnivPeRbuOrdm7xcq8L00HIJclxtVhtVT1hUfP96ijk1PkmyjZsRLLnWzvXLnYTec3bEdWXBxhjLFu37UXoNZ9jMG38k5ymiSHqf38IZMso2Os1vf0E+JC7r5pxWnpGI7BwpeTqzNn70YDjtxn527nkAGAmBOf0Mxn43Zos42zjS5L0qc33+4JSm0sKqijcWrN3rd+//G9Xludp/al6QDkwrjYKqyWjtGvptZdNVX1PbyySnL9vzGo9Z+ikggcalMt5VmoLYnxuVRZDV3ZgR4cTY6NWTHDLv5d5L0HDzy9vVGaPjKMnk+YkYWUHo2vUzLtuxANpIwYfJ2yaf+Obv9o7UjCx7TJc3swAAAgAElEQVRpmpqMwVLq6htobPKTFi6e62iuKYbmByM/1N3dffXyFZupVux8grdevLZycB6gjnrri50MuP3i5Ss72+lxsbED1NEI0pF85VxiJwAAi/IcWxspWnFhFRmAmJaRUMWsa2uq0JstEAsT4ls4DdR1+76tsSyszBg+Lt7+bIGc/SHkPUXJ1dlZhRkAKKVZCblYTWPV3ktxnalRD6OYp6yzNxP4WRMAUIqzEvIxqsZqgsTODgByXkZcIVbXwaxvNgupMCa6gVlb7ZuMtj3x2vWzBfqnH+44dMx960oTFf5f/SrqyspOrObQNVbsm+5LLA69l9JtYrfMUQRLri0v68aOERDpnZ9Tl3zDP66ailU0UhMndbS1ff9JAwByfk5KGYuOmRo/YIQmGxhzlryNKCEDUGszo5PaKd09QCZ2tH9dl9dZWVdHBkpxVkIeKBmriUMHof03zt4wx83D4+XjfffB/bh3kStm2CXHxtDt0KTM5PhqLj1j9b6fdMT8p3diuk1cVjpJYMmVZWUU7Bhhsb6TG3PlwrsqKrOKsa44qY1AiPE7+7kTAIBVZe5sO2lqYUFpFwA5Py2pjEXPTE8AsGMmTzDlzIuMyCcDUGuTPia1A41C6QYgd7a3fy041FlZVUsGSnFKXB6omOhKQFvrL51cLAsrDsPH882b6+Wjd2SVBYtmqzJDW3pCMlnUQEd1AL9zm+rrD+3Y7L153fJlSx+HPFXXUB+4vpBBhjL1YYlSlpxaKqanz4t/+qaUAuQ8fGy5jJEu9c2rNOL/tZLS8bH1KiZ6HZ8/lotIj2VrT4n5VEMFgK7SqGuXXxWiUUzknxITEuyn24U8Dz1xLXCThw/XwA/M9NYXs5+3cOUK962bUX2xn6LUVKa9zcnqAAAAKqWbyqKkIskClHx8VgWz/LiJQr0/0cmFuaklWA0juernb/E1NAA27fHqfE1NtW0AAEAsfXz2bavVQp8NvWv3aPWxWdk90vrGAlgAam2S374omL90i5Mo7mdNAECrwWfn9IjpqHVG3E8qJ3WXRmcWMMkYjxPuCyM7I64EFA0USO8+xpR2AwCQq+P+yqlIeH1w88WT/pFR8dWEXyjN2PvQC/HZ5exKBoacAADk2rcnbz3qNNtz0EqZBYCJhZUVKEU5n9LryuLfnNwfzakp1o0R0dWivr4bm1f03ScNALor47MLsPL6xvxYAOwY7cnjOfKevf1UVfU2pJJVWUpTV4y5K/v5zYxaCgCFkBv22C+4sJ0KxJzSQpqQuhZH4t13Sc3dPwl6JNLQ0Hj89MmypUu8N687vHNLEz3esOQCfGopu4Zx77UXcmWk79l7xKleh2eo9p1cJkph2vu0qtK40CP7oji1pLoxEnra3X/deZdbXJryNjW9/+RSutlUVGVZobsiLiUPq2pkIoAFwI4xtJzAmR0S+r6qLPJpKasCF+DEtHWlmLtSngQk1lAAKC05oTfPPMppo0JnTkE+TURLmzP+TnjCL51cdp3xevzNdf1vroIHp1+0Wq0/ulGfB4CYnp7Sym8yQWNgVitQqdQnt2+52VvxsLG8fhM1z3U+0/BfwYx8C2XqwxK1uaWluzH+7uM2bTNpHHSVFJWSG5Nf50uaabH/s5Xakp9bSq5LiigS0lGUtlu5ehzp0UanmfPdlm97QJy4wEYezVJHvmpqatqxbfuyJUttZs71u/9ERVNr0LrurS92M+w1kcpkaW5xOygI1Rf7PnJBVXVjwgWPkNAXH254PEnXnL15oSwLuTI+upJJXcNobN+wXnd1QzWNkvv8RaaYvokoBgAjZjdjvUX9/QOPHwU9Prb7Wbn5uivHp8j3jfO1JuALSawdea+jXz8L8/WKIrtsOrlNZwz2500AQKmqaKB010TdzROfMV4FWxcXXdKjom7QvxEjuaqhltZT9eF9lrCeqTQzAJBrCFQZnek20tj8pAdnb+5csHfhmrCU1l967CxS8jqijfjA8Nv+d7xXXw7BWJ66uchcghkAgE3OwlGJpy7x5Nzd6/2rNDcvMmZp76bVhvvhOewmqtR870kDAGprclxJj7qqgXjv1yGv2axxMtUfvNwe1huP1+dh0VrkstiILfv6ybkWW2fYnXrUobtyo6kcO41IotCoDW/PPi3VmTJ57Chc8oXBYOYvcH39JoqbFedmN/Xpnf9cEJBFWlVftD761qObfhf3rjoWjHHyu7V+at/JVbFy0uSt+3RkzrIVfmXam9ePY2ml0CrDLrzlsJ+mWl1W1fDp9P6gp2GvLu+/laq1dOciJRZqU0JcXo+GjpF47ytVYMIsS9nqV3sWXasznmrEAwCsOovdlxtzZF7b42i+YJrtvrsdpms3mSuwUzuJXTRqzeszQcU60y1+6eRiJezdtljUBPncvBd488CuO6UW+wN9pyuyAQA5PzGjduwEm3F03eyoT3Za6lqXGX89eXjtxvUTJ30FBQeidCbCYEw9PT2MjgH56nZgUFxs7Dm/C/92Q2J1bgVWRnFM75Q9UlVWAUVKQ5rru63EyqxCqpSGVF8rpaUsu5AgqKwhMezLEfwxPS3tJ89CZGRlGR3IENLT0/Pg/v0Tx44bmE1YvX2PgLAwA4NJTYg76+PBzcV54NBBDQ0NBkbCcIaGJlvPXJFWUv36J2J5ZQO/hCi1Lj+rhsgnoaIq+P3Kb8S6xE8V7FqaaiLf/hyntJSUl3XyyCsLcX47Bbc5xmPapWzHHVcWsRdXYyVUpEW4fqEJAACoDSVJxTgVPQnu787ppXaUF7RyyYnz4wAA2pLCvQ/nGx9aNVuZFagd5cmZH56G3giu0vI67jtP8JcmBRNbinPLayi8cmqSIpz/GG0i1WSW1OJElJT42QGozeWJyYQxBuoyPL/8pAEAUOpzy9oEpeSEvlShJ5RmlVZ2sktpyEny9PdIbStOr2dXlhP9WR0kN1P1958+jIwVpT+REB+/f99+Jizzxv0+qlra/36HHyI2FuWUVFP45NVlRDn/8XIgVmXm1+LEVZSE2AGozcXxyS0iBrqyPEAsL6nnlxHrrsrNriTySquqjfnBlxu5LreIICinIPRNmSFyS0lmQXknh4ym8lie/h6prYVpNewqyuK/V+SK3FJSXNLBp6DSV6wdAIBScGXBrlTH02fmj6XrsFhba+vV0yfevgxbv2G929KlzANXOhNhNJSpDy2/nKkj/wnK1P8hKzNr3969La2EDfu8f77h6KDpplCCAwNuX/ZznjFj2/Zto3Zp1Hcy9YHQHnVt7rp0M/9je6b8cy7tT5p+X0f4xk1HyPNCLpp/HfvrSDw07WrrxsNHZgpgia1l5QTyD76VmDh5ZSR5htUa+FGSqQNAd3f3zRs3zp87b25rt3zTdm5e3n+/z3BCbCotb+n64StTQE6S79tXJrkuN6mST09XpCvGf8UF3v3XXdXpNkm9p6fn1dPHV08dNzYx3u/pMRpeXaMc+hGGIKNae3v7qZMngx8+mrd85Ry35b+44eggYMbhXJa5T5lm53f0gKW5xZ59ex2dnBgd1IhFiItMr2eV1dL+/2ziJ01/gEXBQJHz/IfAF/JuVtL8OCDXFUUF/JWvP2ePjQAWgFL0xnPO43Ty9+/MZrE05JK5ED3iQOiNmZl5ubu7nYPDAW+fxdOnum/dae00Y+RMmKYUhe2eFZDyw1fmlr+u2H9zGZL4/uQe7+bFAbt5Qh7B0sOz6ZemF+Xlnj3g0drUePrs6QkTJ9LrsMhQhsbUhxY0pj440Jh6r7DQ0EMHDiqoqq/f6ykqIcnocH4o5t2bC4d9pKTG+hw4IK8gz+hwBtWAj6lTG/OjQtMyC5vaaTh+aXFFQ2NL3d7tjH7W9B905L9+H/6moLIdw87FxsLKJT9hnPVkKf5hNVT+y0bPmPq3Prx/7+nhyS8kvHG/j6yiEqPDYYTW9Kgnn+qYBST1LMapC9HlxU3s6Ljpd/ZF8IPlK1asXL2KtW+7MmTkQ2PqCDIalRQXe+z3KCws3LDf28x8KqPD+Remk831TMbdvuzv5OCw2M1t3Yb1bGyoxiidYAUVrdwUrX6z6T/gVJxqu3Gov+SQ/2LipEmvIv665H9x3fxZdrNd3NZuZOf88bKAEYlX02KJJh2P9+6v8ItHD6moqoS9DJeSkqLjkZGhD9V+QZDRpYvUdfrkSfvpdtLKagGhEUM/Te/Fysa2bOOWiw9D4hKTrCws30RFMToiBEF+iJWVdePmTWEvw6uLC9zsrN79Fc7oiIarytKSne5LLp844uXtFXDrJkrTRyGUqSPIKPL+3XsbK6tPMXF+9x6v2LKDjf33KhswnJSsnO+N224btu7auct9+YqqykpGR4QgyA9JS0vfDLzl6e15+fjhne5LKktLGB3RcELu6rrpd9Z9loO2usrrqEjraTaMjghhDJSpI8ioUF1dvXrlqm1btrquXn/61l0ZBUVGR/TnLO0cboa95hkjZmNlfcn/IoXOW5ojCEJPNtOmRURFaqkpu89yuOl3ltzVxeiIhoG4j++XOU7LjMc/Dnm6a88eDg4ORkeEMAzK1BFkhOvu7r56+YrNVCt2PsFbL15bOTgzOiI64OLm3rDX89TNOy9evrKbZhuLxzM6IgRBfoiTk3P33r2Pnz7JjMcvc7KN+/ie0RENXfU11Z4b1xzfs2PjxvUPHj1UUhqVS3KRb6AVpQgykiUmJOzbuw/DjDtxLXAwNxwdHEpqGufvBoc9ur965aop5lP27N0rKDTSavg119ftc3VkdBTIn2toaBhttV9+RElZ+cGjh0+Cg4/u2aGhb7B21z5hUTFGBzWEULu7HwUG3LnkZ+/ocOZtFO9Iq0mP/CGUqSPIyNTU1HT00OGIiIgl6zc7zluAwYzMC2gYDMZh7vwJltaXfY9amlts3b5tvqvrSHqwvLw8x3xPqKoO8M5HyMCYNH6CAD8/o6MYWmbMmmUxdeqJY8eXOkxbsHrtrIVLsGh/TYC0xPizBzzYWVmD7t7W0v4v+7wiIw16eyDISNPT03P/7j3fEycMzCbcDI0QEBb+9/sMc/yCgruOnEhNiDvr4/E4+PGBQwc1NDQYHRR9sLGxSUhISEgO3Wr3yE/gcDgMdmSWiv8veHl5Dx4+NGfunH1790U8e7Jp/wFNfQNGB8UwLU2Nl04cjXkXtWXbVtcFI3ZUBflj6AWBICNKVmbWTOcZV69d33/y/N7jp0dDmv6FtoHRlcehphbW8+e6eO73aCMQGB0RgiA/pKWtHfL82aIFrvvWuR/bs72lqZHREQ02Go327P4dNzsrdmxP5JuohYsWoTQd+X/oNYEgI0R7e7uPt7fLnDmGk8yvPgnTMzFldEQMwIzDuSxzvx7ysrSqxtLc4llICKMjQhDkhzAYzMLFi19HRbIy9bjZWT1/cJdGozE6qEGSl5mxbt7MsHtBFy9fOnn69MhbY4PQC8rUhy9qW0VRZVvfv1uqqluo/2yvLqsl/vNOxLb2f1bIIrdU5qfn1XRBe2lmTg2qnzUshT0PnWpukV9Ueu3pC1f3NTgWFkZHxEgi4uI+5y5u8T7se+Kk67z5hQWFjI4IQZAfEhIWPnXm9MXLl0LvBq6fPysvK4PREQ2s9ra2swc8ty5dYD/dNuxluLGJCaMjQoY0lKkPS225bwP3zp5kNt3zWRUVANrCfWynuJ1LJvc2k4pe+u72PHP7sd9qK8fDb5v67pTxwHv9Os/TZ4+cOuPpYjrzTFIXAKX08/1j7tOmb3mcHXtqmf30uT5hzQx7WMifKCkuXrRg4ZEjRzbs9z7kf1VUAk1o7mM62fzG81cKmrpODg6+x0+QSCRGR4QgyA8Zm5iEvQyfPs1m65IF5w56tbe1MTqiARHx/KnbdMuOpvqXEX+tXL0Kh8MxOiJkqEOZ+rDErTxl0a5VNqLU+to6KgBwT1yy2UIYmAAAmmMv/4+9uw6IKvvbAH5gmKBbUkBAumNolRQl7O7u7kKxu7Eba0UUFAVJQWBmSEGkEZTudmCGO7x/gLv+9nVN4BLfz1+7OHPuAwrzcObcc5at8BGctmnDsgVuBqT0pMxKNkI1CZfW7nqtvOz4UY+tCyWTHyaR9Uw0yQgRFc0tFShsWX0yzb9aWVfD3ESNH+dPDvys1pbWUydOuLm4Kqpr3XwebGXniHeiXodMoSxYs/7iI7+4xCQne4fwsDC8EwEA/hORSFy6fFlg8Kum6oq5Lg7Bz57inagrfczLXT93xt0LZ48eO3bpymVZWVm8E4G+AfZ+6bMoSooKXHGfmzkIISQgKqA9wkyThKrDTmy78Hnyw7l6As2Zd24+bxy+dqQyd+FTzw03+dY+ma7Fj1BrdXUNkjS3NOg4SL6KzkjmlzSuktrosV2HguunBH5BZMTr3R4e4lIyXg98+/SBoz1AYYjy8Rt3QwOebd2y1cDAYI/nHlk5ObxDdYem4vT3OQVFJVX8BpOdtbrmu7ml+kNWZnZu3kekPX2CsWCXjPlbMQry8j9+KizhHuo+UgemE/o1WVnZS1cuvw6P2LN7d9CTx2t2eSqqqOId6o+0MJl3Lp7zf3B33vx5y1eupFDgpRb8AphT77OI4sLCXJ+bmzGEUE1seJPBaA0yO9Pnqk+t9VgrZvj1PYvXPRddefHoVOWmyCunw6RmLXaRIyCE2IVx8TkCVEtjAYQQQnXx9ITmlmYV+wlQ0/uI0tLSZUuWbtywceby1adu34ea/pMcXN1vBYQIDZJxdhp56cJFNpuNd6KuhjVWF6f4HNiyL6CAp6s2BmSX5yY+O7dhw4EXhcTuvveBXZ2dnFHxzTtlWkuyEkKubl217WEGB+aXBoYRdrZBIcGWZibLp46/cvJoC/Pfd131FdFhwfPcnD5lpT8LeL5+40ao6eBXQVPvuyiCgrzNzZ/bsdII/0+aYy1FEVb8JjKpTYZSm5TDGjLh+FOf43OMxVBFqM/LWuvJE7VICCHETPF9mshjYk7tOPysOZHGqOFRdxlnLYLrJwN+Rltb29XLV5wdnXhFxG+/CHFyH4d3oj5GQFBw9Y7dJ2/dexEY5DpqNINOxztRlyLI6BlLET8T1M3Nlbpq7StR0cRcgdLGo0Q1UyN30Zjf1pp6Yf6Yse5zTjC+cT8BWdlypKYYh6BiYdnNMUAvQqFQ1m/c+Czg+aes9HluTtFhwXgn+jWlRYU7li86t3/P9h3b79z1HqKsjHci0CdBU++7uAWFBNs+N+W98CvRH2MqjBBiV1RWcSgqw2fNmTLGTlem4xf3lndJb5lDdbXFCQgh5jvvsw8yCYYWFpIEhBBipjLo5cL2Uydowqtfb5eYkODm4ur37Pmxa3fWeuwVEBLCO1Ffpaalc+7+Y7fps5ctWbph3brqqiq8E3WZxgRafPNgqrl6F05/18bFpbZJm1ro/eJMYGtBwPGLYT9/gzqPpIa5ib6xua70N98PYL5lxNfKmlvqwoTkQDNEWfnOXe9t27ed279nx/JFpUWFeCf6MTaL5X3Ja9F4V3WVISHhYS6urngnAn0YNPW+i1tISIiT+/JpvdVYo46VLEQ5xcGUpre06DIMIdT6Meza5aA8FrOFidVXVjax61IfHr2bRxEiaZvrV754mcZErCwa46OAlaPtt18bQe9QU1OzecPGBfPmO0+Y4vXwiYauHt6J/hi7Oj81o4qF2/W5ubndp0y/+TyYiXE52Nnf9fbuF7s4M9/SGNWSZmZ6vF03ZmMiPaFJxNTc6JfWhrd+CjywckcCj4LATz+FIDNym/ezh7vdFL/1fkBrZlxciYSFpVEXfmqgL3F1cwsJD1NTVlo03tX7khebhd+Pjx9JpMUsHDc6OSby0WOfnR67BAR+/rsAgG+AFX99F7ewkLiy+cQFU/W+vIQS5FyXLAtYeWrN2AxvDQlxrbGrVriqUEpt7aWf31o0IlzPbs7GFQbX/X2KI3xzdm2ZysvOptGy+K1mW8OBC71Ue3v7w/sPjh87ZmJlc+t5cH85cJSVeXXR6vPv5eZ7X9pIxfHdHFFx8a2HjqUkxJ3Z6/HY5/H+A/t1dHXxi/PHWt7T6SVCVKpq7osbYUnFmKzZmClO6v/TErC67DdBrzOYclajqDyZtPTWISNH6goihJrzwv7yjS3jG2piqYZKW/WcLTp+fWe+jYuv5jOxoAohVP/u1YvUKqwdIS5uSX0XZx0hhBDCGnJjAoNiMsrYEgauU8YZCaQ/Onzskv+bD82D7OroIanio/XEfhCcXZ2TnJyek5v3kWS6bL6N6N9pazNfB4TE5zcKGxi30nKEzJcZQecZwAQEBHbt9pg4aeKunbtCnz9dvdPT2MIK71D/o6qi/OKRg8mM2C1bt06cPImLiwvvRKA/gKbeZzVmvOUaf8zDbfDXE1DCZivuhLhl5DWIq+vIdb6mybgf9NWcXUZSVFcUIaJmucc6HCXdjqkutWU+mctwyA5+Rvr79J07dtTVN+w6ca7XHzjKKgo6H0mZN2OE6I8fiwhi6lRdHV5FrV7xXo6+CfWK7/PHd25Onzpt3PjxGzdtFOybK4tYebS4XI6IWPCBC0QRno/RwTfv+MTvf3RuypCOnxHs0qhLu4/ESI6bNUql1u/MttSnkcy591xHIoQV+e+cd4Wy4eRa0/pnu1ed590c5dI5ZmZ8fBGPwVwzcQJCwqryNfv3hsjPXDzL3VpTCCGEFUdd8DwZKztj3ayZVdeXr17ygRS0R12G6khNiP3EtrLREBcX+om5+Jba2tr0pydPxSiudfry8JaCV+f2nE3RXLZl1vCWl57LTyXxjZxm9jP/vED/pqml5eP7+PEjnwOb1hqaWS7fukNcchDeoRCGYU/u3r5z4ZyL6+jQiHAREbjzC3QZWP3S12DliU+f0LKSfW6/lRnnqvX/XwWJIgp6xn/XdIQQQmSJofo6iiJEhBDil9fR/YV3pAEempqa9np6Tp082XS43dUnAb2/phcHH9jjmUgY/JP/sAiD7LeeeHRv9WiFXjJVwEMkTl2w+Lpf4MeSMgc7e38/P7wT/QZ2MY2ejokpOSw9fuX00Qt3jsxS5q4If/Q8i4UQQljF62MrNgYPXndy70IXa9tx5u3vUtiyphbaFIRQbUxQUIOaxQh1KVnq7BVTRqmrdC4GZ39kMLK5dM0sZAmoNunmzvOVU67dO7HMxUBOgICw8vCDy9Y9l1lzbtckqoqcEKW9/fNnJkdI3YZKqS9pl7caO9VttJnST7xpIqhqbCDJ08qtbGauSkIIodZ8P4+lm8MVVx/d6Korp6BrpC7BzWtiaQFFHSCEEBcX16Qpk0MjwiVFBOa6jnx85yaGYT9+WrdJS05cNmlMxPOnt+7cPnj4MNR00LV6yQsl+FlYVdQNz335Nit3bZ9nLt4bZiRBFwt49vzA/v2qmtrXnr7ongNH2bVZkVGvU0ubeORtJjlTZb78FGguTQh+HZNeyRJRGTbG0Uy+867EhvdvAukfKyvrSEYTFjjJoOrs14GJJaJGLs7qYoSW9z6XzlwOjclnDrJtiA/NFBul8aVNYfXZ8SGRuUw5EydTnmx6DmuIjb0OpSb3fUp6wYe8YpLpjFnWwj8aHyGEPn+I9fVNKuNTNLJQRmUsnZGGUt3yL19KVnbv2Yu01+HHD+599Nejvfv2qaiqdMeFugVWQaOlYDoLVkzXFUIIIUEdTVUe7o/NTc0chLCPfge230NTbq93kCUghLDGqop6JDHc3IAfIYQIZBKxIcrn0XvHRdq8SpZjkEpHvcbK4xjv2tUWmMuVBJ+8wJCZfchT/0sHwYqeH9p9p2HUhdW2EgTUnP7wml+hwtgt9pII1cXFJjRL2Job/vya8ob4uLcs2dHmOhSEEDPl5q7d/jzT7mwa2ZG2KjPjE4/RZMvu+XsHfZSIiMjBw4cnTZ6ya8eOYD/fNR57tQ2MejhDfV3tleNH3oS+Wrtu3aw5swkE+CcKuh7MqfcxBKlJpxnxL88ttpCBI4j7m4L8/NkzZx06dGj1Ls8DF652S01nFUSdWLD5xDsJp8VzndpfrN/5vICNEEItBVHHFu97WKfqtmy2M+XNtrmnAks6J6koCloq9W+u3IirERBlvvPfsfz42Us3D2049zi7DSE2SUbfjipFIMibW6uIigl0vsnDrojx2rXAM7pZTkOxNvjijlNrNj5OYRIRaqmrrc/0u3Hy0rsmUd6fGB9hxSGeC67nqY+eM16h8LLnzuAq3u59LbQYYXfjWZCqruFYd/fjR4+1tHxjz8DeqJZBT2SrDx/xZRsndl1DIwcRpGVliagq9MLpVwT3ZfNMOv9+6uMSUtuETM1NOjZrFbWdNlOnJerkzvOMBiRiYtF5Khqqi49LYsnrSSRvnrM1SX3WRP1/pgqZ8d4XXlRqjZ1sw1+e8uzo4oWXqh33nt/mIIFQUxItrlbQ1Nzk549JakqiM+rEzMwN+RFi5z0+fYmBbKZNNel4jwYreh2R0KZjZSULLQj8P4ZGhv4Bz6dOmbxt6YLju7bV1/38dkN/pL29/cXjv+a4OHK3tQaHhc6dPw9qOugm0NT7HiIZdlTsb1pbWk+dOOHm4qqornXzebCVnWO3XAYrfn1w2akE7UUHVlsN4ckICsxprG1obkesrOdb55xKH7ZqzzxTZTER3UlOJrVh1//K7NhcgSRIKPtU1i5vZC4cef5x25QL547P0iAiHhIZISQ41FqPXF/RPtjYdYr9yI55eKzqzYnd24NlVhxfN2e0ybCxhpy0TLacHlWLjJCAspGWBA+LW1nfVKVzzv6746O6mKiwhiHUEcqDZPSnLxvtqKbY/bv0kSmUBWvWX3zkF5eY5GTvEB4W1u2X/GMN8bSE5sFUc40v+zM2paVltpEMLCykObn+956Vq42dZNN5ZydWFPzyTQ3Z0Jz65f0PYfMVe5dTCalXdp+JrP57zKZERkIDaiuu5ldXwhKCQ/L/OSuKGR8UkouJ8Zb479955GG29KwL/jgLkBsAACAASURBVD5HJmsLIISYqbFxZSRDC7OfXwHATIlllPN33LbakvLkrzcNUiMnuih19J6W936+sS2allbf3BMGAEQgEObOnxccFsrFbpnj4vji8V/t7e3desXczIzVMyY/uX3d64LXmXNnBw3Cf6E86MegqQOAs8iI1yMdHaNpcV4PfBet30zh7aZ96LCS54fP+/OM2riSKklAiKjkuGzNiUPjtVHegwNXwvmdls3Q7FxnTuAh8rTlpX+o7/jfhhQao1nKeFDeszqHNRMMxVvzcora5ZSHdiybqUtlJDDFTQ2+7AyIFfpf8LyPJnostJUhIISwptqqeiRONejco6ghNeEtW4Zq+M9h998dn0Am8jTEPXmUw0SIpGTkYqnQ3SdlfqEwRPn4jbtzV2/YumXr4oWLSoqLe+jCv6M5mcaoGWRmrv/lb6E8KiK2Qcxu3ChV7pI3kUlsRXPLL1/xeob37fBaor65uRQBIdSxwJffYIHnOhu+zLsn7qR2nhLKfMdIqBJxXnt8/cRJoyyIycHBOV+qOlaRm1uK8ZtO89i1//jJQxtnOxtId47emkmjfyTom5sP+ukJxtZMOv0TycjCTBSh1jwaLRfj1TMx7Sj67Hy/S3dTMFVLq6EwQwG+Z9CgQWfOnT3vdd731rXVMybnZmZ0x1U+Nzd5Hdq3dvbUkY52L4ICLSwtu+MqAHwNmjoAuCktLV22ZOnGDRtnLl996vZ9JdWh3XgxZoL/jeBm4wmjOhszQdRgjJuDumBT7PP7tFY9N0fDL/eDYpVlJfXtRErnmzdNCYlx1SS+ijrJqRNMxBBqTI2lN4hTDTuqeVNScmItn7GZbudSh6qYK2eiud1mzDTu7IwNce/S2ALGZh2rp1FTcnJinbCJuRbfl2DfH1/E1m2qNiv29MkrjEYkomdm0MMH3zi4ut8KCBEaJOPsNPLShYtsNvvHz+l5LWl0epkw1fzLJobM9z53w9jmi1eOVSCwPhZ8ZBGkpDvWy2HlEV7nXha18Wiam8u3NNQ3RJw+FdqMEEIUranzxypiObl5He+ltGbHxX+imFhbiCOC1AgnG753r16ltyKEldFeJ9ax29oRq7mx8Z/7+JqLCstaEbuATstGWhbm8qihrumnwrPz6bE53HoWZpLMxiZOeVkFh0tQRISCEEKNideO+n7kIipYWGpRmI2NrV34NQP9kqWV1ctXQSMd7dbOnup1aN/n5p/7R/hzwl8GzHV1qiktehkUtHzlShKpp6YNwMAGd5SCgYjNZvs9fSomLo5jhsT4hBcBAe5Tpt9+EdIDB462pobS87lU3cz/dYNDy7voxGLuIW5WCn9/vCYpPZPNo9y5zqTlXUxyabuA85ixLkN4EEJNCfG0CgFji45q3vKellJG1l5o1vEJtH149iywXGn2BNPOdRVYaVhgQg1Fi0rtWBHdkkZLKRfQNTMV/CfA98ZHSMhw8Z4ZiXNu3PC8bey90hqHvzIBQcHVO3Y7j5twZq/H5YsXZ85fKCwi3GNXFxYT/+Fb+axsOqOAYryQKoQQQq2fgo7u8f487tCp2dpkhFrIZDIXOzc+ItVxBCvm5tU4CX2VtgR+qn7bC++X8paNieGVqcscLPgRamOzMV4traEkhBBiF8YxMrkNxplLEhBCUsNGDhNa//RhxGRBzD9HfMZkQ0NVIp3mcyPGfvMwGVSTHnj3rzzlGUsHUzIysjhy4/WFGHcftdjPcRL44ZIVrJhGT2tXXaTdGHA/TX3qEAlx7vaMd/FJxWro5ZmHzc720pF5woaq+U+v08UnzhnWK3b2BL0ZiURavnKl+5ixnnv2zHV1Wrppu93oPz0itLAg/+z+3SUfC/Yf2O/g2D2rEwH4D9DUwUDE4XDS3r3j58dzu8rk5GSEkI6RSQ/UdISwhvwPpRivqpz8v77nW8tKKtuFR6gpf5kdwiqjw5Ia+LQcHVRICKGWbBqtlKAzY45rx/18LalvEst4tRdTBRFCiJUXxygh6I2mShIQQggrj4l6z1JyM9PqXKnQEOd3P7yeaGJg2rEWgpUXxyglG04w+Xu7ve+Oj2GIQEB8BpN3rEmdd8D/7F0H6hoNnKax5BWVNPUMMt6lpqa87bYVSt/QhmGtrT+aSyYrGpjKJL+5faOeryorIaVaZea1u2N0RQkIIUTRGzXO1OdY8J4JbxSspq3fvkspcO45rODp2Rf7zmzWfrerqIpxZIfwDHvp8uDbSXobDs3RISOEsKo4Rlq7zjILuY5mLDFi0hjllzfXz2rYeOKwizAFm7t5WfImr6sLHV8MluAVM1/osXWdrgjCSpgtnLaioJPnlTx3zVP4mZXlrKLCYja79IV34uGDC3WE2MRJwx7sCb8yxzHQeu7OPcsHPZnOrqPvWy6468ROqOngp8kPlr96/VpoSIjn7j2BTx6t3uk5WGnIb4zT2tJy9/KFJ3dvzZ4zZ+WNa7w9+L0PQAdo6mAgIpPJOz08lIb8zg/uLhQWGuq5e0/Qk0erd3oqKHfvhoAsdhtC7FZmC0Kdv5+wit7l82jJkchEbhEh4S8/ClgZgT6vWRqzZ0/S5EEIsbIT6Xk8JlsdOgtyS0ZMbBmPwdiOas7OfxuXjTRWGMqhxvomQWFC8adPbIK8ZOdCiwralfOvSzAeDTND2ZbGBm5B3g/JjGwubTd9SWZTk4CAwPfHb6Z5XeYsXG/Fh8gaUya53k18kvuxFeHS1CMCAy4ePaitrR3xJmrw4ME9eWkrM3MK5QdLfkjqYz3ujazMzcwuYYm7ztssw/91o+U1XHY5wCa9jKSopTaIFyFM+tgt/WppEwsVYcTkLLwTfliurTAjvWDwsstztWS+3KsgM/1a6vSvRhG23nQ3wK1eXENNgoQQIkgN23A7cFx6+qdmgSG6uorCHVckyE4+4qdRzKehI/ezhYbXYvnZuyPJ2iYqwgSEEFF95qmneqmfuBV0deQEEMLmHLis26xoaa7y81vJANDJwdHRytr6/NlzSyeNGT9z7swly8k/+m76Gj0y4twBTwWFwX7PnvWlPVtB/wJNHQDc2Ds4dLyKLJsybtyM2TOXrOi2yVqChI6+EjE25aVvltMSdUGsMdPP+/Fn27W6vAbWRqLRFeWNCFEQYub+depFvdOq02uMhRBCqC0/JimLS221VeeaGVZ6Ii2fS91Fs+X1qxhVe53M3ByOlLs+f/y9ly32E+wlSWQyFzsvNTLVahg70ftairieQlsCn5F+26t7rxWmjxanv01vV5yr3Rz4MHvoTCctyvfGjyRVv42oe7fEyowfIYzNbqNoaA7p8bsKCwvyz+3fU1SQv3ffPqeRTj19+V/AK6lqKKn67T/jl9MxlfvyPwRRNSv7L09SUFVCCKHBepY//P2DJKWuJ/X1B8hiyobWyv96FEF0qOH/HlDErMovrGb91wIePknVwVqWEv+bVs/in7SSunYjfxQNgP/Ey8u7acvm8RMmeOzaNd/dedWO3ebDbX/4rPKSkvOH9mamvt2xc6f72DE9kBOA/wJNHQA8USiUjZs3jZ8w3mOXx3z3kSu2eVjZOXTHhch6sxYvTT126fiGicEqsnzC2pPmrJ2lIoCQgNvc9fFHvPfeajZFuYkfuex33Zmi03moFruEFpPdrjmNqtT5k6K1tLyMwyFEBb4bvmSiIlcprZWDlYWc9lbwWDlzMA9CGk5jdZ8ejz40OcHb0nXV1lUKQZsucYoDzkfsPLXEUIhNKypnt1W+upu2d/8ULcoPxncuuXio6u2pXYJT7CQrQp6k6M33nK3WgxPqf7/rPXP2rJs3rsK73r+Jnfdw/YRTSf+xgIfX4UDUtamwxx3oZiqqKvce3H/m53/AY5uGnsHKbR5SsrLffGQbm/3o1vUHVy+Nnzj+/OkTgj2xOhGA7+Hq7m1HwS+5e8c7jsE463W+G8ZmV6anVIjpakvDZmfISE//ib8f7qtf/uW5/7MD+/eraeuu3O7RPaeTYp9LM3OL2kRVNAeL/U/nZdUV5Bc0i6hqSAl8fyUw1vgpp1ZQRUG0Yw4cq89LLePVUJf9p8UyS97nlBNlNdQkeBHCavPjk+ukTAyHCCGEEFaVm/CBqGmsKPRfV/lqfGZhQaWokkxbSVZGMVNYUVNrUA/eVtDxrre8vNy+/ftVh/7HTHWPsDIzv3bzhqaWFo4ZwG/THKoW8SZKWloa7yCgU2NDw8kTJ548fjJt0dLJcxfwEP/nZoq3cfQz+3YLCwrsO3BAW0cbr5AAfA2aeu/SfU0dK/trhd2WGLMDQddmyA3427J6Z1NHCDU2Np46ceKxz+NpC5dMnruQCLuA9bjykhKvw/vS3yZt37lj7LhxeMeBpt63QVPvnd6nvd+1Y0d9Y9OaXZ4GVHOEUE1V1aVjB+OjozZu2jR1+jQuLi68MwLQCfZTHygI4pYzNm1YP8f6588jAT1PUFDQY8+eh48exUeGLxrvmkSn4Z1oAGljsx9cu7xg7ChFWemwiPDeUNMBAN1BW0fb1+/pwgXzPdetPLhlvfclr3luTkIUUkh42LQZ06Gmg14Fmnrfxm6qb8YQYjOZX53HwqorznmXXdaKmj6+zyz7sjyUKKll6+5q8dWJ3Oy6srJ67H8HRFhj6adyZrcHB9+jpa3l+/TJ4kUL921YdWDT2prKSrwT9X8p8YzFE9zoYcH3Hz7w3LcXFqcC0L9xcXFNmzE9JDxMmJecFP362o3rR48fExMTwzsXAP8GTb2PwiqSffdNNTEcc8L/rsc8F3N98+kX4psQYn+MeXhk8SiX9b4ZjJML3Fym7A2oRa15Ede3uBhazL2VxUEIIdSU7rt/i8eZRyFPDizY6POho+W3fAg8vm336bu+XsucxhyMqMHz0wNcXFxTp08LCQ8T4eed6+b05O5tDPv3b1WgS9RUVR3asmH3muXz5s3x9Xuio6uLdyIAQA8RExM7cuyo79MnxiYmeGcB4NugqfdRhEF6ZorEBozSjKktv/Lw1BQB+o2HUU2IqGhuqUBhy+qTaf7Vyroa5iZq/IisMsxJW6xd0sxCnxdhVW9OL9wQIj9ry8Y5hpxcRkR8LguhWsblZSt8BKdt2rBsgZsBKT0ps7JXnpreRbhJ5IKiErxT/FjHq8j1WzeDn/gsnzIuI/Ut3on6FQ6H43ffe56bEz+ZEBIeNmPmTG5u+JEIAACgF4FdGvusurj4t1w6S+ZOsZAmYkwlWe7G6trPCAlU0RnJ/JLGVVIbPbbrfDnioS4h4R2fyQQTQawy6PC2m8QFT2fo8CNM1nL+fgP9EfzVYYe2Xfg8+eFcPYHmzDs3nzcOXztS+WeOF+yrJKRlo2JoI2ys8A7yU4yNjZ+/DLh18+aWRfOGO49etG6TkIgI3qH6vMx3qWf2eWBs1pVrV02pVLzjAAAAAN8AE0h9VWMcLY5jNW6sFgkhxC4vr+BIyEoLIlQXT09obmlWsZ+g889JbA1xsQltRhZUYXaWz3V/ltO0McpEhBBBzMh1gvVgrkyfqz611mOtmOHX9yxe91x05cWjU/t1UUcEAg8jNhbvFL+AQCAsWLjwVVgIh9k4x8Xx5RMf2LXptzU1NJzy3LVp4eyx7m4BL19ATQcAANBrQVPvo5hJsfRmkxHDZAgIIVYWLe6jpM0wY17UnEhj1PCou4yz/mrStTk5ltGgZ2EmiUpi37xFeibUr2+awYrfRCa1yVBqk3JYQyYcf+pzfI6xWD/fIKa6tCg3Pa26thbvIL9GSkrqnJfXmXNnHl2/vGbWlA/ZWXgn6nte+T2Z4+LY2lAbFBK8aMliHh54XxEAAEDvBa9SfVNLKo1eoTPBUoqAEGqM8XlaYDR3v60IYtIY9HJh+7UTNL863qgljUavUHc3lyOy31XVcChSApSvx2JXVFZxKBrDZ81xF+zhTwM3rBamiqbWq7DI6RPH4p3ll1nb2AS+Crpy6fLqmZNHT5g8d+UaPv4ePBOoz8rPzT67b3dNRfnxkyeGjxiOd5yf1draWlZWJiIqincQ8DvY7P58ww8AoAdAU++TWDl0+kcNW8vBRIRVRZ3zitfbdnqeDhmx3tIYHwWsVthKfzUnzsqmMwqVzA2x8KAMNYXBlIa0pOR6FxthxMz2uxIpNmOOiuJgStNbWnSZyyhpQuvHMO8gtu18Z5V+vfwFITMLq4jw8L7Y1BFCZDJ51ZrVY8aN3eOxe57ryKVbtts6u+Adqvdifv582+vs80f3Fy5auHTZcjKlLx3TSyaTF81fQIIzsPos2JwbAPAnoKn3RezCWFoGgaOTGupHiw9JIS+8fMJZiYwQu4BGy+K3mm0t8fWjWws+fGRVk0NyXDZOUOYsWvly1akVUwqGaYiKqTvPnTdMgoRclywLWHlqzdgMbw0Jca2xq1a49veajhCyMDPZ9PBeW1tb313/oKCgcOPWzeCgV56enoG+Pqt37pFXVMI7VK8TFRzkdXi/utrQ5y9fKCn1va9PDIOOdwQAAAC44YL70nqVu3e84xiMs17nv/cgrMh7gdPVwed9F0oWMyWGasjwf3/QlpL0XLaCjmLnCgmsqSgzu4ZXSUNZ7J9pOnbdp4y8BnF1HbkBsY7CSE//ib/flKnTj58+Y2PR528o/Pz589kzZ+553504e96MxctJ5L40Z9x9ij99PH/QsyAne6fHrlGjR+MdBwAAAPhlcEdp34OVRkbG8ZmaG0sq6hr8sKYjhCiyWn/XdIQQQUBe20jv65qOECKKKOgZD5Ca/jeL4bbBoWF4p+gCfHx8W7dte+Lvl5kUP9/dmfEmEu9EOGOxWm97nV08wU1bXS04LBRqOgAAgD4KmnrfgtWkhz/0ehDdLMApp8XnM/HO07c52NtHR4TjnaLLDB069MGjv9atX3ts+2aP1csqSvvA0U7dIT46asGY0e/iYn2fPtm+cwc//49/mQUAAAB6J2jqfQtBQE7fae31qLi/trkYD5XmxTtP32Y3zLKsuDC/sAjvIF1p3PjxoRHhCjJSC8aMfnj9SttA2nqisrzMc93Kw9s2rl618i+fR2rq6ngnAgAAAP4INPU+hiQsLiklNUhKapCUpAgU9T/Dx8trQLUIDO4PC2C+JiQstHf/vrsP7sWEBC6Z6J6SEId3om6HtbU9unltvpuzjIRoaET4hEkTYcMNAAAA/QA0dTCgjbCziwzvPwtgvqarp/fU32/27Jkeq5Ye3rqxtroa70TdJS0pcclE98jA57fv3tl/8KCwsDDeiQAAAICuAU0dDGijHO1SExjNnz/jHaRbcHNzz5o9OzQ8jJcHzXV19H9wl8Ph4B2qK9XX1hzdsXnH8oUzpk/ze+ZvYGiIdyIAAACgK0FTBwOagrycrIJSaGQ03kG6kbiExIlTpy5fvRLw170VU8dnpb3DO1EXaG9vf/7XgzkujsR2LDgsbM68uQQC4cdPAwAAAPoUaOpgoLMeYRsWFoF3im5HNTN7EfhyjJvrxgWzTu/1aGpowDvR78vJeL9q+kT/e7cuXLp06sxpyUGSeCcCAAAAugU0dTDQOTnY0yMjBsIRYDw8PIuXLgkMfsWsq57j4vjK/wneiX5ZU2Pj2QOe6+ZMH+Xs9CIo0NzCHO9EAAAAQDfqq+eo92NsNqu1pRXvFP0chmF//7e5iSGbzXr7Lt1QTxvHSD1GVlb24uVLkRGv9+zeHfTEZ/UuzyGqaniH+imhz/0vHT9kYGAQ+CpITl4e7zgAAABAt4Om3uuEBIdoa2jgnWIAIRAIptbDgkLCBkhT7zDcdkSQRfDFC14rp010nzJ99vLVvHx8eIf6T58+5J3Zt7uipOjwkcN29vZ4xwEAAAB6CNdAeNO/D2lra2tthQn1nsDHx/f3ltt/PXl2++bNl8+f4hsJFwUFBbt37srJzVu+decwx5F4x/m3FibT+9J5v/vec+fNW7FqJYVCwTsRAAAA0HOgqQOAauvrzY1N39BiB0lK4J0FHy9fvNi/d5+yusbK7btlByvgHadTTHiI16F9SkpKe/ftVVZRwTsOAAAA0NPgjlIAkKiwsKa+YdAA2AHmv4x2cQkOC9VQVVk03vXOhXMsFs5v7JQVF+1csfjMXo+tW7fevX8PajoAAICBCZo6AAghNMzWNiJ84DZ1hJCAgMBOj10+vo9T6NELx45OiMVnj3k2i3X3stfCcS6qSoNDwsNc3d1wiQEAAAD0BrD6BQCEEHqflTN1wvjEpEQSiYR3Fpy1t7c/fuRz5PBhA6r58q07JQZJ9dilk+ixZ/ftFhER3n/ggJa2Vo9dFwAAAOidYE4dAIQQ0lYfKigsGs2IxzsI/ri4uCZNmRwaET5IVGiem7PPretYW1t3X7S6smL/xjX7NqxevGSR79MnUNMBAAAABE0dgL9ZDrcNDg3HO0VvISIicvDw4dvet1+/8F86aUxacmI3XQjDMF/vW3NdR4oK8IWEh02dNu3vPXkAAACAAQ5WvwDQ6VV45P49e95EDejV6v8fhmHet++cPnXKxsFp8YYtwqJiXTh4ekry6b0e3O3t+w7uNzY27sKRAQAAgH4A5tQB6DTc0qymsiI7Lx/vIL0LgUCYO39eSFgYdxtrjqtTwKOHXfLrfUNd3XGP7VsXz580cfzzlwFQ0wEAAID/D5o6AJ0oFIqRuWVQSBjeQXojyUGSZ86d9brg9dT7xqrpk3Iy3v/2UO3t7S99H81xcWxvaXoVFrJg4UICgdCFUQEAAIB+A1a/APCPa94PggICHv91D+8gvReLxbp25cqli5dGjp0wf/U6fgHBX3p6Xlbmmb0ejXW1nvs8rW1suikkAAAA0D/AnDoA/xjlaJeWFF/f2Ih3kN6LRCItX7ky8FVQfVnxHBfH0IBnP/nEz81NXof3r5k1xcFuRGBwENR0AAAA4IegqQPwDzlpKUVVtdDXb/AO0tvJyctfuX7t4KGDt86e2Dh/5qcPed9/fERgwFxXp6qijy+CAleuXgWb1gMAAAA/A5o6AP/DeoRtWBjs1fhTHBwdX4WGmBoZLpsy7trp460tLf//MUUfCzYvnHP1xNG9e/dev3lj8ODBPZ8TAAAA6KOgqQPwP0Y62jOiXnM4HLyD9A28vLybtmz2e/YsLy1lnvvI2Ih/7sdltbbeOHtyyUR3Az3t4LAQJ+eROOYEAAAA+iK4oxSA/8HhcExNqBevXaMaGeCdpY955ud/YP9+dR29lTt2F+TmnD/gKScrs/fA/qFDh+IdDQAAAOiToKkD8G/L126UkZHZtWUD3kH6nsbGxpPHj3vfviMmJr5t5/Zx48fjnQgAAADow6CpA/Bvj5+9vHrxwqvAALyD9FWFhYUiwsKCQkJ4BwEAAAD6NmjqAPxbQ2Mj1cg47M0bOWkpvLMAAAAAYOCCO0oB+DchQUEdI9PAENgBBgAAAAB4gqYOwDcMs7WNDIemDgAAAAA8QVMH4BucHe2T6LEt39ogHAAAAACgZ0BTB+Ab1FSGiEkOioxl4B0EAAAAAAMXNHUAvs3K1i4kFBbAAAAAAAA30NQB+DYnB7vYyAi8UwAAAABg4IKmDsC3WZuZNtbXvs/KwTsIAAAAAAYoaOoAfBuJRDKxtHkVEoZ3EAAAAAAMUNDUAfhPtna2URGwAAYAAAAA+ICmDsB/cra3zUhJrq2vxzsIAAAAAAYiHrwDANB7DZKUUNHQCg6LnDLeHe8sv+/yxYsvAgJIJBLeQXoCi8UyMTH18NyDdxAAAACgC0BTB+B7bGztwsLD+3RT//Txk5CQ0LwFC/AO0hMCX7xMT0/HOwUAAADQNaCpA/A9zo7282bdxDCMQCDgneX3WVnb2Ds44J2iJzCZzIf3H+CdAgAAAOgasE4dgO8x0NUikcj0hGS8gwAAAABgwIGmDsD3cHFxWQy3DQ6FvRoBAAAA0NOgqQPwA3b2ttGvYa9GAAAAAPQ0aOoA/IDDcOuSj/mfiorxDgIAAACAgQWaOgA/wM/Hp2dq9jIkHO8gAAAAABhYoKkD8GPD7ewjw6GpAwAAAKBHQVMH4MdGOdm/jaN9ZjLxDgIAAACAAQSaOgA/NmSwvLTc4PCoWLyD9HVNxemM1y99798JSm/BOwsAAADQ60FTB+CnWNvahYbBXo1/BmusLk7xObBlX0ABTx8+SAoAAADoIdDUAfgpjvZ2tEjYq/HPEGT0jKWInwnq5uZKRLzDAAAAAL0eNHUAfool1biFyXyblo53kL6tMYEW3zyYaq5OwjsJAAAA0PtBUwfgp/Dw8Jha2bwKgQUwf4L5lsaoljQz0+PFOwkAAADQB/DgHQCAPsPO3v6+950t61bhHaQr1L8Pfk7LraisIRvNXTpSHlWnhb6MLRa1GDNKV7xzCXldTmRQWJaI7Sxn9Y5ijRXFB8UXCemNslGhIFT3LvBpVPqnwlKBEZvWOku1fYq6fyfgHWY0c/VUI1GEmj+EPngQkkexnL10jCZ/x4gt7+n0EiEqVTX3xY2wpGJM1mzMFCd1ga9iYQ25MYFBMRllbAkD1ynjjCQJiPXhjX9kWnFpabW444bZMozL198IjFm/0FysZ79gAAAAQM+DOXUAfpazw4ic92lV1TV4B+kKFAXDoXXBF65H1giIM1PvbVy648SFU57r9z7IZiOEEKpN9rl0dN+BQ8evhxR0fASx814cXbf1WnwjF0IIIV4lY5Xa0Du+We2DhBsTrm3Yficm8fXTm0dvRzdh5VEn1+5+SIsL+uvS8QeJXza3ZOXR4nI5IhXBBy6EZOYlBV45sGLmxr/yO4dHWHHUuWWzd4VzUyfPtGx5tnXJoRfVCCEkqmYxpDroxl85GIlxcOX6Mw98HoZlwdYxAAAABgBo6gD8LDERETUdvaCw13gH6QpkQULpp8J2OStLkcCTj9tmXvrr3Gx9EiKSSQghVJdIq9BdNNlUmEdMVU2+4+ZPrJRGS+MompurkztHQGVFpUje1Jj84vwr0VVXL3uM0STySEoKZt4+E6264/rF7W5a+yFIyQAAIABJREFUPNxi4qKdP2bYxTR6Oiam5LD0+JXTRy/cOTJLmbsi/NHzLBZCCCsPP7hs3XOZNed2TaKqyAlR2ts/f2ZyEEIkUQme0k+lXOraXC+e8c5aNtLEYepIHQoeXzQAAACgZ0FTB+AXDLezC+8nezXWx0XTG6VMpHP8akaunWMs3pKTm98uq64uS0QIiRiPHqmYTY+vFDIzNxFECCGElUW/SW6Vplrqf1ljXhtHS/gsYShVENzisnqCOm99UvL7NnEN3pRgnimr3ZVItW+T33Nk9Q2UO5o9VkGjpWA6U1dM1xVCCCFBHU1VHu725qZmDsKKnh/afadh1KbVthIE1Jz+8JpfocLYifaSnVEZia1yYsXpwrNWzVh56bHXws5MAAAAQP8GTR2AXzDSwS4h5g2bzf7xQ3u5psRoWg2Zv6JGatocMzGEGuOjY2vFzSwMv/Tw1iw64yPFxMJMGCGEEPtDUEBss5iZpTH/3yPQ6DVE4doGsbGTDQURakygMeq4CKWflWfP0BdAqDYuJqFZzNTCoPMJtQx6Ilt9+AjNjuKO2HUNjRxEkJaVJTLjvS+8qNQaO9mGvzzl2dHFCy9VO+49v81BAiGEUGMCnVFPZJaLO8wwhYYOAABgIIGmDsAv0NXS4BMUjGEk4B3kTzHfvqGXcoQ0xs5yVyYihJri30RXClEt/56sZhfE0rO49S3MJAkIIawo8JI3/bOQqaWpyJcRUmhxFUhYZfRk1yFEhBAzmUav4BpkOn3uaHkCQqgpKYZRK2BqYdrR9FFDPC2heTDVXOPL/oxNaWmZbSQDCwtpVnxQSC4mxlviv3/nkYfZ0rMu+Pscmawt8CUqPa6CwxYbMdZJGo5LAgAAMKDA3i8A/BrL4bbBoeEjrC3wDvInWtKiaZ8IussXuA4mIIQQM/lNTCnFeAW1s1YjrCSWloZ0VlrIExDCSl4HM6rbEJ+RpdmXHVdaM+n0T2jovLmuioSOEWPjiriHLprh3Dni21h6OdnYkira8fjmZBqjZpCN+Ze1M1h5VERsg5jduFGq3BUxuaUYv9M0j11jvt4HpvNC6XRGIUfQZtpkA9jaEQAAwAADc+oA/BoHe7uYvn5YaWtWTEwekeo+RrtjJUpLSlR0IY+BufmgzklrrJIem9ymakYdQkRNKY99y4X5yit49M0tpTofwM6nx+Zw6bu5G3XU59ZcGj2XS3vkaP2OWz1b3scyPhH0LM0lm+oaMIRa0uj0MmGqudGXifL3PnfD2OaLV45VIHDY7LZ2xGpubMT+TthcVFjWihBC7A8Mei5HbISbyxA41RQAAMBAA00dgF9ja2NZWVqcl/8R7yC/j50fE5vJpWtj07mrS2t6TEwBlyZVvyXiaVQBGyHEykzP/MwtKi5Y8ubOxRgxN4OK5DykbKDNev0sthRDCCuOpaW1a9jYqHaMwC6k0zLQUCtrNXLnFRiMXKSkIZXn8yy5gYNY2XRGAcXYgiqEEEKtn4KO7vH+PO7QodnaZISI8oaGqsRWms+NmFI2Quya9Gdnj/qkNHAQQlgRjf6eLWJlayWOy5cKAAAAwBM0dQB+DS+FYmBmGRgajneQ38YujI5Oa9e0sFDsnKVmlRSXYJzCSN8USfthSkSEELe4pASRFXNozo4YqYnzHaVKi4vbOKXRT+JErC1lCAirpNFS2pSoFuodi86xcjrtLaZgYaXVuXkih81BRFJjanS1/nhbeSJCZEUDU5nSN7dvXD1/aOOSzX9xz7x2d5dz528KFOO5m5eZC7y7utBxuP0I5yV3mm3XrXNV40UIq6TTU1kiliOsJXD4QgEAAAA442pvb8c7AwB9zNXb94KDgnweeOMd5Kfs2LpNfvDgZSuW//dDsIaCnCohFWWxfxaYYNWZSflEVX0VUSJCiF2Z8a5SVFtLmvzTl21pbOISFPj68czK3MzsEpb4UJ2hMvz/797Q1poP6emfmgWG6OoqCv/2naMBz58/vP/g7oP7vzsAAAAA0IvAHaUA/LJRjnYn9ns2NjUJCvz/OyD7IoKQkobQvz4krmH6z4IToqSmkeSvjUkR/PfXhldS1VBS9b8eTxZTNrRW/rVrAAAAAP0brH4B4JfJy8rID1ENi4zGOwgAAAAA+jNo6gD8Dhtb29A+vFQdAAAAAH0ANHUAfoeTgz39zWsOh4N3EAAAAAD0W9DUAfgdVCN9rK0tKTUN7yAAAAAA6LegqQPwOwgEgpnNiKCQMLyDAAAAAKDfgqYOwG+yt7eLft3HDysFAAAAQC8GTR2A3+Roa5OflVlWXoF3EAAAAAD0T9DUAfhNIsLCWoZGgaEwrQ4AAACAbgFNHYDfN9zWLiIc9moEAAAAQLeAM0oB+H3OjvbXzp9tbW0lk8l4Z/meE8eOXb18uWeu1d7e3traSiAQiERiz1zxaw0NDSampj1/XQAAAKA7cLW3t+OdAYA+zNpm+O59+x1H2OAd5D9VV1U1Njb22OXS3qWtXb16kJTU/YcPeuyiX6Pw8kpLS+NyaQAAAKBrwZw6AH/EcrhtSGhYb27q4hIS4hISPXa58vJyhFBbW5vSkCE9dtF+jMlkwgFbPYmbm5uXlxfvFAAA0AmaOgB/xNHB3nPXToT24B2ktxASEkIIkUkkvIP0E6Ympi3NzXinGED4hYRTUt/inQIAADpBUwfgjwyzoNZVV2fm5GkMVcE7S6+gqaW1/+CBoerqeAfpJ8gUvi3nbyoM1cQ7yIBQkJl2fvtavFMAAMA/oKkD8EfIZLKRhVVQSBg09b9NnT4d7wj9Bzc3N5FEJvXuW5b7DSKJzM0FW6IBAHoR+JEEwJ+ytbOLjIC9GgEAAADQxaCpA/CnRjnYpicn1dXX4x0EAAAAAP0KNHUA/pS01KAh6hohEW/wDtJbYBiGdwQAAACgP4CmDkAXsB5hGxYGC2AQQqi8vNza3GLdmjV4BwEAAAD6PGjqAHQBZ0d7xpvXMJeMECrIz6+srIyJjsE7COh5GLMiNy8hgh7wIqsCvhcAAKALQFMHoAsY6ekQeHjiklLwDgIAjhrK0sNe7Fvq5fWmnpeAdxgAAOgPoKkD0AW4ubnNbUYEh4XhHQR/KioqZDJZQ0MD7yCg54kOoarytXHxG1lqCOKdBQAA+gVo6gB0DQcHuzfhEXinwJ+EpCQjMeHq9et4BwE4YGUk5FTzqVHNBPBOAgAA/QM0dQC6hv1w6+KCvKKSUryD4E9AQIBMgZN6BiDWpwR6GdFI11QCXloAAKBLwBmlAHQNQQEBHWNqYEj4ojkz8M4CBjJm3Ye0vPQSkuFoXTkiQgghrC6ZUa1mqcKPUGv+22eRTZquljr/lGlOQ3ZqeNRHpqyOvSkhl/GRpWQ6Qof4MTqG9r6qvKxB1GHyJOl075vv+N0mzTATQgghrDk/lhER+6miTVhntO0oQ5GORensD2lxWdzaG7UlCQgxK9NisstFhlqaDOL9Ol5zRVIIg55ewxJRsHK3NpXviNiUHxUXlS1gNYOq2vForPJtcGapkLKdlVzHL32fPyT5P3lfwSenbzEYlbK0RmoP+nsp/H/kAQCAvg8mPgDoMsNtbSPCYa9GgCdO2btk/3PXPXcERJVwOj7UFP/i5OWMCjZCqK0sOtjrwHWv51+2ZmFX0y+cWr43oVlOWaEu+urOm5s3Bb1j8iCEhNW0FKrjHzwq5pDSz665dPWvKL/wwlaEsJLU6ysPHXnNbTjJ0bQldv/ye6HVHWO1Fce+z0SKVEvJtg/00ytPbd9+Zcv8m88+cf4O11oQd3qpl2+d4qil4xwp8Xvm3wgu4SDUmOb77Pyhe+dOvoz62NaZK4/uteHavXgmF0IIIaw45vAinw/qI6aPkym6cm5vSN3fd6z+dx4AAOgHoKkD0GVGOdq/ZcQyW1rwDoKz8LCw7OxsvFMMUNzSVNuFU3VF2ko+5LIQQohV6H/hdU5NUz2GEOJRnL5gi7uMjKwQASGE1caePLMnRHLxsfkzRulajdFqf5/PllU31iIhRBQRJ5QX1nCpK6EXNMoMN1tjo7FOQ3gqks6uvBAsM+HA9hGGyhIClPZ2ZmtLRxXHauJpHzA1bWPuuMt3qiz37vScJENo5yIQO5OxssJ2zbuZZT1r+1y9IWJC2hNtDGtpdx7lVSW9r9JxdTfmJ4jLKct1vM/LqWCkZ3IGGZsNJiGEEKqLjYtokDcZPlhSRnPy0uF2arIdE+3Yd/IAAEB/AE0dgC6jMkRRUlo24k0s3kHwlJaWtnjBwrWrVuMdZAAjy0lIcTVVlDdjiFMeEs2oI7TXdTR1hDisepKmvSUfQpyiZ/cOPkBjd04eJsONEMKaGqrrkRhVS5cfIYRQfWZSEltGrDJHxHHBtHFHH66ZYdAcfOT2owbT5SsMxQnoc0b4Pf8qeffh1pIIIYRVp8cntQ02FE55VGW5cjRVuiknq5JLXVVbnBshhFiffA7+FcVvvXCGasfwiEAg8mD56Z+QkfkIhcKkhHpBUy39ji1jsBpGdG6rtIaJXuftDgQSkdiQ+syngIkQSUnH2VKWhBDCKr+TBwAA+gVo6gB0JasRdqED+7DS5qYmhFBVVRXeQQYwkoyYBIFTX9eINWa8yJAeYyWC6psa2hBCqDk5rsLYkSqIUFXCzbMJBFf3KcaUjmc1xGels/kMzNQ72nJTUkZSPYFZLmQzTaNjJxdmQvCtl/VqY0aY89e8D3i4ccnzWoc5Bzcbi3c8nZGW1MRLKSwTmeZCleBGNRkJyW2KpprKJIQQaqaFPaKztV2t9b7sCoNVVpXVt/PwkskIsbLTkz6S9M01hBBCCLHz40LoLaJUbf3OUo9EbO0maLMZZ67fjGtGwuom+uQf5gEAgH4BmjoAXcnJwS42ckDv1VhXV4cQamlhslgsvLMMWHy8/CTEbGzO83tLdrJQFufnbmtuqGlDTVm+oWQnV2kiast/HhZcLuc8QU+04ylYRWTQu1qKqolpR1Fvfc/IrGrHRIdbD5fqeJ1ofRuclM8RoJTEnNr90C9bbOK5fdcO2qp3Nu/m5NjMesQlYWs/SoUHIdSQkJ7SLGZkPoSMEEKtadHvS7nlqJayX9bCoNrknCw2YchQWTJq+0TPyCUom1BFCQghrDL8SkjiZz6DL8UdIYSEtObtdjck5HvvfRLbuQz9+3kAAKB/gL1fAOhKVmYmnxsb36Vn6moNuKN/2Gz29avXLnh5ScvJo/Z2F+dRe/fvs7C0xDvXAMRF4OFBzPKEIIruXD0KyuIntFfV13xOfPG6xX6WBgUhrIoelctWtDPV7FgHjhrjQh6FNxFNNI0GdSxW+ZgYV8kR1Bk7sXMvFoTVFuTWcPiNx+2Y7fz/23BzThyjgag/bvGkjv1mWlJomXXiWiaGHRP2rPKSmnZhqqryl6KOVceGpTfyqdo5KJCwqnh6AdIeYyzHjRCnPDI+uRpDfKqmZp1FHcMQgYD49EdvXJ257GDopXuWJqtVSN/PAwAA/QTMqQPQlYhEoomVzavQAbcAJo7BcB3tEvAy8OSte/eDX98Lfj1u9vwVy1esXb2msqIS73QDDoGH1F7BqFUaqyeKEFlEQKC9qYz2KoRiN8OMDyGEWOWFn9oIg8SkiAghhFUk37gQV4oRhlK1ZFuaGzHE/pCemNsuOtzSQenLdA4HY7e1IxazuemfGzY/F1dUsBBCiJmallDCYzjaQrWj+TPzEuLr+E20DTvLNoFE5uEWERD+MhgrI8ovkq02Y9w4DR6sKiPxLTbEVEORiJpTXwdU8FMq6nn0tEw6fmdoTr5yNvEzQgiR1CePdlbg5OeVsH6UBwAA+gto6gB0MVs7u8iBtFdjdVXVhnXrlixa7DZt1vkHvmpaOgghLi4u10lTbwcEYwSio739nVu3OBzYkaPHcBOIPET1KS7OijwIIYKIgDCqT8wUnzx7aOfCby4SmYzYHzKj31V8ig8/sSuWX1emjVvKUA8Luc/40MwppWdktfGbDtMR+3tMoqSuoQxPa8azW2nlbITYDVkBvl6P85owhBA7h55exKNiOUyiY86clZeVUkDQoSqXPougl3EQouhba4vU1JQ3IoQQYn70PRNR7zRr72odQYRYmQU5n7mFxfnKol/djhVy0q97l4cU9ZVYUTHxZRx2WXFqRGZ6M0IIIYzdhpHUNORJP8gDAAD9BjR1ALqYs/2I7LTU6tpavIN0Ow6Hc9fb28HOnolx3QoIcZ8ynZv7f36kCIuKbdp/5OCFa3fvPRjj5p6akoJX1IGmnUvWct6MoR0LV7hFBMWGWK7dNkKZ9OXPKcr2Y9SEKhJPTNm26kKJ7rrZZqSmNk75Sy86n+swff7aRMYHlrCWpZXwV2OS9GZPnUOlZFw/McV+w3jXkz7NhkvWWCjzIsQqjo8t5tLWoQ7unDNvK60q5bCznr14L2NsLs2NELeM6/hV9pUP9/n6ePse2eZfaLfyylFbFQpCCBHERcSI7PgjRw7FirnONZEorSrDOOUxb94K65pKc7NyS0qrE857+D1/EXXD48k73UnrZg0hfT8PAAD0H1zt7e14ZwCgv3FxHzdj9pzpE8fiHaQbpaWl7dqxs7GpeY3HXn0T6vcfjLW1+Xrf8r543m2M++YtW4SEhb7/ePA3U1PzDaevKKpp/sqTsOqcXC5ldbHO04GYZdlFAmpD/7Wau6XsfUE5UUpNTZQXIay2MDG5YZCJttL3/2pYDR/TPxZ/5lXQUZYX+u+ZHmZFYnQRr56ulhTxq4+y6woKP30WUlGX4P+fQ0Q5NVnZhUQ5LWVBIkKIXZedVieirTSIhBBCzMLiKlE5aawiJ72MKSKnoSnO//VTfzLPz8rPSDuzaQWDMaA3WgUA9CrQ1AHoekdOncvJzr528RzeQbpFY0PDieMnnvj6zlyyYuLseTxE4o+fgxBCqLKs1Ovw/rTEhK07to2fMKFbQ/Ybv9XUwW+Cpg4A6G1g9QsAXW+kk318dFRbWxveQbreMz9/Bzv7guLS636BUxcs/vmajhCSlJbZc9pr88GjZ06fnTZ5Sk5OTvflBAAAAPoBaOoAdD0DbS0KH19sXCLeQbrSh7y8GdOmHzt2fL3nwb1nL0rJyv7eOFSb4df9AzWMqRPGjjt86BCTyezanAAAAEC/AU0dgG5hMdw2pL8cVtrS0nL86LExbu6quoY3ngVZjLD7wwFJZPK8lWsv+fi/TX3vaOcQ/Cq4S3ICAAAA/Qw0dQC6hb29XXREf2jqEeHhIx0c4xKTLj7yW7BmPZlC6aqR5RWVjl67vWjjFo9duxbOX1BUWNRVIwMAAAD9AzR1ALqF/TCrsuLC/E+FeAf5fSXFxYsXLtqyecucVeuP37irMES5O65i6+xyKyBYXE5htLPzhfPnWSw4uQYAAADoBE0dgG7Bx8trQLUIDOmT0+psNvvShYujRjoLDZK5FRDi4OrerZfj4xdYsXXn6TsPX4WEuziPosXCzhsAAAAAQtDUAeg+w+3sIsPD8E7xy+IYDNfRLgEvA0/cvLt6x24BQcGeua6qhubZe4/GzZ6/YvmKtavXVFZU9sx1AQAAgF4L9lMHoLt8KioeaWeX8DaZn48P7yw/pbqq6uCBA+Fh4QvWbnSdNPVfB472mPramisnjrwJDV6/Yf3M2bPxitFLqKsM5RcW5hPood+XBrjmxobWz5/TszLwDgIAAJ148A4AQL+lIC8no6AUGhk9ZpQT3ll+gMPh3L9378Sx4xYj7G8FhIiKi+MYRlhUbNP+I6PGTz69d9fjx777D+zX09fHMQ++SCTiCBtrdQ11vIMMCD6PfIwd/nRrIwAA6ELQ1AHoRja2duFhEb28qaelpe3asbOxqXnvuUv6JlS843TSMTK+/PiZr/etWdNnuo1x37xli5Dw9w+675+EhIQWLVmsqaWFd5ABgYuLKy8vD+8UAADwjwH9tjIA3c3RwY4WGYF3iv/U2NCwx2P39ClTLexHXvF93ntqegcCD8/keQtvPAssqax2sLV74uuLdyIAAACgR0FTB6AbWZgYsVitSSlpeAf5hmd+/g529gXFpdf9AqcuWMxDJOKd6NskpWX2nPbafPDomdNnp02ekpOTg3ciAAAAoIdAUwegGxEIBKrN8FehvWuvxg95eTOmTT927Ph6z4N7z16UkpXFO9GPUW2GX/cP1DCmThg77vChQ8z/Y+8uw6LoogAAny26U0BaUkQQJcQCFLG7u7u7ExO7E/MzsFEpxSYFQRBp6e7aZZeZ/X6AigJK76rnffwhO7szZ2bPzJyZvfcOk8nriBBCCKEWh5U6Qi3L1tbmDd88rJTFYjnt2z9k0OB2HUwvPnK36vUndZ4TEBSctnDpaZeHIR8/9bHt7enhyeuIEEIIoZaFlTpCLauvXa+4yIis7BxeBwIvvL379u4TEBR86vaDGUuWCwoJ8TqixmirrrHv/OVZK9ds3rRp5vQZKckpvI4IIYQQailYqSPUsqQlJfWNTdyf87JfaVpq6uyZs9asXjNl0XKni9fUNLV4GEyzsHEYcOmxp6yKWn8Hh5PHj7PZbF5HhBBCCDU/rNQRanE9bW29n/OmAQyHwzl98lS/vg4SCkqXHnv1HjiYJ2G0BBFRsQVrNx6+ctPDy3uAQz9fH19eR4QQQgg1M6zUEWpxfXvbBvm8af37vgH+/gP7D3j81O2A87XFG7aIif+Fz7lsp29w9PrtYZOnL5g/f+niJTnZ2byO6I/EKcmMDwsIS2LxOhCEEEI/wEodoRbXXl9XXErmjV9Aqy0xNydnxbJlc2bNHjRu0vEbd3UNjVpt0a2PQqEMHDX28mNPgsbobWt35dIlkiR5HdSfhMj68OToirHDN7im8ToUhBBCP8JKHaHW0LWnjVerNFUnSfLa1au9be2YBOXSY6/BY8ZTqf/Ebi4pLbNq595dJ89fu35j6OAhH0NDeR3RH4OmYGqtK0EoWVl3+CM7GSOE0F/snziFI8Rzve1s3rX8WI3h4eEjhg2/dOnK9mOn1+7eLy0r29JL5DdGnczO3HnUw2HgpPETN67fUFRYxOuI/giF7/2ChCytO4nyOhCEEEI/wkododbQy9oyLyszOu5LC82/uKhoy6bN48eMtbLre/aua8fO5i20IP5Ho9NHT5t58ZFbWnZubxvbe3fv8jqi1sUpyMgoJH56kZmZmJhTSyP08oKU+KS8wg9+AaR5ty4/9GMgitOTMvH5UgghxFt0XgeA0D9BSEjI1Kqru9dzXe2ZzT7zRw8eOu7cadDR9MIDtz/igaOtQL6N0tbDJwLevDriuM3l1u3tjjt1dHR4HVQLK4m4e/hyqJC2jkjs8/gum3eP0mIAkRt45dCd1DZ6quX+j0KNVh5eZCVT+e7CsBuHzvsQmnpCMa+93xearbSQrJoPK97t+Dk/ipp8ltetyM7bndfbyPBsnRBC6B+H99QRaiW9bO1eeTdzA5j4uLgJ48bv3++0fNuu7UdPYZn+E/PuPS88dNM3Mx8xdNie3buZzL/2HjGR8+bwzBVebSetWTnFlIz1fxEYywYi+emOKZvDzOauWTh9yuJldqWnDv4XzgYATsrzPXPWeGvN3bdj6cIl/ZRymJ26WcnRAADy/c/MW+AiPm7VinkzBpkIRARHZnN4vG4IIfQPw0odoVbSr7fNpw/vi4qLm2VuLBbLad/+IYMGt+tgevGRu1Uv22aZ7d9HQFBw2sKlp10ehnz81Me2t6eHJ68jagFEtteedc6M0asnGIkCXbnr9J1HFvUSSnmwe8sjhYlLB2syAIAqKiLMDguNKAVWxJX1a+/Jz9o2wUAYoDw2Nq7C2NpKkQYAuc8PrDtZNmTVVGOx0kgXZ9finsP6ajF4vXoIIfTvwkodoVaiotRGTVvH8+Wbps/qhbd33959AoKCT91+MGPJckEhHLLjN9qqa+w7f3nWyjWbN22aOX1GSnIKryNqTpwolwsP2fbjhmgxAIAm02ngiG6qEHH3mifRY4iDGg0AANgJSUkVImKi1GTXEyf9FEdMdlCmAUDph6cesfpdrdUYAJxIl3Mu+d2GWjO9L2ydvcxVeuGpfWOxUEcIIR7CSh2h1tPdpqkPK01LTZ09c9aa1WumLFrudPGamqZWc8X2L7BxGHDpsaesilp/B4eTx4+3/rOoWgaR5vMmBIw7m1dvTk5kBwVFUE3MzaUq/2ZH+gcmC3U0Mcj2fPiyqEP/wSbCAECkeVy990Xb2kqLAUCkvnkVXKEklB8cw9Yc4XTfxWmKmQyNF2uEEEKoClbqCLUe+962/q9fNu65PBwO5/TJU/36OkgoKF167NV74OBmD+9fICIqtmDtxsNXbnp4eQ9w6Ofr48vriJqOk5OTRwqJif3wywrJYpVTFFXbSlWW2sX+j55GtR0+foBCTMRntqSWthoDgEjxPO38qlDdyspAEAA4Wdk5pJB2z0lTxgyx7aCEP9QghBDvYaWOUOvpYtoRAAI/NPihPAH+/gP7D3j81O2A87XFG7aIiYv//jOobu30DY5evz1s8vQF8+cvXbwkJzub1xE1BUNZTVWoKDz4QyEAADP6wZFzr3OobXR1FDnl5QQAQPF75xNu0rMcl9nKUahUGrc0Mz2jIP7ZsZPvpQyU2nS21IpydQ0uZKioqwqVhPi+zSAAoDzx+fkz7nHYnRQhhHgJK3WEWg+VSrXo3tPzWQMawOTm5KxYtmzOrNmDxk06fuOurqFRy4X3T6FQKANHjb382JOgMXrb2l25dKlxv3XwAZrSgFkLuxddXTBmxsKlK3c/Fxs0qYccTbT7tKU94v47dP2Os9OuG0Wjzp5f1UOeBqJdHBy0ideOg/qv9VIaP02pIDnr3dlDoSrdO0nSVAbOmdeV5bJk6IjxU2euvMXsMdFBG1upI4QQL1G4XC6vY0DoH3Ln0dOzJ094uj/57TtJkvzv+vUD+52setnNWbn2z3/gKCs/ITo+NjYpCXRGDTfip18FwoODDm9rPpp5AAAgAElEQVTfJCQosNNxp3HHjrwO5wfWFpbnnS8aGBr+5n1ESUpkdJ6whr6WjMD3V8vzvsRmMtR024pXa2/OyY35lEZX19eUZkBhXPAXhq6Jmti3iQVJn+OKZPWMVMTg33P29Om4uLi9+/fzOhCEEKqCTz5CqFXZ23TfuGJpakamShvFX7wtPDx804aNxSWl24+d/kseOMrJSvzgenn3xc8aS45N5HUwPzLqZHbmzqO7Vy9NGj9x0JDBq9eskZCU4HVQ9RUaEhLg7//1r0D/2t7ztpbX/P2+/beWD73/qf1+/wEDVNq2bWSICCGEGgsrdYRalYS4eHvTzu5e3jMmjav1DcVFRU77ne7fuzdxzoKRk6fRGX9L8wOGWocuakIcmnJnc02B37+9ldHo9NHTZtr0G3Biz87eNrZrN6wbPmIEr4Oql4L8gpiYmJZeStnf+9AohBDiZ1ipI9TaetravvSuvVJ/9OCh486dBh1NLzxw47MHjrJT3I+/Epo2oZd0o2dRGBTwuaKNjXkHwWaMq1nJt1HaevhEwJtXRxy3udy6vd1xp46ODq+D+o2eNr162vTidRQIIYRaBPYoRai1OfSxC/bzYbFY1V+Mj4ubMG78/v1Oy7ft2n70FL+V6amejlu3BdFUm9J2uTg8MIgp1cXERLTZ4moZ5t17Xnjopm9mPmLosL179jDxdjJCCCEewXvqCLU2XW1NGXmFlz5+Dra9AIDFYh0/euzypUvDJ07devwcLx84Whbvc/ducIaIeicrLchgG/U1VaSxPrmcPnLm2bsvTAWbosBnkTL99KUBoDT9vefLdxHZbCntHkP6WLT9sT0LJz/q1euXH9NL6G27j3IwV6IDADM0NChHyNTSWBygKPy1+8d8kgtAocp17NW7vXhti+bJNqgkICg4beHSPoOGHt2xxd6u9+atW/rY2/MwHoQQQv8mvKeOEA9Y97J59uwFALzw9u7bu09AUPCp2w9mLFnOyzKdSPXaNuNCnF7/KcPVks9s2+iZI0wDAI6AUkdbc0Uara1lN21pGTFRAFbC6/2zd9wsaDdo3mQHoTfrph5ySyO+zYed8PrAjNUHwuTsZ0+15z5ZvtE1gQMA7JjAsFSGgYWFNA1AQlupwPX6/ZAS6fbmlvridSya59qqa+w7f3nmijWbNm6aNWNmSnIKryNCCCH0b8F76gjxQJ/etpvWrps9My0kJGTuqvV88cDRgnevnxdpbu+lpSAB4+f1j/dRFwIAENfpZhx+I4ur2mfgGDtrYWBHua6dfbFw/K5j0wzEAGCUfeeTey7cGmi3rL0AAJH6cte8I1G91h1dbC7P+bDfLaZYxLKUC8BJCwxIoBhN6aJEg/xPV3fdzBm968KwdpWtaXJrXzSfsHEYYNG9p/Oxw/0dHObOmzth0iRGK3bzxYF0EULoX4aVOkI80N3SvJzF9H7+/D/Pl22UVXgdDgAA0AQZ9KKAe7djbGbqCGt0GgBqVS1aCj76v2fK2pgYCwOw4244nvUW7X9+gkFVk3UanUGviIuIL4T28kSa657jD+n9zi80l6cBgEafeUtM9Xu1FwAiNfR9OFdnuoly+pvjJ0PaTFq13lji94vmFyKiYgvWbtTWM9i3cc1BpwOtvHRsKI8QQv8srNQR4gEBAYHHT1y3b922cOzw2SvX2g8exuuIAKRsBo1t73P28MGzHfYtsTC2MKl6vST4Q1C+iJlFB3GAEh/X/3zLjZf3Mf3atZTIzkgr5DKEBAUBmO8fXvQsNVvXz7iyzyhN2mTIoMq3FQaGhpQr9pX9tGna1eKJp04ZS9Rn0XyjtKT44tFDng/vrVi9avLkKXR66x05bXr0EBYWbrXFIYQQ4ivYTh0h3lBSUjp15vR+J6frp44tmzI+IbbFh8T+HQnT2VsnmNEiL267/Db326usT76hGYLtzS0kAFhhb4NSqZqW1mrfWn/kBUdEcuhauupCUP7xmd8XSjsLS6UabUPKPgSEFwGRliuqo04GP3ubyKnPovnEs8ePpgzoU5iZ5ubhPm/+fFExUUEhwVb7R6FQmn2NOCWZ8WEBYUmsBk1CCCHU+rBSR4iXetr0cvf07N7VYuH4kWcP7GWWlfEmDoIAABAxGb1hSWeRqIdHr0WyKyew4wL802jGJubyNIDyjLRsrqSmrtbXxilE9tvnwUUihn16awsQRV/i0wlhBZW2NW44MyMD3+dLOUx1XOYwzMFUIPitd0zF7xfNe0nxcSunT7x87OCevXvOnj+nrMIf7ZSahsj68OToirHDN7imNWASQgghnsBKHSEeExQSXLp8+aMnj1NiIqcN6vvay6PVQyj1PXHkXRkAgKD+mFED1Ym42MRyAADgfAkJiAZ9S1MVKC4soQkIMqhSEpJfS3H2ZzeXl2z9iZNHGdAB2JwKAE458/vtWHZKWFQGAeyYj8FJAp2sO8kATaFXdyvR6GeeMWwAIjP4jc+LuhbNUywm89yh/fPGDLPobObxzMvWzo7XETUbmoKpta4EoWRl3eHnfru/mIQQQognsFJHiC9oaGhcunpl46YNJ3dvXz9vRlpyUustm5ORGPIiNKwUAAAIDqdCSN9As/I5omWRsTGkonFH0cDrT9/nM0y6dZLOz8osBgAAZuytQ08K7RftWWImAQA0OaOOGozy0Kd3o4oBgCiOvHv+UggpRqtICQiJphmYW8rQAGgKXXp3F/38wPVVWtKz+4k00cy6Fs0777yfTR/cN+Fz+KPHritWrRTi4dCZLaLwvV+QkKV1p1qeQPWLSQghhHgAe5QixEf6DxjQs1evwwcPzR4xaPS0WWNnzBIQaPm6tTwmKS0n5NAm8TG28lle90KNp2+brCsAAECUMctJIsPr8FW1zQsnqgqC4tTlgXuvbr9U2gVigxIpdpuujDGSrRr7XNB40uy5H/efdlox0lNbWUSy/agpSydpixFZTwOiuUbjzZUr3yfTfWRvzad3108uWbx/tXX6yToWzRMZqSnHd22P/hS2cdOmgYMH8SyOpiCYxUyquFhtaVNekJJaJCIb7xdAmq/sIv7LSeyC1MTkUnFdXbGMTymC7fTbfJ0hUZyeWialpvi9lytRmpGUK6CsJkOWlNDFxBi1vYIQQqhRKDhYL0J8KCoycuOGjTm5uYs2bO3ctVvLLoyZnJAtraFUkRb1OZUpqW5gqCD2bRpRGPcxQ1hfT/l7YcYuSPiSUCrVTl9RrObziYiy9MjYlAppbQNVmTorbnZWVHyRrFY7OYFfLbpVcdjs25fO3zh/ZuToUcuWLxcXF//9Z1qFtYXleeeLBoaG9Xhvcfitg2delsq3FRET5QbcCrc88d/STpUVdmHYjUPnfQhNPaGY197vo3RWep4YVfUU2JqTDpvHPrhyZNfV/HFnNgmeXng0stuBlydHSLPi3Y6f86OoyWd53YrsvN15vY0MQMn7M0ucwvRtO5JRr94wRl/fM5hW4xXJFtw+zevs6dNxcXF79+/ndSAIIVQF76kjxI/09PVv33G563Jn95rlHbtYzl+7QU5BsaUWJqyqoQYAoGxkpfzzNJqktulPhZaAlIZeneMo0kSU2hsr/WaBAgp6+gq/XXTrCfbzPbpzi7SU5C2X2/WriflQ3vvTqxxDezk6TTIUSrk63S5YcPxCA0EAAE7K8wMrD8T1P3B0soFwyeOY229Ep1nJ0eqeJNRWrqvaGY5yR0Hfh7laHfSlOuuK5vufWb7V33Lv0TnGtLfZ9+8FR2ZzbGQYxS+uXsi2OH9ytjGEsQtfagpBsefPryCEEGo0bKeOEJ+iUCgjR4/y8n6uKCMxbZCDy+WLROUwKaj55GVnO65aumPFojlzZt25d/ePLdOJ5PvbVjiLTN443lAUoCI3Nw/kLbuaCAMAK+LK+rX35Gdtm2AgDFAeGxtXYWxtpUj75aQcP/8PovI5OYrTNu2+7n5muvKbA+tOlg1ZNdVYrDTSxdm1uOewvloMAKDQGdwI94e+uSCo02N493aCtbyCEEKo0bBSR4ivSUlJOe7effnq5ZdPHs4bNST8QxCvI/pLEARx79rlqYPspcVEnr3wHjN2bEuMXN5K8l+dPfxccdLsASo0AOAkBwTGiJl3NRMDIJJdT5z0Uxwx2UGZBgClH556xOp3tVZj/HJSQaDf+1JWqbbdCCMhAOBEupxzye821JrpfWHr7GWu0gtP7RurxQAAEOs1eVaXtMsbdz9OZXTobCJc2ysIIYQaDSt1hP4AJqamDx49HDd2zPp5M/dvXFuYn8friP5snz+GzB8zzOu+y8VLl/bs2ystLc3riJqCyHrm8jS/2+iRhgIAAMzQu/eD6J0tzSUBOEmeD18Wdeg/2EQYAIg0j6v3vmhbW2kxfjmpNMjXP4+uN2BYNykAACL1zavgCiWh/OAYtuYIp/suTlPMZL52URA2nrptVa/SO467HiQTdbyCEEKosbBSR+jPQKPRpkyb6vX8OY1gTxlo//j2TewO3ghFBQVOm9evmTVt1Mjhj5487mTWidcRNR0rLDiEqdOhvSwNAJhhV4/eiKSZWlnJ0wDKIyM+syW1tNUYAESK52nnV4XqVlYGgvCrScyP/n6ZknZjR1Q2cwdOVnYOKaTdc9KUMUNsOyh9a3jOCn/rm0mAgO64jUt7lXk+8E4rrfEKluoIIdQkWKkj9CeRV5A/fPTIiZMn71+9uGj8qNjPEbyO6I/B5XKf3r09ZWAfKC/1eO41fcYMGq3m2DV/Ii6TxSQKs7NLOAUfb+67FickIdDesmP2k6fhTAqVSuOWZqZnFMQ/O3byvZSBUpvOllpRrq7BhXVO8g/y9U8Us+5j06Zq8zBU1FWFSkJ832YQAFCe+Pz8Gfc4DnBSfG+4hhQBAEOxnZaCqIQ4Pf3nV4T/ji2MEEI8g5U6Qn8eq65WTz3c+/XtvXTKuGO7tpeWFPM6In4XFxW5ZOIYl4vnjh47evT4cUXFFhtIhweEzWzs2iRcmtXLbpZzqcMsE8hip764G6Pe3UhYtIuDgzbx2nFQ/7VeSuOnKRUkZ707eyhUpXsnybomWUqH+UaJWvfsJvd1/jSVgXPmdWW5LBk6YvzUmStvMXtMdNBmQHl0TPCz83svPH54YdeJDwYr5/cXr/GK3K/iRggh9Fs4njpCf7DUlJRtW7aGfvw4d9V6uwF/5pN6WlhZacml40ee3r09e86c2XPnCAjw7rlKjVK/8dTLc2IiMwTU9dSlGFCaEh5PanRQqxqZnpMb8ymNrq6vKc2AwrjgLwxdk3pMqoFTkPQ5rkhWz0jl6ztYqQnZUqoyRdGRaaCsb6AkWssrfxocTx0hxG+wUkfoj/f82bNtW7a2UVVbvHGbmqYWr8PhIy/cn5zeu8uwveHW7dtUVVV5HU5jNOTJR6ipsFJHCPEbbP2C0B/Prndvz+fPzDuZzhs99PzhA+UsFq8j4r2UxIQ1s6aec9q7bcf2C84X/9AyHSGE0D8OK3WE/gZCQkIrV6966Poo/lPotMF9fV968zoinmGXlzsfOzRn5GAT4/Ze3s/s+9rzOiKEEEKokei8DgAh1Gy0tLWv/Xfd9eEjx60bnhoZL1i/uY2yCq+DalV+r18ed9ymoqJ8/+HDdjrteB0OQggh1CR4Tx2hv82gIYO9vJ9rq7edObT/9bMnOWw2ryNqDVnpaZsXz3PauGb5imU3bt3EMh0hhNBfACt1hP5C4uLim7duvXn7duAr71nDBwb7+fI6ohZUweHcOH9mxpD+6sptnr/wHjpsGK8jQgghhJoHtn5B6K9l2N7w7v17t27e3LFiUeeu3eat3iAjL8/roJpZaKD/kR1bxMVEr9+6YWRkxOtwEEIIoeaE99QR+ptRKJSx48Z5eT+XEhWeOsj+3rXLBPGXPOA9Pzd395oVW5bMnzZtyt3797BMRwgh9PfBSh2hv5+MjMze/fsuXHL2vOcyf8ywzx9DeB1Rk5Ak+eC/q1MH9hEVpHl5P58wcSKViocyhBBCfyFs/YLQv8LMzMz16eNLzs5rZk3r1W/AzKUrJaSkeB1Ug0WFhx3evongsM+eP9fF3JzX4fwZ2IVpSQnpFW1M9BVpvI4FIYRQA+CNKIT+ITQabcbMmR7PvYiyoqkD7d3u3fmDnlJcUlR0ePvmlTMmDR086PHTJ1im1xMn6e2VdeP6jjzow+R1KAghhBoIK3WE/jmKiorHTpw4fPTwrQunl0waEx8dxeuIfs/jwb0pA/qwCvPcvTxnzZlNp+PvgfXFUDPTkSMYHa2tVfCGOkII/WHwbIfQP6pb9+5uHu5nT59ZPHF0/xGjpy5cIiIqxuugavElNvroji15WZlOBw/07NWT1+H8gVjh/n5Z+v27aTJ4HQlCCKEGwnvqCP27BAUFFy1Z/NjtaVbSl2kD+75wf8LriH7ALCs7vX/PwnEje1hbuXt6Ypn+W5ySwlICgMNkcr6/yI5+5/NFq6u1rkBdH2NmJibmsKrPpzQ3JTYuo7TqjxJWbZ8iitOTMrFBDUIItSis1BH616mpqV285Lxt+7ZzTntXz5qakpjA64gAAF57uk8b1DctPtr16ZMly5YJCgnyOiJ+RmR9uLtjbGfTIQceXts8bYBlR8vxJwNLAACA8+Xt20iVrtZGlORnB2f36Ww5dP/bkq8fyw103rhm54UnL+9smDD5mG8eAEDJZ7cDM217jj31gVMYfnvDKMuOnfus98ivtjRWvJvTui2Hr909Mc9+yK4Xea28sggh9A/BSh0hBABg79DX87mXSQfDOSMHOx87xC4v51UkqUmJ6+ZOP7V356bNGy9duayhocGrSP4cNAVjC3VGESFUSujOP3vz0Bgxv4s3X5cAAJH67m2YnLWlpMfJm2ld5o0xzI+Ky+QAABDJT3dM2RxmNnfNwulTFi+zKz118L9wNoCYrqmmGEe6a1cFr9NPiWF719oLZKTlsL8uKt//zLwFLuLjVq2YN2OQiUBEcGQ2p864EEIINQ1W6gihKiIiImvXrbv38EFkcOD0wQ7+b161cgBsdvnlE0fnjBzcXk/X8/mzfv37t3IAf7CCgMAQilG/qWOs2jAkNTWUqcW5+WUARMY7nw8SpjJxzzh9F07uXJaWTO1gaiIGQKQ82L3lkcLEpYM1GQBAFRURZoeFRpQCQIGfTwDDRDHtHW3IonEdmenpbE19PcnKxeQ+P7DuZNmQVVONxUojXZxdi3sO66uF7d8RQqilYKWOEPqBjo7Ojdu3li1fun/D6i2L52Wlp7XOcgPfvZkxpH9YgM+de3fXb9wgKiraOsv9OxQH+AaQ1sOGGgoAACczM4uUU24jDpDn8yaQRcsm240fbihc/tnPL1XPykqVAeyIu9c8iR5DHNQqx4NhJyQlVYiIiTIAivzf+BYIlAgZjhuiL8xJePc2Qsmqa3shAABOpMs5l/xuQ62Z3he2zl7mKr3w1L6xWKgjhFDLwUodIVSLYcOHP/P2VlVSnDGk/80LZys4LdjCITszY9uyhXvWrli8aOEtl9u6enott6y/FDPYx6+0c68eSjQAYEf5BiTKd+9hJgz5/m/9S5S6TZpoq0ADTryvX4y6hZWuABDZQUERVBNz86pHX7Ej/QOThTqadBCGksA37/JUe8+YaitPAyLl9ZtQScuupsIAAETqm1fBFUpC+cExbM0RTvddnKaYyeDIjwgh1IKwUkcI1U5CUmL7zh3Xb/7n4+U+Z+Tg0PcBzb4IoqLitvP56YP7KclJP3vhPWLUSAqF0uxL+fuxPvr6ZRlZdVWkAUDxO5f7CZ2mTrSRguKAd76F+kPH2inRAIg0H99PCpZWHYQASBarnKKo2laqss4u9n/0NKrt8PED1GjM4Ddvc9sPG9NTFgCI9DdvgoUsrbqIAwAAJys7hxTS7jlpypghth2UhHi3wggh9K/ASh0h9CtGHTrce3h/ypRJmxfN3bN2ZX5ubnPNOTw4aM7Iwa/cXK9cu7Jz1y5JScnmmvO/hh3j55eob9VVlQFEzutjJwKN122bZiQIpUHvfPIMe9t3EAIAItvP74OYpaVGxLuwYkYbXR1FTnk5AQBQ/N75hJv0LMdltnLACn3jm2Fo28dAAACIrHdvAqldrAyS/MJyCQCGirqqUEmI79sMAgDKE5+fP+Meh91JEUKoBWGljhD6DSqVOnHSpGfez4UZlKkD+zy8cY0kyabMsDA/b9+G1Rvmz5w4YdxD10cdTUyaK9R/EifZx/czjcz++OzBmR1bblJmnjkwxkAIgPXxrU+Gno2NgSAAACcpIZHJinnxrLitvjiIdp+2tEfcf4eu33F22nWjaNTZ86t6yNOgPOLtuwQNSyvdyo8kJyQyybTAd6VqhrI0AJrKwDnzurJclgwdMX7qzJW3mD0mOmhjK3WEEGpBFC6Xy+sYEEJ/jAB//00bN9EFBJdu3qFn1KGhH+dyuY9v37xwxKlnr14bNm6Qk5dviSD/JtYWluedLxoYGtb5DiLl6gz7c6rH786UT2XK6egr1dEVl5P5MSBZomNnjW9Poi3P+xKbyVDTbSteV2PzktQvhZKaKtWfXcspSPocVySrZ6TCj0+0baKzp0/HxcXt3b+f14EghFAVOq8DQAj9ScwtLJ64Pb14/sLKGZPsBgyeuXSlmIREPT8b8/nTke2bWaUlJ0+ftrSybNE4/x1E+qtXASJdRpnJq0v+8rqHoWhsrfjDK4Iymu1lfjlzMRXNn+txhpSasVmjIkUIIdRg2PoFIdQwdDp99tw5bp4ezILcKQP6eDy899uPlBQXH3XctmzK+H4O9k/c3bBMbyZEXoT3zRM33paKkZm+gV+YvI4HIYRQM8N76gihxlBWVj515vSrFy+3btnifu/Okk3bNNrp1PrOZ64PTzvtNjExcff0UFZRaeU4/2o0MZWO9ksv9FkKAFQBCWFex4MQQqiZYaWOEGq8nja93K08T508sWDciMFjxk+ev1hYROTb1KT4uCM7tmSlpezZu8fWzo6Hcf6tBCRl5XHIHIQQ+nth6xeEUJMICgkuXb7c9emT1NioaYP6vvbyAAAWk3nu0P55Y4ZZdjHzeOaFZTpCCCHUCHhPHSHUDDQ0NC5dvfL0yZOd27e7XLqQk5mupaX16LGrppYWr0NDCCGE/lRYqSOEmk3/AQN69up18fwFTS3NgYMG8TochBBC6M+GlTpCqDmJioouWrKY11EghBBCfwNsp44QQgghhBA/wkodIYQQQgghfoSVOkIIIYQQQvwI26kjhBD/KioqGtR/AK+j+IeMGDWS1yEghNB3FC6Xy+sYEEII1a6goIAgCF5H8Q8REhISFRXldRQIIVQFK3WEEEIIIYT4EbZTRwghhBBCiB9hpY4QQgghhBA/wkodIYQQQgghfoSVOkIIIYQQQvwIK3WEEEIIIYT4EVbqCCGEEEII8SOs1BFCCCGEEOJHWKkjhBBCCCHEj7BSRwghhBBCiB9hpY4QQgghhBA/wkodIYQQQgghfoSVOkIIIYQQQvwIK3WEEEIIIYT4EVbqCCGEEEII8SOs1BFCCCGEEOJHWKkjhBBCCCHEj7BSRwghhBBCiB9hpY4QQgghhBA/wkodIYQQQgghfoSVOkIIIYQQQvwIK3WEEEIIIYT4EVbqCCGEEEII8SOs1BFCCCGEEOJHWKkjhBBCCCHEj7BSRwghhBBCiB9hpY4QQgghhBA/wkodIYQQQgghfoSVOkIIIYQQQvwIK3WEEEIIIYT4EVbqCCGEEEII8SOs1BFCCCGEEOJHWKkjhBBCCCHEj7BSRwghhBBCiB9hpY4QQgghhBA/wkodIYQQQgghfoSVOkIIIYQQQvwIK3WEEEIIIYT4EVbqCCGEEEII8SOs1BFCCCGEEOJHWKkjhBBCCCHEj7BSRwghhBBCiB9hpY4QQgghhBA/wkodIYQQQgghfoSVOkIIIYQQQvwIK3WEEEIIIYT4EVbqCCGEEEII8SOs1BFCCCGEEOJHWKkjhBBCCCHEj7BSRwghhBBCiB9hpY4QQgghhBA/ovM6gL8Qkfvlc2oxFwCAQpVoq68hTeN1SH8kDotFCgkJ1v/9TCYpLFz/9/87OPHe/3lGl3GpUkb9R3dvW5WOxSEPbvilE0BVtho/pKM4b0P8Y3DSA5+4vgpLLqFLyasa9uhr30Eed+/aE6yhak1IzNLWV9c257vvgpPw4pZ7ZAmXKqZnP8ZWk8HreIAZ9vjq2xQCaPKdhw/rIotHBtRMsFKvF5aP0+R1j7LIX72HIma7/s7WPqLAfOU0dsUTJgkAVOkRx14eHCDWSmHyg+L3J1ft9kgnuAAAosbTd28bolafAxZR8CXI/31I2Mew8KgvadnZ2Tm5hSyapLKGlqaBxcDJU4Z0UqzlQEzkf3K/ddftpW9QVHJ2IYsrKKmgqtu5Z5+BI0b21Zdo5lX7Y1UkvDzndD25gm4wr9Owr4UUURT24MD+F+UgZLN98MCO4nhW+b2i9+dWLnPyTirnVv4t/Enk/cnh/9LuXbtaE6yhak1IzNLWV9c257/voiLptfN+54QKutpU/RH8UKmzPj85uNeTCQKW62yGNE+lzspNTi9gcyk0MQUNBTzU/KuwUq8XbnlRVkpScsWv3kORLPh6Av935b87vv2o5ycmCQAUSasVO+zrVaYDQJHnvsmrPZk/vsjJT4kMSokMevvY5cboNY6bRuoLf59IZL07s27dSe8k5vcrKGZBWnTAo+iAxzdvD1y6Y9uMLjJNX6camG+cpu7yLqjry6YqD3U8Oc9UoF6zerlv0t6XxdVmRaEKSStraGnrduk3cpCJHO/Phugr1oeLOyrLdCqFQaMSHILXESGE/mrlUZcXjDnykUNTHnfOa6edKK/jQbyBlTpqPrkvjm+/FFFZONOkuy7aOK2j8O8+Uy9cTnbIjQ3LBGWvb7Gpqr1Lg88uWXzIJ7f23znI4phHjouLuaePz+zY7PchyLKcL1FRmXX9wq6nGcMAACAASURBVMIg8li//PWl+qxKs+Ojon5eiYhQn2fw36VrN8ct37xquGHLHJ1pojp202a0I4Cm3k4YLwh+jxXi7vGpnAtUSevl547P1C6JDo8oboOtrVoUZin/wO8CIR7BSr3B6PoTdm3o16ZGX1wKXVZbGACAptDezoHgcAGAImwg969sYiLT66Dj9ejK3xWoMj2WrJ/cXqhBc2DItetobm5u3tlEt62ivKKcKDv98+vrBw7djSghAcjymBtn747rNkuXAcAKv7zvtF9VhUsR1raft3iKg4kKLf/z65snj9z+WEACkFmvDu++ZH5poXHDwqg3mnrvqaNMJCk/vUyVMFJu6HmMpm47aYiRGAAQrIKs5KiAV+8Ty9J9r2xYREjc2NpboSXOi1KWk9ZatsB8/1bF8XFJHABgGPcZbCIjRJMx7qbG65j+fpil/AO/C4R4418pI5sRRaSNnkU3o7rvpQl3m3+kWysGxBeIVDenXTfjOSQAAFXBbumGcfoNut0o0XfXm2HSUj82NWyjrNWOlvB+5tUvFQDALf/g7589XVeZVvz25n/vSyrrdJp099UnDk7XFwIAUG/broOxCnXCgptfOCSQJUHO591HHRqq2CJ3gGgKnYbPna/fHK0jaUoW4xbPafdtViWxD7bNXXsnlh1/+8ytMT0WGdWrLQ1f4JTkZBYQUkqKYn/XbTdOcWkZCQBAERQS/btW7R/0t2YpQugvhJV68+Mk+3sEprAr76mrW9h3VvnhZMDJ/uzzxjckNj2vhBSVV9Mzt7WzUBVOfe/un8TiAgCFoWLWz1KNQWR+8PKNLyUBgCKg0tnBQu17SUikBXn5JZRxAYBCa2PS31qLAdXfT1cy7W+lSWQEez59GZZcRFfpOmycvW61VhScvNggX9/gqOTsQiYISsio6JhYdDXXV2jkb/lE0iOn3feTKirbvbSxX7FutE4DZ0WTlJaq7XURHS11GnypAAAgycLCAgKUS995vUir6jRAUx08bbR+tbvmNEXbmZO6PtzxqpQLQOa9dHuePmh8Y4ej4BWxdkPXLn79cunDrPJwX7/UuUb17i3FyY8LeufzITY9j0VX1G7fwbRzp3Yitb6zNPqVV3gOAVT5DvY9dH5qYsNKfe/u7hedlpmVnc+iiyuoG3Wx7t7NVK3ObmRE/meP68433V8GRGayuFRBaXUDY8t+k2Zaxe2cdyGCQxGz3+K6s2/lUspj3z4NzSKBKm3Qy9ZQKDXQ08M3KofWtkufgTa64o2I4ccZSpUk+D178T46rRjEZJR1zW16map8bYXFTA7w8g6MTCsVlGurpqFn1tVM7XeNizjx7x5/yCShMCqPBAAgsyM87t0VBKp4u+52xtV6ErByYj+Ff46JiU3Kp8upa+voGhoZaUjX/OLqufo1tcxq1jfsr5uj3gn2DVEQ//7tm4CIhIx8JlVURknLpKtNdxOlerWMqyNLf9oUzNRgb2//zylFVGklVTWdjlbmurWOuNWQLK2PRqdofQP+3fLr890126Kb97uApiVGTeW5MSFBH8IiYrM4IjLK7Uy7WnfSrDuPG5j2DX7/D5ixbz0/ZlVwASg0eSO7HrpVTTI5OeEvnwdGJWcUccVk5BXa6pp17dJOhgEARG7Yy9fRhSQ360sRCQDASgl6cq+ARqErd+pvpf7jchuRBnUfdpr3S0HNAyv15seOuLdr5a1MAgDoalMv9Or87fxJZPlc2O14+klEHvG9ZTJ1b9tu09YNKNyz4UZyBQBQZUccsbNUY3DinzqtORtbAQA0uREnbKtX6uzYx/tXOSdUAABVdNABO2stBlR7P1V84B7lxJPb9t0NLyQAAATjFPra6VbeCWTFe5w9cPSK++f8iurNo6k0Kb2+M1evmWvTtqE3iTnxd3fvfZxSWTpTpXvOXTJUq9m64ZfFJSR/7blHE1NWURQAVtjHsJyq16jyVl07/dQSnaHao4cJ49U7NgCQJe/9gorHt631KoCviWloqNAhi03m5mQTUJ9KnUh/57xv75lH4Xnfv1kqXa7j6JVDK2p2fyUK/J3XbK0cycHSWuf7bWJWrOuBnU433iaUVP/Q7QtHBFW6Tt3iuKyveo1YmDH3ti3bePtz6dflkuX5X0Jeffno86qDPmRmZVZQWCWcb7MrC76+brUnEwQsVxzLvnLU8fanQhIAGJ3IDl11jQQbHsP3Ga4+U+Z6cc/Ft8nfe3dTRHQGrtu/dYJ+4YtTO3ece1F5hVs1Savvyv07Z5hJ/2Kzln/4b90K9+99ndmhV9aHXgEQ6LDwds+qSr0w/N5RpxM3XyeUVNunqHQp/b5Tlq2cba/5Q/ur369+HZp9NRsUdkMTrGoRH287OR69HZj+Q98NqqThoEXbt0z7bY/vurK02qY4y3a7svv8iwTm9/UVUDSfvmPvSnvVH7KkgVn6G41P0XoH/Ev1/+6aa9HN+V00OTF+Up74YP2hQ7c/5nKqZaa88ZB5a1ZMtfr5J9UGpn2D3/9zbHH3N8xZfz+OTQJVoeeqM3aV56uikOu7th6+H5pd/TxMkei3+9mpUYpApHqfWH0olP11ApH35sTqNwAUyaGH7apV6o1Jg7oPO837paDmg5V668l7e2Du3NOhxT91HyTLU16fWfVRklvfXoj1UB54eIF7RlZFjVmWfLiwdP6el2k1z0ckUfD56cH5MRkHLmzvr9KA2zvlMTd3HfDI+Hb2y/fePsjslFo7HcMufUZOGNlds/EdIom8sAf797p8qboGEDQcM663LEBObGzC1+KdodWu5t17RhtdXWX6u4QKACBLoiNjWUM6t1Bb9ZZTkpiYVgEAVAlJqXp8HUS6165Zyy+HFXOBKqyg276DgboEMy0mPDTiw40Nn+jU+mZXke/h5asufGICVdrApo+VgWYb4fK8tGjf595hmalvz65YK9X20uz2P2zyIr8Tazbc/lxGUqU6jlg0f2xvMy1pIivSz+3ysbNuoWF1L7ki8vK6jXl5FQx5PRM9WWZSE2KommHUpVXLc3I4wmpdHXoZK3EzQl55BiSVxTx2XCeYrh9y8WEsW1it61Cbjm3IjNDXHv6JZfEee9Yp6d7d2P0X97LpQhKSkgLA5ZQVl3G4QGWIiIkwKEAXYVR2VsnzOTxnwYmAfBKAIiilqmfUTp6bEx8ZmZhbEPHk6IKQyM0XDk7Sr5mAda3+bzXPajYw7MYkWMmHcwvn7HubRZJUqoiCpp6eujQ7LTIiNqO4MOLhrvnFtCunJhs0qU9uRdSllYtzcjgCSmb9e3VWF8qP9vV6EZmf6X9ug6O6zrHx369wG52ltWpKitYz4F9pVMo1z6Lr1oD5N3NikGl3d26uYHOFlAy7GOsoCxYmfP4UEZedHXJ35+zo1IOnNvRR+nYIbeima+zeXYWT4uG4aHNlmS7VZe6hAzM6SQIA5HkfXLH1TiyHS6VLqhloy1bkpCSl5ZZypeUVKkcXpjJEJCQlOUCyS0uYFVwqVUBYXJgOFAkh2reeUY1Lg7oOOy2/t6JGw0q9wYh4191zP/zwWxBV3GLu3lldflkMlvqe3XnhY1WZTqUpmA4c1stEU4ad9tnnyd3XcQUFzRgiyc5My6KIqHUdPKSHjmhxclhAIQMAIP/loTX7qsp0qmAbixHj+ptpSBHZ0e/uX3X9VEACyYy56XjI0nTvIKV61uqcmFt7D3nn/DBeHVlRkhkfkhkf4uN233Wq48FVDmr1Pgewgi+sP/W2gAtkeWFGYmx8WiG7sosqXdlmxfa5luIAnLz8AqLqSoMqICMnX3PmdEVFeRokVAAAEOkZGb8cXpMfEenPj550yyaBKqDdpcvvNx+R5rZ/29WwYi5VSLP/2n07p3aqun1aEH5r97rtLhEl9axEMr2u3YpgktQ2DlsvO03Q//ZrBTHfY8vUhf/FFr+/+yB4cnur77nOib1z3PljGQl0rVF7T+9wqMocCYshizp1aEOZsOFxel2jGZIFOQUynadvd1zUX0+CBsyCAlKwUTF8m2F+Tr6i5dwdjgv7agoDAJTHXV88YZNHNuvznZNRNEWLOdsdFzloCQMAcBJclk5Y+ySDHfv4wevF3QfUOfq+2JADAUMAOPHnpgzY6cMGgZ6bX5wZJ/t1cr73oY2n3ueTQJUwGrV2z7oxHaQAAIjcD7f3btpx53Npqueezc4dr84z/vkkV8fq/15zrGYDw25MgjGDzmw98jaLJKkKXeduc1xkXxVRsvehVWtP++VmvTxx9IHN8TGqTWiaRubn5Mt3nr5555LBlS0KiJzXu6bOcP7Mzn11zy121HyDyn2nCVlam6alaH0C/pVGplxzLPpX6j3/Zk8MsoJdIdp+zMY9a0cbV+VlcdS9XYs3uEQWh13edsDU6OsZraGbrvF7NwAAkf3m0JJ11yLKSKCItp+w79DSblWt5XJe3nON53CBrjJ475W9IzSEAICZGuTl/klMVwAAQMBo/rWg+QCsoP0jxh//VEFpM+LYT6M0NjYNaj/stMbeihqtxggm6HfIgmg/b+8X1f+98IvP+81xPtfb5WHVuChAUxuw4+rlg+sXTR43YeaKnWeun5nTReLnEUSahiplPu/s7Ut7V8yaOXf5thM3D09UpXEib59xiakam0Wx77arV3ctnDxi4ODR01YeuXZqloEgFQCgIt3jxpN4Tv0WQ6Q+Pnri1fdBBqlUYWkZccbXdSGJnPfOa1ZfCGHW8fmauAXxAa+8vV94v/QJikz9WqbLd5195MrRqrsRZElp6defBCjCIsK15DBVTETkaxDc8pLS8novvyEqIm+uHj185LBq/0YuvPixMQsjixICvNzc3dzcnzy8df7QhkmjFl35XE5SacoDZo0z/e3vAeyoB1efphFAZehPddz7rYoCACmjMVt3ze1U20aqDTMyLKyYCwz9kbNG6FdvVERT6jWiry4dgMjIyKp+4cOOfPrEv5QLVMEuY6fZ/XiBx9AaMnt0+7o7w1IEdMbtP7F2kJ4EDQBAWEpKtFExfJ+hSIeZh06sqqpfAUBQu799FxEqAFBE2k9zOraiqn4FAIaGfT8LCSoAWRAdHd/YDCESHv/3IKGCBKp0r2WHd1adLAGAJms6bpvjHFMhKnBLgm/efF1Uz9Wvh6avZkPDbkSCEZme126FMUmgyvZevHuZ/feIVG2XbZ9lIUIBMvfl42dJ9TzW1LUpjKYfPLVh8NeGv0CTsxhgo0sHIDmREVFlVa82JUtr0aQUrVfAv9DolGv6on+tnvNvicSgCJvO3LX1W5kOAOJ6wzdsnaTLAKhIc7v6IJoD0PBN15S9G8iCoDPLV54OKiSAIqg9dOfR9X2/dZcqz0hOKSUBqILGPXprVB3fhVXMBs+YbFvPm2SNT4PaDjuts7eiRsNKvXUwwwLe51YW81ShzhMXDa92fGco9Zi3dJR2Mz5gjSpgOHHN/O5tfuzJGv/yWXBVE00Bo9FzhlVvSy5hMXG0lSAFAIBkfnjnn1WvG0ys4P8uemRXDZUooNpn3WXvwPeBQb6uJ+Z0katKLbIgwPn80wbdsKqBzAn1uO8WlFE5Ey7J5X5vBgm1XuJQqdUymyRa5p46WZz0KTj4Q/V/ITFZZfVt6FpdRcSNTfPmLZg7b8H8Jet3HLn5LqWcpIobDNt8fPOQ39/E4CS/ffORSQLQO/QfZPrz+PHChsOGWAjVb08XaDd0y6nT505vHWP0cxvlgqTk7AoA4P7QTIvIDgmJqgAAum4X85oN2AX0ulrW/aM6w2T4xJ41xuVpcAzVZmjcf5j5j42xhaSlpagAQJUztery44OkBKVlpKkAQBYWFjW26Vl+oG9QCQlAle89cpDOT2sqbDR8qKUQFaAi3c8vrMblau2rXw9NX80Ght2YBCsNfO2TQwJQFexHDNL4cREMdSsrfToAlxUSFFzS8A1QbU7GA0ZYyf7wEl1OVoYCAFxOcVFR5SGjSVlaiyalaH0C/pVGp1zTF/1r9Zx/CyQGVchy8PAOP/d5FOs0wN5QAIAsD33nl0pAwzddE/Zu9pf/1iw58C6HAApdpc+mo9uGa1e7GKRLycgIUAFIpu/14x7x9b+T9V3j06C2w07r7K2o0bD1S4PRNPrNn2opU71ApAhp6PzyngyRnZCQWXWgommbdf65OYOYqXUXxcuxKc1VUQpq6Oj9fNwqDQ/7VHVBTKFWfPE6cci7+mQyrbAqGbjs6MhINqj8trN3if/jJ1HllScketuRm3bP7S4NACBnMHD1vqL4YRu9CggAIHPfePvmjxguV5/IBfSGb3TqUs6FCmZeRlLEG1fXgDQWyS398uzQ/BzOhUsrLMRp4qIiX8sCLovFqqUyJpmsb13tKHRR0RZ6dpCS5eA+umI/ZIJsB/lqx0AiLzEytYj4KUKKkLyWjtIvYqLS2lhNnDt19LA++vXqCcuOjo6pAACaTDs9jZqJSJMzMNCkvfxUj2qUpmJip/I9fGZuamJickpqWmriR7erT7LJGtf2nJTkVA4JQKUpqarVsg8Iaamp0iCqjjsxP1xQNTqGH9S4cBMQqAyr2uVdtUmVF6dEY4sU1pe4L2UkAFXAoKNJzfYzNAUjI236yzA2kRoXl0tY/zQEUa2rXz9NW82Ght2IBCuPjYwqJACAJlIS/eBq9k8Bs9MIChWALE9NTmaDdFMGIf15U9AEq9YXiIqqA2rTsrSm5k3RWgL+hSalXNMW/Xv1mH9LJAZNw7B9LY9zFtTWaSdODc0lObEx0SzQoDVw03EavakrIq+sD87NqyCBJm+94sjuSe1/PNzT2g6cNvaGz8VPrIKgCwuHvuk7fdHCqQPqd7Sv1IQ0qOWw03p7K2ocrNQbjCpj2Hv8lF8N0VBTRWHxtyfG02Rla7aspiu2UaRCSrMEWDtObl7B1x6mXFbE4xMRdb6VzM/PZwP8rlJnhfv4pFad+xkafQZ2r3aXj6bWf1DP/c8f5pEAwC39Ep/IArn6dOqkqZg5qJh9+3PuVIdtk+dfiykngSwJvXjk5oDLs/RlZWXpFCjnAgDJysnOJuDnQZGJnJxvTXKocrIyLdO0jta2x8zNvxxPnfnuyLglDwt/KpEFTJbfvbGkQ/XjnUCX5dePjWlLFkR7nd25535MdviHDMaC+h64mUWFJSQAUCUlJWpbVZq0lGS9a0IiL8Lb7dlb3wDfgNC4nLKavZJ/fHdJSWXfCyERkVoP4MJiYgIUYNV36Y2JgYeIoqJCEgAo4rJykrVserqcjHRllVxUVFgB/DJYaEPDbkSCkQX5BSQAACfe9cAW17oi4ZYW/9zFvgW0QJbyLEX/0JT7piUSgyopVWuve5qkpAQFcoFbWFhUAQAN3HRN2NQcVjlBAgBFTLdbj/a1HMilu688eYS2bouzXwanMNLt0KI3T57M37JpZrf6Nn5p1jTgq70V1QIr9VZBZdDp39pNVxAVJMBPe05Fs9zS+FUIVCq1nm3hSYJZVkJAbft/dRU52d8ayVDlFBR/zCUheTk5GlSOQM0tLSlpTJsQAJpCz8kjzG7t8SkHAG5Z0Dvf9On6ijq6WnT3MA4AACc+JoYJmj/9IF8UF5/ydRhHQR1dXV6NBUthCEvJyNB/Wne6mGCNTUsTlJBTVGAoKkzduiExdObF2LCLu890N1vf7Vfja3+bIZ1OoQBwuRxO7aPlcTj1vF3I/HxzzcKdrnHMymf8UAWlVLW0tbU0tbT0Tdt+ObbxevRPd5+pDEZlt4S6EphgsxvYtLHBMfDQt9Un62jsQJCVXwiFRqPzT1PDhobdmASrunNHFZRpqypT530NmqJEK5yDmjtLeZmif2jKfdcSiVHBqf17/fp9MxgMWsM3XeM3Nd1oyiodr93/RZUX+h7bcLS985quNUY4FNDou+aKsc2NY/uPuXzI4pREP90/NzX/xMW1PWV/fmstmjkN+GlvRbXA7d4qGLKyMl9vAxNJX76Uw08DjhfHxiU2rFRvaOVLk5GVEaACiwQAqnTvlUdndqzzRyyKuKrs76/saaLi4lSovBQn83NzCGhXbaXKc3Nzv9XxEpISjT1nUGnfB6UiobS0lARBHVOTNvSw5AoAILP9fYNL7Hv8UKrn+PmHMKtG2WEYmpjwbBhYUQfH1w6ODfuMuOXY0Z1v7vEri7l39clkq7H1uCkmKC0jQ4VUgszOyCir5ccQdlpavToKcBLuOO1zjWOSVCmTUbOnOlh27myk+vUhLqzAfSdrfoQqIyNNhUSCZGdnpnPg5/aSUJ6akUlwa2mt0Ywx8BBdTl6OBokEUZKRnsn5ea8G4KSlZ5AAQKFJy9T3KSmtoKFhNyLBqNIy0lRIIiji3VffOTiIt88zaN4s5W2K/qEp901LJAaRmZFeATV/3SzJzMwjofL7pzVi0zV+U1PELVc6zo+Zfti/qPTj+Y27DK/sHlTLg0oYSuaTd123G3B5x/oDHomc4rDL+5x7W6ysx5jCzZsGfLW3olrw4zX330jCyFi/6qqoIuO126sfe2xyYh4+fFujU5sA42spzS1nMqvf8ikJfeeX1tBfoUQ6GBtVjcpCFn0MTpTpZFkrMzMzi/Yq9WipIqCtrf11mBdO/HN3/2p9zInkp49fF1SFSJXS1dNs5DisnKQ3PuFf151Kl1dQYACIWdjbqVdtTiLR9fqDuOpbhxV2+4ZXTlU/V6HOfezb8eH56hcY7YaNdVCgAlnw4sadj/X5RV7A0MhQiApAMj++D6o53CczLCAosz7XgazQgMAiEihS9qtP7ZozzKajarVnLRLFtf0wIqhpZChPBwDO56CgnBqXA5y0gMDIBl2CNiIGHmJodjRWoQMAJ9zfL7PG6rMj/QMSOQBA12tvKNn64dWloWE3IsEEtQz0pGkARN4716cJPB4xonmzlLcp+oem3DctkRgV6UHvI2oeKQuCPoQxuQAUYQNDfeGGb7ombWqKWOfZO9fZK9GB5CTe277lWkRd/UYFVKxn7d05QYsBQLKjffxi6zMQVfOmAV/tragWWKm3DkGdPn3NqvpBVqQ9cFxz/HV61f5Q/PnOlhWHaxbqjDZKilWPViFLg148/9qcozzx8e6dV6I4Da3UGWp2/btXtWghsp7vXrb5v+Dsans4Ozfa5+6x1aMnOPnWrys6Tam7raV4VQZxvtzcsfV6SC4HgChJ8Dq0/uCz/KqZ05Xt7C0qR3pNcz+weMGiBQsWLViwZOe97/V1ecjJaYMnzVu/7/SNp68DP36OTc7Iy0uLeu95cfOiA6++tvOmiFh0rZyRqOW4yd2rWiYSOd77lu9wCcnmAAAz2efi+uXHAqtGd6arDpk8pPmel9pKaPK9xw/XE6Byyz/du/kyrz4f6N67mxQVoCLD7cqdn05Z5dH3LtyLqdfBl1NezgEAqqis/M/P/2bFPbn3Mr2WakbUrLdNWzoAWfzqv6sBP1ZxnDTvc9d8mQ3K1MbEwEPCnQf2NxCkAFn86urFVxk/nDFZMffO3PrEBqAKdezTW4+fnhnSwLAbk2Di5jY9FKkAZM6zw47Xwot/mszJCL5z9MqbwmZftVo1a5byOEX/0JT7piUSoyLy7sUHcewfXmNFuFz3yiQBqDI97KxlARq+6Zq4qQV0R2/eNradIBWI7Ff71x9/l1/nCgiJi1eNK0ySP2QihUKhUACAyywt+WEfa9404Ku9FdWErV9aCUNvxOxx9z84fy4ngctJe314et//tA105NjJEZFJ+exaThM0Bete5qKvXhWTAGTm403TSkL6mSlWxHnfcw3JbnCdDgAMjWHzprkGHvEvJAG4pZ9cNoz1Om1gqC1DKcnPy81KS8koLCeBKjWksJ6NLBmaw+dOvBdwKqSUC8Blxj5cP9xtv7IiIzc1h/ntcENtYzdnum1lyzuyLCnY/YlfOQAAw0hzyveVIJlZkT7hH32e1r00qojx1DmD1StPjYx2Y1csfPlp14ssEoAsDL2+cvjtrTJSjJK8Qhbx9Va+gPaIFQt6y7dYlyqyMM738cOoGj+Zi2pY2pg0ZvS9b4RNRo3pdn2bd2Hak5uus+2m/G4IT1rbAdMn3353NKikwMdp5pyCVQuGdm2vLlGWFPbu/nGnC2+y6pcuou10teke4Zwsf+/X6d37KlUulciLeHbjxMFjbqmVT5IqZ5cDfG9tJNV90sxeHlue5bDCLyxbSCyZ7mBpYqDETYt4/8x5/7HHsQ3sa9eoGHhI2GTCkjFeC69Fsz5fWTilYPHiUT1NDRTZiR/9n5w9dNk3gwSqkP64eWP0+WvAhAaG3ZgEk7GZOMncc79fEZHlvWPSpMh5M4d0N9EULvgSFR0V+uruLbdPhYpjDYZ379Ma32NzZimvU/QPTblvWiIxiAyPLdPmp62cN6SroZpwUXz4u/vHD154V0AARcx04ox+Vf00G7rpmrqpaW36rnJcEDXrcGBR6cfzG3YZXN01UJUBACXumyZfKrbsa2veXlujDSPZ49S9CDYAUGX19NSqV9ZUaSkJCgCQhd6nNx7I7q6prt/TtqMsrbnToGFfCpF0b+vG2zEVQNcdu2fTUL7rtvz3wUq91cj2XLZ7Teri3Z5JHBKArCjNiHqfEQUAAFRhXVPtnA/heT+cLhhaIxcvevZp75scAoAsi/e+eqJyXEWalImtfvprv3q1aKhOzGzO/n1FK9Y7B+WSJADJLkgM9Un84S0UAQkRRr1//RK3WOS0M3fpFpfwyp8ESHZ+SvL3yVSGUreFTjvH6Db1rjZFUNF86rZdiyy+D0clZDTZ6VDp8lXH36RxSAAgOSU52dUWLao7ZP2RzQNb8olqFdF3dy69W+NlRrvZV7o1rVIHhubA8QMuvv4vqfjd7dvBI9dZ/G6cSbHO83ZvSVu89U5kaeqrU0tfnaYy6DSigkNygUpX1FAtTUr+/WNKBTsMn2h7e71HZuzNBf39TYw1penM3LTEmJi0ogoQUlVTzkhO45S/dJo00s1u/qkVzf9kVAAAB19JREFUtpXtlRk647c5JuWvvRCUn/72/Nq356l0Bp2sYJNcAKqkujojOTGn/nVQ42LgIZpin9X7t5as2vEgujTq4e4FD3dXn0oV1Ru2wWlFr1rGkOOthobdiAQT6jB9+8bYBVvux/zf3p0HNXHFcQB/2SWHhHAlKkJIAiSp4AEI6GjV6mgVW7UidbxaFbXUeuFU6zlaxYqidqwWDxQVvMBajxkdrVZrL7Ud623xQsQgCQoSOSVsEvpHATk8AEPY6Pfzb0jmzctvs1923/7eU5P+WkpMVErN1ymhPTE8qdu5qUlYsEqbvURttOSqWLwwKJFcJtBqTq+dfvp7ys6ONpUxFY9TCn3Do5dHBlX9fDZ06l5/qp2CJy2b9e+Yxcezjff2L13k570xwk9gyLh1PfXcpSvnDsVX/1vatduET9+rsUqc6xEU/A7/r2sGc1HqkQ2pR3ghsw/28hfTFhlbdQ36Usylj26fP/d3GeFTfQx1+2OAxWH1ixWJAsau3ZWwcHR3pUvFshZCUfbS4GFzN2ya5C+s/C7+v9tFCCHCgM/jEuNmhXf2qNxXhBIqeoxbkbQxwrdxP/9cef/5iT9sWTi2Twd3YbVHwjk030nasfeoL1enHFgS6vKST6iFpwqL2ZX83cxhXZWuvKrPoyihu3+/iUu27ds8tXs9LmrzfT6as2zuF8PfD1FK7LkV7V4piufYSubbdfCUmMSfTu6ZH6qouXielrw7deuP26PH9w9s82yLRMrOybvrkKg1yfvWjPBrmj7qVuHSc2S4v4BDmNsH95ysuw6xLoF66IqkxJWTQgPa2NNUuZlhGGLnLA8aMmNd0ryeLvU60rnew6I3LBke1Io26dPP/3bqxKmzF25kFdGtOoV/FZ8UF9ldbEeVl+XcunBBU32fFNqj74Jtu+JmDu2mbu3A5ZiNTBmhhG5+fScuT1wZJmvY5YBGjqE5ObQfuWrX3jXThoTIRJU9niiuozxkcNSa3ckrh7djxdX/Oho47EYUmEAdHrtje0xkP393IV3t10YgUfUcOWv9vpRvBlrvcpzlqpQFJWqjJVfJwoVBufRasC0ualCw3NmOGMuYckLRQo+AgVNid++ICVfXPG80dOpee6r56hGLFw9X8TnEnPvr6oXrzuoJoaWBvYNkomenYMrBp8+EmIRvx9feS4vXceyC2aFeFUtnKU6NFm4WLQNWHa1QE+c5G2VAk3v6KO2O5mE+00Is9VJ5unBJ8bHZ703Zn2MmhNBeEVuPfd2jRhI3FGg19zNzSgRtVG29XtxEqWGKH97N0OYWlNIiiZu7tI1ri9c8Chm9Jk2TrS828x3FHl4qt0bHZKZYr9cXMi3EbmJh/cbEFOg0D3S5+UaBa2sPmVzS7Bdam5WpSHs3XZtXynNv6ytzbMT9DObx3ctXb6RnPi7jOTiJPf2CApWuXEIIYfLSrt3Q6BmB2MsvQP7cDgGm4kf37mgKHRS+SomAkNLzq8JGbUplKLcR639Z0a/+NfE6Y2hGRdlp6Zk5xRxRS6mXsvGHgLU1bNiNKDBTke5u+oPc/KflfJHY3VslfVUP2KZlkSplSYnaaMlVsHBhMPmaWze1BoGrh4+P2yuvyTd06iw91WVPdFm6hzn5RmFrhUImecnZjsl/kHYnq1Qk9VJ4OD83AFhybCw7WgFJnSWYmxs+GbzyHwMhhPC6zj+8M9LG+pXAW6s449KF+4XllEjeKVBR+wRhykicMCD6jxIzt/205AMzA1n5iBu8+VClAGCzsPrFKgxX1g5pq/ZRqpWBk1O0dW6I5p1LOXS5YnE4TxkcLENMBxthKjyz/rOxEWMiZiddLK792oOj67aeLTETYtc6IFCNAATNBFUKALYLSd0q+FK5p3250Whi9D/HRi3d82d6ZX8VU961g0snz91Z0XyAI+ocNqgDS5/ZB6iDdlaqFFxCjPdSYpbtu16125Xp8eW9i6ZHH8o0EcIRtA/7uJut3ZeHNweqFABsF1a/WEnu8XnDJidrKrq1UHQLR0mrls68Et19XUFVj0baKSQqYUtUSH12kAdgB0Pq5vGjl58pMBNC2Tl5tvP1bskvybqdmpZdyJQTQmjnkOnxm2Z0YduScniboEoBwFYhqVuLSXc6dsrMhIsvbFZOuwSOW7Z6zgcK3H4F22K4dzR21uKkS49rd6WmKCf1h9OXLIjo0nRd7QHqBVUKALYJSd2a8m8c3haftP/URW2J6dnZgkPbu3UKHTEhcsyAto4veTcAexkeXT194vfrGVqdTvcw38hzlEhVHbv0HtA3wA3/egJLoEoBwPYgqVuf6WmeNlOTpdVl5xSYBE4tPX39O8jRBgkAAAAAakBSBwAAAABgI/R+AQAAAABgIyR1AAAAAAA2QlIHAAAAAGAjJHUAAAAAADZCUgcAAAAAYCMkdQAAAAAANkJSBwAAAABgIyR1AAAAAAA2QlIHAAAAAGAjJHUAAAAAADZCUgcAAAAAYCMkdQAAAAAANkJSBwAAAABgIyR1AAAAAAA2+g/To85mvceb2gAAAABJRU5ErkJggg==;movable=0;resizable=0;rotatable=0;deletable=0;editable=0;locked=1;connectable=0;" parent="1" vertex="1">
          <mxGeometry x="-150" y="620" width="1304.31" height="1050" as="geometry" />
        </mxCell>
        <mxCell id="NnqCrW_BLDO7N7kZBRQU-54" value="coutains_1" style="shape=rhombus;perimeter=rhombusPerimeter;whiteSpace=wrap;html=1;align=center;" parent="1" vertex="1">
          <mxGeometry x="340" y="630" width="120" height="60" as="geometry" />
        </mxCell>
        <mxCell id="NnqCrW_BLDO7N7kZBRQU-55" value="coutains_2" style="shape=rhombus;perimeter=rhombusPerimeter;whiteSpace=wrap;html=1;align=center;" parent="1" vertex="1">
          <mxGeometry x="830" y="660" width="120" height="60" as="geometry" />
        </mxCell>
        <mxCell id="NnqCrW_BLDO7N7kZBRQU-56" value="" style="endArrow=none;html=1;rounded=0;entryX=0.004;entryY=0.577;entryDx=0;entryDy=0;entryPerimeter=0;" parent="1" source="NnqCrW_BLDO7N7kZBRQU-11" target="NnqCrW_BLDO7N7kZBRQU-54" edge="1">
          <mxGeometry relative="1" as="geometry">
            <mxPoint x="130" y="540" as="sourcePoint" />
            <mxPoint x="320" y="590" as="targetPoint" />
          </mxGeometry>
        </mxCell>
        <mxCell id="NnqCrW_BLDO7N7kZBRQU-57" value="" style="endArrow=none;html=1;rounded=0;entryX=-0.008;entryY=0.522;entryDx=0;entryDy=0;entryPerimeter=0;" parent="1" source="NnqCrW_BLDO7N7kZBRQU-21" target="NnqCrW_BLDO7N7kZBRQU-55" edge="1">
          <mxGeometry relative="1" as="geometry">
            <mxPoint x="690" y="550" as="sourcePoint" />
            <mxPoint x="841" y="715" as="targetPoint" />
          </mxGeometry>
        </mxCell>
        <mxCell id="NnqCrW_BLDO7N7kZBRQU-58" value="" style="endArrow=none;html=1;rounded=0;exitX=0.997;exitY=0.512;exitDx=0;exitDy=0;exitPerimeter=0;" parent="1" source="NnqCrW_BLDO7N7kZBRQU-54" edge="1">
          <mxGeometry relative="1" as="geometry">
            <mxPoint x="570" y="740" as="sourcePoint" />
            <mxPoint x="580" y="1190" as="targetPoint" />
          </mxGeometry>
        </mxCell>
        <mxCell id="NnqCrW_BLDO7N7kZBRQU-59" value="" style="endArrow=none;html=1;rounded=0;exitX=0.96;exitY=0.548;exitDx=0;exitDy=0;exitPerimeter=0;" parent="1" source="NnqCrW_BLDO7N7kZBRQU-55" edge="1">
          <mxGeometry relative="1" as="geometry">
            <mxPoint x="470" y="671" as="sourcePoint" />
            <mxPoint x="680" y="1260" as="targetPoint" />
          </mxGeometry>
        </mxCell>
        <mxCell id="NnqCrW_BLDO7N7kZBRQU-60" value="number" style="whiteSpace=wrap;html=1;align=center;" parent="1" vertex="1">
          <mxGeometry x="360" y="490" width="100" height="40" as="geometry" />
        </mxCell>
        <mxCell id="NnqCrW_BLDO7N7kZBRQU-61" value="number" style="whiteSpace=wrap;html=1;align=center;" parent="1" vertex="1">
          <mxGeometry x="850" y="550" width="100" height="40" as="geometry" />
        </mxCell>
        <mxCell id="NnqCrW_BLDO7N7kZBRQU-62" value="" style="endArrow=none;html=1;rounded=0;dashed=1;dashPattern=1 2;exitX=0.401;exitY=0.974;exitDx=0;exitDy=0;exitPerimeter=0;entryX=0.501;entryY=0;entryDx=0;entryDy=0;entryPerimeter=0;" parent="1" source="NnqCrW_BLDO7N7kZBRQU-60" target="NnqCrW_BLDO7N7kZBRQU-54" edge="1">
          <mxGeometry relative="1" as="geometry">
            <mxPoint x="430" y="550" as="sourcePoint" />
            <mxPoint x="590" y="550" as="targetPoint" />
          </mxGeometry>
        </mxCell>
        <mxCell id="NnqCrW_BLDO7N7kZBRQU-64" value="" style="endArrow=none;html=1;rounded=0;dashed=1;dashPattern=1 2;exitX=0.535;exitY=0.038;exitDx=0;exitDy=0;exitPerimeter=0;entryX=0.391;entryY=1.027;entryDx=0;entryDy=0;entryPerimeter=0;" parent="1" source="NnqCrW_BLDO7N7kZBRQU-55" target="NnqCrW_BLDO7N7kZBRQU-61" edge="1">
          <mxGeometry relative="1" as="geometry">
            <mxPoint x="410" y="539" as="sourcePoint" />
            <mxPoint x="410" y="640" as="targetPoint" />
          </mxGeometry>
        </mxCell>
        <mxCell id="z9YQjcfmQtwo8ImtJ3mX-1" value="stocks" style="shape=rhombus;perimeter=rhombusPerimeter;whiteSpace=wrap;html=1;align=center;" vertex="1" parent="1">
          <mxGeometry x="-70" y="620" width="120" height="60" as="geometry" />
        </mxCell>
        <mxCell id="z9YQjcfmQtwo8ImtJ3mX-2" value="" style="endArrow=none;html=1;rounded=0;exitX=-0.001;exitY=-0.111;exitDx=0;exitDy=0;exitPerimeter=0;entryX=0.525;entryY=-0.056;entryDx=0;entryDy=0;entryPerimeter=0;" edge="1" parent="1" source="NnqCrW_BLDO7N7kZBRQU-11" target="z9YQjcfmQtwo8ImtJ3mX-1">
          <mxGeometry relative="1" as="geometry">
            <mxPoint x="390" y="660" as="sourcePoint" />
            <mxPoint x="550" y="660" as="targetPoint" />
          </mxGeometry>
        </mxCell>
        <mxCell id="z9YQjcfmQtwo8ImtJ3mX-4" value="" style="endArrow=none;html=1;rounded=0;entryX=0.469;entryY=1.056;entryDx=0;entryDy=0;entryPerimeter=0;" edge="1" parent="1" target="z9YQjcfmQtwo8ImtJ3mX-1">
          <mxGeometry relative="1" as="geometry">
            <mxPoint x="550" y="1400" as="sourcePoint" />
            <mxPoint x="3" y="627" as="targetPoint" />
          </mxGeometry>
        </mxCell>
        <mxCell id="z9YQjcfmQtwo8ImtJ3mX-6" value="number" style="whiteSpace=wrap;html=1;align=center;" vertex="1" parent="1">
          <mxGeometry x="-140" y="450" width="100" height="40" as="geometry" />
        </mxCell>
        <mxCell id="z9YQjcfmQtwo8ImtJ3mX-7" value="" style="endArrow=none;html=1;rounded=0;dashed=1;dashPattern=1 2;exitX=0.401;exitY=0.974;exitDx=0;exitDy=0;exitPerimeter=0;" edge="1" parent="1" source="z9YQjcfmQtwo8ImtJ3mX-6">
          <mxGeometry relative="1" as="geometry">
            <mxPoint x="-70" y="510" as="sourcePoint" />
            <mxPoint x="-31.360727996587457" y="635.6803639982938" as="targetPoint" />
          </mxGeometry>
        </mxCell>
      </root>
    </mxGraphModel>
  </diagram>
</mxfile>
